<?xml version="1.0" encoding="UTF-8"?>
<svg xmlns="http://www.w3.org/2000/svg" xmlns:xlink="http://www.w3.org/1999/xlink" width="78pt" height="54pt" viewBox="0 0 78 54" version="1.2">
<defs>
<clipPath id="clip1">
  <path d="M 36.785156 0 L 74.5625 0 L 74.5625 53.011719 L 36.785156 53.011719 Z M 36.785156 0 "/>
</clipPath>
<clipPath id="clip2">
  <path d="M 2.640625 0 L 36.929688 0 L 36.929688 53.011719 L 2.640625 53.011719 Z M 2.640625 0 "/>
</clipPath>
<clipPath id="clip3">
  <path d="M 36 8 L 75.449219 8 L 75.449219 52 L 36 52 Z M 36 8 "/>
</clipPath>
</defs>
<g id="surface1">
<g clip-path="url(#clip1)" clip-rule="nonzero">
<path style=" stroke:none;fill-rule:nonzero;fill:rgb(92.549133%,73.728943%,22.749329%);fill-opacity:1;" d="M 71.058594 19.785156 L 70.824219 19.722656 L 71.058594 18.796875 L 71.058594 0 L 36.851562 3.425781 L 36.851562 8.039062 C 36.851562 8.039062 42.679688 3.042969 50.113281 4.195312 C 57.542969 5.347656 67.535156 3.425781 67.535156 3.425781 L 67.945312 31.019531 L 70.238281 22.027344 L 70.53125 20.875 L 71.058594 21.011719 L 74.234375 21.820312 L 74.527344 20.667969 Z M 71.058594 34.277344 L 71.058594 48.433594 L 36.851562 53.011719 L 36.851562 51.351562 C 40.117188 45.332031 68.175781 46.476562 68.175781 46.476562 L 68.128906 43.296875 L 67.195312 44.414062 C 66.628906 44.089844 66.046875 44.058594 65.6875 44.082031 L 65.339844 41.261719 L 68.109375 41.96875 L 69.039062 42.203125 L 71.058594 34.277344 "/>
</g>
<g clip-path="url(#clip2)" clip-rule="nonzero">
<path style=" stroke:none;fill-rule:nonzero;fill:rgb(76.469421%,57.249451%,12.939453%);fill-opacity:1;" d="M 36.851562 53.011719 L 2.640625 48.433594 L 2.640625 0 L 36.851562 3.425781 L 36.851562 53.011719 "/>
</g>
<path style=" stroke:none;fill-rule:nonzero;fill:rgb(100%,100%,100%);fill-opacity:1;" d="M 36.851562 8.039062 C 36.851562 8.039062 31.019531 3.042969 23.589844 4.195312 C 16.15625 5.347656 6.164062 3.425781 6.164062 3.425781 L 5.523438 46.476562 C 5.523438 46.476562 33.582031 45.332031 36.851562 51.351562 Z M 36.851562 51.351562 L 36.851562 8.039062 C 36.851562 8.039062 42.679688 3.042969 50.113281 4.195312 C 57.542969 5.347656 67.535156 3.425781 67.535156 3.425781 L 67.945312 31.019531 L 65.339844 41.261719 L 65.6875 44.082031 L 65.808594 45.050781 C 65.851562 45.390625 66.277344 45.515625 66.496094 45.253906 L 67.195312 44.414062 L 68.128906 43.296875 L 68.175781 46.476562 C 68.175781 46.476562 40.117188 45.332031 36.851562 51.351562 "/>
<g clip-path="url(#clip3)" clip-rule="nonzero">
<path style=" stroke:none;fill-rule:nonzero;fill:rgb(89.408875%,30.198669%,28.239441%);fill-opacity:1;" d="M 36.945312 8.039062 L 36.753906 8.039062 L 36.753906 51.351562 L 36.945312 51.351562 Z M 74.773438 16.933594 L 72.390625 16.328125 C 72.027344 16.234375 71.65625 16.457031 71.5625 16.820312 L 71.117188 18.570312 L 74.820312 19.515625 L 75.265625 17.765625 C 75.359375 17.398438 75.140625 17.027344 74.773438 16.933594 Z M 73.941406 22.972656 L 71.058594 34.277344 L 69.039062 42.203125 L 68.109375 41.96875 L 65.339844 41.261719 L 67.945312 31.019531 L 70.238281 22.027344 L 71.058594 22.238281 L 73.941406 22.972656 "/>
</g>
<path style=" stroke:none;fill-rule:nonzero;fill:rgb(14.118958%,14.898682%,13.729858%);fill-opacity:1;" d="M 60.007812 8.59375 C 60.011719 8.621094 60.011719 8.636719 60.011719 8.667969 C 60.09375 8.667969 60.136719 8.667969 60.222656 8.667969 C 60.261719 9.679688 60.285156 10.1875 60.324219 11.199219 C 60.242188 11.199219 60.199219 11.199219 60.113281 11.195312 C 60.117188 11.226562 60.117188 11.238281 60.117188 11.269531 C 60.585938 11.277344 60.820312 11.277344 61.285156 11.273438 C 61.285156 11.246094 61.285156 11.230469 61.285156 11.203125 C 61.199219 11.203125 61.15625 11.203125 61.074219 11.203125 C 61.050781 10.71875 61.042969 10.476562 61.023438 9.992188 C 61.035156 9.988281 61.042969 9.988281 61.058594 9.984375 C 61.328125 10.46875 61.464844 10.714844 61.738281 11.195312 C 61.667969 11.199219 61.628906 11.199219 61.558594 11.199219 C 61.558594 11.230469 61.558594 11.242188 61.5625 11.273438 C 62.054688 11.265625 62.300781 11.257812 62.789062 11.238281 C 62.789062 11.210938 62.789062 11.195312 62.789062 11.167969 C 62.703125 11.171875 62.664062 11.171875 62.582031 11.175781 C 62.183594 10.46875 61.984375 10.113281 61.589844 9.402344 C 61.839844 9.105469 61.964844 8.953125 62.21875 8.652344 C 62.308594 8.648438 62.355469 8.648438 62.445312 8.644531 C 62.445312 8.617188 62.445312 8.601562 62.445312 8.574219 C 62.175781 8.582031 62.042969 8.585938 61.773438 8.589844 C 61.777344 8.621094 61.777344 8.636719 61.777344 8.664062 C 61.898438 8.660156 61.957031 8.660156 62.078125 8.65625 C 61.667969 9.148438 61.460938 9.390625 61.050781 9.871094 C 61.035156 9.875 61.03125 9.878906 61.019531 9.878906 C 61 9.398438 60.988281 9.15625 60.96875 8.671875 C 61.054688 8.671875 61.09375 8.671875 61.179688 8.671875 C 61.179688 8.640625 61.179688 8.628906 61.175781 8.597656 C 60.710938 8.601562 60.476562 8.601562 60.007812 8.59375 Z M 59.027344 10.0625 C 59.058594 10.832031 59.019531 11.199219 58.589844 11.183594 C 58.140625 11.164062 58.078125 10.75 58.046875 10.03125 C 58.042969 9.917969 58.042969 9.863281 58.035156 9.753906 C 58.003906 8.972656 58.019531 8.570312 58.484375 8.585938 C 58.945312 8.605469 58.984375 8.996094 59.015625 9.777344 C 59.019531 9.890625 59.023438 9.949219 59.027344 10.0625 Z M 57.257812 9.867188 C 57.289062 10.707031 57.722656 11.226562 58.578125 11.261719 C 59.464844 11.300781 59.84375 10.773438 59.808594 9.917969 C 59.773438 9.050781 59.335938 8.542969 58.511719 8.507812 C 57.65625 8.472656 57.21875 8.984375 57.257812 9.867188 Z M 56.15625 9.910156 C 56.1875 10.679688 56.148438 11.046875 55.71875 11.015625 C 55.269531 10.980469 55.203125 10.566406 55.175781 9.847656 C 55.171875 9.738281 55.167969 9.679688 55.164062 9.570312 C 55.132812 8.789062 55.148438 8.386719 55.609375 8.417969 C 56.074219 8.453125 56.113281 8.84375 56.144531 9.628906 C 56.148438 9.742188 56.152344 9.796875 56.15625 9.910156 Z M 54.382812 9.660156 C 54.417969 10.503906 54.847656 11.03125 55.707031 11.09375 C 56.59375 11.160156 56.972656 10.648438 56.9375 9.796875 C 56.902344 8.929688 56.464844 8.402344 55.640625 8.339844 C 54.78125 8.277344 54.347656 8.78125 54.382812 9.660156 Z M 52.769531 9.46875 C 52.804688 9.46875 52.824219 9.472656 52.859375 9.476562 C 53.230469 9.507812 53.339844 9.707031 53.351562 10.019531 C 53.355469 10.101562 53.355469 10.140625 53.359375 10.222656 C 53.375 10.574219 53.300781 10.789062 53.003906 10.761719 C 52.929688 10.757812 52.894531 10.753906 52.824219 10.746094 C 52.800781 10.234375 52.789062 9.980469 52.769531 9.46875 Z M 52.71875 8.21875 C 52.769531 8.222656 52.792969 8.222656 52.84375 8.226562 C 53.109375 8.25 53.183594 8.398438 53.195312 8.765625 C 53.199219 8.835938 53.203125 8.875 53.203125 8.945312 C 53.21875 9.257812 53.144531 9.425781 52.867188 9.402344 C 52.828125 9.398438 52.808594 9.398438 52.765625 9.394531 C 52.746094 8.921875 52.738281 8.6875 52.71875 8.21875 Z M 51.714844 8.058594 C 51.71875 8.085938 51.71875 8.101562 51.71875 8.128906 C 51.820312 8.140625 51.871094 8.144531 51.96875 8.152344 C 52.011719 9.164062 52.03125 9.671875 52.074219 10.683594 C 51.972656 10.671875 51.921875 10.667969 51.824219 10.660156 C 51.824219 10.6875 51.824219 10.703125 51.824219 10.734375 C 52.277344 10.773438 52.503906 10.792969 52.957031 10.832031 C 53.679688 10.894531 54.171875 10.777344 54.148438 10.1875 C 54.132812 9.785156 53.839844 9.558594 53.351562 9.457031 C 53.351562 9.453125 53.351562 9.453125 53.351562 9.449219 C 53.753906 9.417969 53.976562 9.242188 53.960938 8.875 C 53.941406 8.402344 53.542969 8.214844 52.867188 8.15625 C 52.40625 8.117188 52.175781 8.097656 51.714844 8.058594 Z M 49.316406 7.855469 C 49.320312 7.890625 49.320312 7.90625 49.320312 7.941406 C 49.410156 7.945312 49.457031 7.949219 49.546875 7.957031 C 49.589844 8.960938 49.609375 9.460938 49.648438 10.464844 C 49.558594 10.457031 49.515625 10.453125 49.421875 10.445312 C 49.425781 10.480469 49.425781 10.496094 49.425781 10.53125 C 50.269531 10.597656 50.695312 10.632812 51.539062 10.707031 C 51.535156 10.375 51.535156 10.210938 51.535156 9.878906 C 51.503906 9.875 51.488281 9.875 51.457031 9.871094 C 51.359375 10.277344 51.035156 10.578125 50.546875 10.539062 C 50.488281 10.535156 50.457031 10.53125 50.398438 10.527344 C 50.378906 10.035156 50.371094 9.789062 50.347656 9.300781 C 50.386719 9.304688 50.40625 9.304688 50.441406 9.308594 C 50.710938 9.332031 50.863281 9.492188 50.972656 9.882812 C 50.996094 9.882812 51.011719 9.886719 51.035156 9.886719 C 51.019531 9.433594 51.007812 9.207031 50.992188 8.757812 C 50.96875 8.753906 50.957031 8.753906 50.933594 8.75 C 50.878906 9.035156 50.726562 9.234375 50.476562 9.210938 C 50.425781 9.207031 50.398438 9.203125 50.347656 9.199219 C 50.328125 8.726562 50.316406 8.492188 50.296875 8.019531 C 50.351562 8.023438 50.378906 8.027344 50.433594 8.03125 C 50.898438 8.070312 51.085938 8.257812 51.316406 8.777344 C 51.34375 8.777344 51.359375 8.78125 51.386719 8.78125 C 51.359375 8.480469 51.34375 8.328125 51.316406 8.023438 C 50.515625 7.953125 50.117188 7.917969 49.316406 7.855469 Z M 49.054688 7.835938 C 48.148438 7.765625 47.695312 7.742188 46.773438 7.910156 C 46.773438 8.296875 46.773438 8.488281 46.773438 8.875 C 46.800781 8.871094 46.816406 8.867188 46.847656 8.863281 C 47.023438 8.234375 47.144531 7.921875 47.496094 7.890625 C 47.515625 7.886719 47.527344 7.886719 47.546875 7.882812 C 47.589844 8.890625 47.609375 9.394531 47.648438 10.398438 C 47.519531 10.410156 47.453125 10.417969 47.320312 10.4375 C 47.320312 10.46875 47.320312 10.484375 47.324219 10.515625 C 47.890625 10.441406 48.175781 10.4375 48.734375 10.476562 C 48.734375 10.445312 48.734375 10.429688 48.730469 10.398438 C 48.601562 10.386719 48.535156 10.382812 48.40625 10.378906 C 48.363281 9.371094 48.34375 8.867188 48.300781 7.863281 C 48.320312 7.863281 48.332031 7.863281 48.347656 7.863281 C 48.699219 7.878906 48.828125 8.152344 49.0625 8.792969 C 49.089844 8.792969 49.105469 8.792969 49.132812 8.796875 C 49.101562 8.414062 49.085938 8.21875 49.054688 7.835938 Z M 45.800781 9.636719 C 45.832031 10.402344 45.792969 10.785156 45.351562 10.910156 C 44.890625 11.039062 44.828125 10.644531 44.796875 9.925781 C 44.792969 9.8125 44.792969 9.757812 44.785156 9.648438 C 44.753906 8.867188 44.769531 8.449219 45.246094 8.3125 C 45.71875 8.179688 45.757812 8.570312 45.789062 9.351562 C 45.792969 9.464844 45.796875 9.523438 45.800781 9.636719 Z M 43.988281 10.035156 C 44.023438 10.875 44.460938 11.242188 45.339844 10.996094 C 46.25 10.738281 46.636719 10.136719 46.605469 9.28125 C 46.566406 8.414062 46.121094 7.988281 45.273438 8.226562 C 44.398438 8.472656 43.953125 9.15625 43.988281 10.035156 Z M 43.5 8.847656 C 43.585938 8.824219 43.628906 8.8125 43.714844 8.789062 C 43.714844 8.761719 43.714844 8.746094 43.710938 8.714844 C 43.496094 8.777344 43.390625 8.804688 43.175781 8.859375 C 43.175781 8.886719 43.175781 8.902344 43.179688 8.929688 C 43.265625 8.910156 43.308594 8.898438 43.394531 8.875 C 43.421875 9.613281 43.4375 9.984375 43.46875 10.722656 C 43.027344 10.0625 42.804688 9.726562 42.367188 9.035156 C 41.941406 9.109375 41.726562 9.140625 41.304688 9.15625 C 41.308594 9.1875 41.308594 9.199219 41.308594 9.230469 C 41.394531 9.226562 41.433594 9.222656 41.519531 9.21875 C 41.558594 10.230469 41.582031 10.734375 41.621094 11.746094 C 41.539062 11.753906 41.496094 11.757812 41.414062 11.761719 C 41.414062 11.789062 41.414062 11.804688 41.414062 11.832031 C 41.625 11.824219 41.730469 11.816406 41.941406 11.789062 C 41.941406 11.761719 41.9375 11.746094 41.9375 11.71875 C 41.851562 11.726562 41.8125 11.730469 41.726562 11.738281 C 41.6875 10.777344 41.667969 10.300781 41.628906 9.339844 C 42.195312 10.28125 42.484375 10.722656 43.058594 11.589844 C 43.277344 11.539062 43.386719 11.507812 43.605469 11.449219 C 43.5625 10.410156 43.542969 9.890625 43.5 8.847656 Z M 31.714844 11.578125 C 31.34375 11.523438 31.042969 11.050781 30.894531 10.667969 C 30.871094 10.664062 30.859375 10.660156 30.839844 10.652344 C 30.832031 10.988281 30.828125 11.152344 30.824219 11.484375 C 30.839844 11.492188 30.851562 11.492188 30.871094 11.496094 C 30.898438 11.4375 30.921875 11.402344 30.976562 11.414062 C 31.070312 11.433594 31.34375 11.597656 31.675781 11.648438 C 32.171875 11.722656 32.535156 11.410156 32.5625 10.910156 C 32.597656 10.335938 32.179688 10.171875 31.808594 10.015625 C 31.472656 9.871094 31.25 9.734375 31.265625 9.476562 C 31.277344 9.273438 31.453125 9.164062 31.695312 9.203125 C 32.042969 9.257812 32.257812 9.628906 32.414062 9.964844 C 32.4375 9.964844 32.449219 9.964844 32.46875 9.96875 C 32.476562 9.6875 32.480469 9.546875 32.488281 9.265625 C 32.472656 9.265625 32.464844 9.265625 32.449219 9.261719 C 32.421875 9.304688 32.402344 9.328125 32.34375 9.324219 C 32.226562 9.3125 32.054688 9.1875 31.746094 9.136719 C 31.222656 9.054688 30.925781 9.347656 30.902344 9.734375 C 30.871094 10.257812 31.167969 10.496094 31.570312 10.683594 C 31.980469 10.875 32.1875 10.984375 32.171875 11.269531 C 32.15625 11.523438 31.917969 11.609375 31.714844 11.578125 Z M 30.257812 9.730469 C 30.515625 9.632812 30.71875 9.476562 30.734375 9.210938 C 30.746094 9 30.632812 8.851562 30.457031 8.808594 C 30.308594 8.769531 30.183594 8.839844 30.175781 8.992188 C 30.167969 9.125 30.261719 9.234375 30.335938 9.28125 C 30.394531 9.242188 30.425781 9.21875 30.484375 9.179688 C 30.523438 9.195312 30.570312 9.242188 30.566406 9.328125 C 30.558594 9.453125 30.460938 9.578125 30.230469 9.671875 C 30.242188 9.695312 30.25 9.707031 30.257812 9.730469 Z M 28.675781 8.511719 C 28.71875 8.519531 28.742188 8.527344 28.785156 8.539062 C 29.015625 8.59375 29.148438 8.695312 29.125 9.082031 C 29.121094 9.121094 29.121094 9.140625 29.117188 9.183594 C 29.097656 9.554688 28.960938 9.664062 28.71875 9.605469 C 28.675781 9.59375 28.65625 9.585938 28.613281 9.578125 C 28.636719 9.148438 28.652344 8.9375 28.675781 8.511719 Z M 28.785156 9.6875 C 28.960938 9.730469 29 9.871094 28.984375 10.117188 C 28.980469 10.21875 28.976562 10.269531 28.96875 10.371094 C 28.941406 10.859375 29.054688 11.039062 29.46875 11.148438 C 29.777344 11.230469 29.875 11.152344 29.949219 10.769531 C 29.925781 10.761719 29.914062 10.757812 29.894531 10.75 C 29.835938 11.007812 29.78125 11.023438 29.722656 11.007812 C 29.632812 10.984375 29.625 10.902344 29.640625 10.675781 C 29.644531 10.601562 29.644531 10.566406 29.648438 10.492188 C 29.675781 10.089844 29.5625 9.910156 29.207031 9.769531 C 29.207031 9.765625 29.207031 9.761719 29.207031 9.757812 C 29.558594 9.820312 29.777344 9.75 29.804688 9.328125 C 29.832031 8.824219 29.507812 8.652344 28.816406 8.480469 C 28.417969 8.378906 28.21875 8.328125 27.816406 8.25 C 27.816406 8.277344 27.816406 8.289062 27.8125 8.316406 C 27.898438 8.332031 27.941406 8.34375 28.03125 8.359375 C 27.976562 9.277344 27.949219 9.738281 27.894531 10.652344 C 27.808594 10.636719 27.761719 10.628906 27.675781 10.609375 C 27.675781 10.636719 27.675781 10.648438 27.671875 10.675781 C 28.105469 10.761719 28.320312 10.8125 28.75 10.921875 C 28.75 10.898438 28.753906 10.882812 28.753906 10.855469 C 28.667969 10.835938 28.625 10.824219 28.539062 10.804688 C 28.566406 10.339844 28.582031 10.105469 28.609375 9.644531 C 28.679688 9.660156 28.714844 9.667969 28.785156 9.6875 Z M 25.714844 8.074219 C 25.710938 8.105469 25.710938 8.121094 25.707031 8.148438 C 25.792969 8.148438 25.832031 8.144531 25.914062 8.144531 C 25.859375 9.050781 25.832031 9.507812 25.78125 10.414062 C 25.699219 10.417969 25.65625 10.417969 25.574219 10.421875 C 25.574219 10.453125 25.570312 10.46875 25.570312 10.5 C 26.335938 10.46875 26.707031 10.503906 27.441406 10.632812 C 27.472656 10.332031 27.484375 10.183594 27.515625 9.882812 C 27.488281 9.878906 27.472656 9.875 27.449219 9.871094 C 27.324219 10.230469 27.011719 10.480469 26.582031 10.441406 C 26.527344 10.4375 26.503906 10.4375 26.453125 10.433594 C 26.476562 9.988281 26.492188 9.765625 26.515625 9.320312 C 26.550781 9.320312 26.566406 9.324219 26.597656 9.324219 C 26.835938 9.34375 26.957031 9.496094 27.019531 9.855469 C 27.039062 9.859375 27.050781 9.859375 27.074219 9.863281 C 27.097656 9.453125 27.113281 9.246094 27.136719 8.835938 C 27.117188 8.835938 27.105469 8.832031 27.085938 8.832031 C 27.011719 9.085938 26.859375 9.257812 26.636719 9.238281 C 26.59375 9.234375 26.570312 9.234375 26.523438 9.230469 C 26.546875 8.800781 26.5625 8.585938 26.585938 8.160156 C 26.632812 8.164062 26.65625 8.164062 26.707031 8.167969 C 27.117188 8.203125 27.265625 8.386719 27.421875 8.871094 C 27.445312 8.878906 27.457031 8.878906 27.484375 8.882812 C 27.484375 8.605469 27.488281 8.46875 27.488281 8.191406 C 26.792969 8.074219 26.4375 8.042969 25.714844 8.074219 Z M 25.476562 8.082031 C 24.652344 8.117188 24.242188 8.136719 23.417969 8.179688 C 23.382812 8.527344 23.367188 8.703125 23.332031 9.050781 C 23.359375 9.050781 23.371094 9.050781 23.398438 9.046875 C 23.609375 8.503906 23.742188 8.234375 24.058594 8.21875 C 24.078125 8.21875 24.085938 8.21875 24.105469 8.21875 C 24.050781 9.128906 24.023438 9.585938 23.96875 10.5 C 23.851562 10.503906 23.792969 10.507812 23.671875 10.511719 C 23.671875 10.542969 23.671875 10.554688 23.667969 10.585938 C 24.179688 10.558594 24.433594 10.546875 24.941406 10.523438 C 24.945312 10.496094 24.945312 10.480469 24.945312 10.453125 C 24.828125 10.457031 24.769531 10.460938 24.652344 10.464844 C 24.703125 9.554688 24.730469 9.097656 24.785156 8.1875 C 24.800781 8.183594 24.808594 8.183594 24.828125 8.183594 C 25.144531 8.171875 25.238281 8.398438 25.394531 8.953125 C 25.421875 8.953125 25.433594 8.953125 25.460938 8.953125 C 25.464844 8.605469 25.46875 8.429688 25.476562 8.082031 Z M 21.890625 8.324219 C 21.9375 8.320312 21.960938 8.320312 22.003906 8.320312 C 22.25 8.304688 22.390625 8.359375 22.367188 8.75 C 22.363281 8.789062 22.363281 8.808594 22.359375 8.847656 C 22.335938 9.222656 22.195312 9.371094 21.9375 9.386719 C 21.894531 9.386719 21.871094 9.390625 21.828125 9.390625 C 21.851562 8.964844 21.863281 8.75 21.890625 8.324219 Z M 22.007812 9.449219 C 22.195312 9.4375 22.238281 9.5625 22.222656 9.808594 C 22.214844 9.910156 22.214844 9.960938 22.207031 10.0625 C 22.179688 10.550781 22.300781 10.691406 22.738281 10.667969 C 23.0625 10.652344 23.167969 10.546875 23.242188 10.148438 C 23.21875 10.144531 23.207031 10.144531 23.183594 10.144531 C 23.121094 10.414062 23.070312 10.445312 23.007812 10.449219 C 22.90625 10.453125 22.902344 10.375 22.914062 10.148438 C 22.917969 10.078125 22.921875 10.039062 22.925781 9.96875 C 22.949219 9.566406 22.832031 9.425781 22.457031 9.398438 C 22.457031 9.394531 22.457031 9.390625 22.457031 9.386719 C 22.828125 9.335938 23.058594 9.199219 23.085938 8.777344 C 23.113281 8.273438 22.769531 8.214844 22.039062 8.25 C 21.617188 8.273438 21.410156 8.285156 20.988281 8.304688 C 20.984375 8.332031 20.984375 8.34375 20.984375 8.371094 C 21.074219 8.367188 21.117188 8.363281 21.210938 8.359375 C 21.15625 9.277344 21.128906 9.734375 21.074219 10.652344 C 20.984375 10.65625 20.9375 10.660156 20.847656 10.664062 C 20.84375 10.691406 20.84375 10.703125 20.84375 10.730469 C 21.296875 10.707031 21.523438 10.695312 21.976562 10.671875 C 21.976562 10.644531 21.980469 10.632812 21.980469 10.605469 C 21.890625 10.609375 21.84375 10.613281 21.753906 10.617188 C 21.78125 10.152344 21.796875 9.921875 21.824219 9.457031 C 21.898438 9.453125 21.933594 9.453125 22.007812 9.449219 Z M 19.992188 9.707031 C 19.949219 10.402344 19.882812 10.742188 19.492188 10.757812 C 19.082031 10.777344 19.0625 10.402344 19.101562 9.753906 C 19.109375 9.652344 19.113281 9.601562 19.117188 9.503906 C 19.160156 8.792969 19.210938 8.425781 19.632812 8.40625 C 20.050781 8.386719 20.050781 8.738281 20.007812 9.449219 C 20 9.550781 20 9.601562 19.992188 9.707031 Z M 18.394531 9.671875 C 18.347656 10.433594 18.695312 10.867188 19.472656 10.832031 C 20.277344 10.796875 20.675781 10.292969 20.71875 9.519531 C 20.765625 8.734375 20.414062 8.296875 19.664062 8.332031 C 18.886719 8.367188 18.441406 8.875 18.394531 9.671875 Z M 17.105469 8.53125 C 17.144531 8.53125 17.160156 8.527344 17.199219 8.527344 C 17.464844 8.519531 17.539062 8.65625 17.515625 9.046875 C 17.511719 9.113281 17.511719 9.148438 17.507812 9.214844 C 17.484375 9.617188 17.394531 9.820312 17.101562 9.828125 C 17.074219 9.828125 17.058594 9.828125 17.027344 9.832031 C 17.058594 9.308594 17.074219 9.050781 17.105469 8.53125 Z M 16.203125 8.484375 C 16.203125 8.511719 16.203125 8.523438 16.199219 8.550781 C 16.289062 8.550781 16.335938 8.546875 16.425781 8.546875 C 16.371094 9.464844 16.34375 9.921875 16.289062 10.839844 C 16.199219 10.84375 16.152344 10.84375 16.0625 10.84375 C 16.0625 10.871094 16.0625 10.882812 16.058594 10.910156 C 16.597656 10.902344 16.863281 10.894531 17.402344 10.878906 C 17.402344 10.851562 17.402344 10.839844 17.40625 10.8125 C 17.230469 10.816406 17.144531 10.820312 16.96875 10.824219 C 16.992188 10.453125 17.003906 10.265625 17.023438 9.894531 C 17.035156 9.894531 17.042969 9.894531 17.050781 9.894531 C 17.726562 9.875 18.195312 9.707031 18.230469 9.117188 C 18.261719 8.574219 17.882812 8.445312 17.226562 8.460938 C 16.816406 8.472656 16.613281 8.476562 16.203125 8.484375 Z M 14.054688 8.492188 C 14.050781 8.523438 14.050781 8.539062 14.050781 8.566406 C 14.132812 8.570312 14.171875 8.570312 14.253906 8.570312 C 14.199219 9.480469 14.171875 9.933594 14.121094 10.84375 C 14.039062 10.839844 13.996094 10.839844 13.914062 10.839844 C 13.914062 10.871094 13.910156 10.886719 13.910156 10.914062 C 14.671875 10.925781 15.054688 10.925781 15.820312 10.914062 C 15.847656 10.613281 15.863281 10.460938 15.890625 10.15625 C 15.863281 10.160156 15.851562 10.160156 15.824219 10.160156 C 15.695312 10.539062 15.371094 10.84375 14.929688 10.84375 C 14.878906 10.84375 14.851562 10.84375 14.796875 10.84375 C 14.824219 10.402344 14.835938 10.179688 14.863281 9.734375 C 14.898438 9.734375 14.914062 9.734375 14.949219 9.734375 C 15.191406 9.734375 15.316406 9.867188 15.378906 10.210938 C 15.402344 10.210938 15.414062 10.210938 15.4375 10.210938 C 15.460938 9.800781 15.472656 9.597656 15.496094 9.1875 C 15.476562 9.1875 15.464844 9.1875 15.445312 9.1875 C 15.371094 9.449219 15.214844 9.640625 14.988281 9.644531 C 14.941406 9.644531 14.917969 9.644531 14.867188 9.644531 C 14.894531 9.214844 14.90625 9 14.933594 8.574219 C 14.980469 8.574219 15.003906 8.574219 15.054688 8.574219 C 15.476562 8.570312 15.628906 8.726562 15.792969 9.175781 C 15.820312 9.175781 15.832031 9.175781 15.855469 9.175781 C 15.859375 8.902344 15.859375 8.765625 15.863281 8.488281 C 15.140625 8.5 14.777344 8.5 14.054688 8.492188 Z M 12.445312 8.515625 C 12.492188 8.515625 12.515625 8.515625 12.558594 8.519531 C 12.804688 8.527344 12.941406 8.59375 12.917969 8.984375 C 12.917969 9.023438 12.914062 9.042969 12.914062 9.082031 C 12.890625 9.457031 12.75 9.597656 12.492188 9.585938 C 12.449219 9.585938 12.425781 9.582031 12.382812 9.582031 C 12.40625 9.15625 12.421875 8.941406 12.445312 8.515625 Z M 12.5625 9.652344 C 12.75 9.660156 12.789062 9.789062 12.777344 10.035156 C 12.769531 10.136719 12.765625 10.1875 12.761719 10.289062 C 12.730469 10.777344 12.851562 10.929688 13.289062 10.941406 C 13.613281 10.945312 13.714844 10.847656 13.792969 10.453125 C 13.769531 10.449219 13.757812 10.449219 13.734375 10.445312 C 13.671875 10.714844 13.617188 10.742188 13.554688 10.742188 C 13.457031 10.738281 13.453125 10.660156 13.464844 10.433594 C 13.46875 10.359375 13.472656 10.324219 13.476562 10.25 C 13.5 9.847656 13.378906 9.703125 13.007812 9.640625 C 13.007812 9.636719 13.007812 9.636719 13.007812 9.632812 C 13.378906 9.609375 13.609375 9.488281 13.632812 9.066406 C 13.664062 8.5625 13.320312 8.480469 12.59375 8.453125 C 12.175781 8.4375 11.964844 8.429688 11.546875 8.402344 C 11.546875 8.429688 11.546875 8.441406 11.542969 8.46875 C 11.632812 8.472656 11.679688 8.476562 11.769531 8.480469 C 11.714844 9.398438 11.6875 9.859375 11.632812 10.773438 C 11.542969 10.769531 11.496094 10.769531 11.40625 10.761719 C 11.40625 10.789062 11.40625 10.800781 11.402344 10.828125 C 11.855469 10.855469 12.078125 10.867188 12.53125 10.882812 C 12.53125 10.855469 12.535156 10.84375 12.535156 10.816406 C 12.445312 10.8125 12.398438 10.8125 12.308594 10.808594 C 12.335938 10.34375 12.351562 10.113281 12.378906 9.648438 C 12.453125 9.648438 12.488281 9.652344 12.5625 9.652344 Z M 35.320312 44.335938 C 31.28125 42.066406 27.398438 40.90625 23.78125 40.898438 C 21.507812 40.890625 19.246094 41.332031 17.050781 41.757812 C 14.417969 42.269531 11.695312 42.796875 9.011719 42.535156 L 8.972656 42.917969 C 11.714844 43.1875 14.464844 42.652344 17.121094 42.136719 C 19.28125 41.714844 21.515625 41.28125 23.726562 41.28125 C 23.746094 41.28125 23.761719 41.28125 23.78125 41.28125 C 27.328125 41.292969 31.148438 42.433594 35.132812 44.671875 Z M 35.320312 40.921875 C 31.277344 38.648438 27.398438 37.492188 23.78125 37.480469 C 23.765625 37.480469 23.746094 37.480469 23.726562 37.480469 C 21.480469 37.480469 19.226562 37.917969 17.050781 38.339844 C 14.417969 38.851562 11.695312 39.382812 9.011719 39.121094 L 8.972656 39.503906 C 11.714844 39.769531 14.464844 39.234375 17.121094 38.71875 C 19.300781 38.292969 21.554688 37.859375 23.78125 37.863281 C 27.328125 37.875 31.148438 39.015625 35.132812 41.257812 Z M 35.320312 37.503906 C 31.28125 35.230469 27.398438 34.074219 23.78125 34.0625 C 23.765625 34.0625 23.746094 34.0625 23.730469 34.0625 C 21.480469 34.0625 19.226562 34.5 17.050781 34.925781 C 14.417969 35.4375 11.695312 35.964844 9.011719 35.703125 L 8.972656 36.085938 C 11.714844 36.351562 14.464844 35.820312 17.125 35.300781 C 19.285156 34.882812 21.515625 34.449219 23.730469 34.449219 C 23.746094 34.449219 23.765625 34.449219 23.78125 34.449219 C 27.328125 34.457031 31.148438 35.601562 35.132812 37.839844 Z M 35.320312 34.089844 C 31.28125 31.816406 27.398438 30.660156 23.78125 30.648438 C 23.765625 30.648438 23.746094 30.648438 23.726562 30.648438 C 21.480469 30.648438 19.226562 31.085938 17.050781 31.507812 C 14.417969 32.019531 11.695312 32.546875 9.011719 32.289062 L 8.972656 32.667969 C 11.714844 32.9375 14.464844 32.402344 17.121094 31.886719 C 19.28125 31.464844 21.515625 31.03125 23.726562 31.03125 C 23.746094 31.03125 23.761719 31.03125 23.78125 31.03125 C 27.328125 31.042969 31.148438 32.183594 35.132812 34.421875 Z M 35.320312 30.648438 C 31.28125 28.375 27.398438 27.21875 23.78125 27.207031 C 21.515625 27.207031 19.246094 27.640625 17.050781 28.070312 C 14.417969 28.582031 11.695312 29.109375 9.011719 28.847656 L 8.972656 29.230469 C 11.714844 29.496094 14.464844 28.964844 17.121094 28.445312 C 19.28125 28.027344 21.515625 27.59375 23.726562 27.59375 C 23.746094 27.59375 23.761719 27.59375 23.78125 27.59375 C 27.328125 27.601562 31.148438 28.746094 35.132812 30.984375 Z M 35.320312 27.234375 C 31.28125 24.960938 27.398438 23.800781 23.78125 23.789062 C 21.507812 23.785156 19.246094 24.226562 17.050781 24.652344 C 14.417969 25.164062 11.695312 25.691406 9.011719 25.429688 L 8.972656 25.8125 C 11.714844 26.082031 14.464844 25.546875 17.121094 25.03125 C 19.300781 24.605469 21.554688 24.171875 23.78125 24.175781 C 27.328125 24.1875 31.148438 25.328125 35.132812 27.566406 Z M 35.320312 23.792969 C 31.28125 21.519531 27.398438 20.363281 23.78125 20.351562 C 21.515625 20.347656 19.246094 20.785156 17.050781 21.214844 C 14.417969 21.726562 11.695312 22.253906 9.011719 21.992188 L 8.972656 22.375 C 11.714844 22.640625 14.464844 22.109375 17.121094 21.589844 C 19.300781 21.167969 21.554688 20.738281 23.78125 20.738281 C 27.328125 20.746094 31.148438 21.886719 35.132812 24.128906 Z M 35.320312 20.375 C 31.28125 18.105469 27.398438 16.945312 23.78125 16.933594 C 21.507812 16.925781 19.246094 17.371094 17.050781 17.796875 C 14.417969 18.308594 11.695312 18.835938 9.011719 18.574219 L 8.972656 18.957031 C 11.714844 19.226562 14.464844 18.691406 17.121094 18.171875 C 19.28125 17.753906 21.515625 17.320312 23.726562 17.320312 C 23.746094 17.320312 23.761719 17.320312 23.78125 17.320312 C 27.328125 17.332031 31.148438 18.472656 35.132812 20.710938 Z M 35.320312 16.273438 C 31.277344 14.003906 27.398438 12.84375 23.78125 12.835938 C 23.765625 12.835938 23.746094 12.835938 23.726562 12.835938 C 21.480469 12.835938 19.226562 13.273438 17.050781 13.695312 C 14.417969 14.207031 11.695312 14.734375 9.011719 14.472656 L 8.972656 14.855469 C 11.714844 15.125 14.464844 14.589844 17.121094 14.074219 C 19.300781 13.648438 21.546875 13.210938 23.78125 13.21875 C 27.328125 13.230469 31.148438 14.371094 35.132812 16.609375 Z M 49.730469 41.28125 C 49.746094 41.28125 49.765625 41.28125 49.78125 41.28125 C 51.996094 41.28125 54.230469 41.714844 56.386719 42.136719 C 59.046875 42.652344 61.796875 43.1875 64.539062 42.917969 L 64.5 42.535156 C 61.816406 42.796875 59.09375 42.269531 56.460938 41.757812 C 54.265625 41.332031 52.003906 40.890625 49.730469 40.898438 C 46.113281 40.90625 42.230469 42.066406 38.191406 44.335938 L 38.378906 44.671875 C 42.363281 42.433594 46.179688 41.292969 49.730469 41.28125 Z M 49.730469 37.863281 C 49.746094 37.863281 49.765625 37.863281 49.78125 37.863281 C 51.996094 37.863281 54.230469 38.300781 56.386719 38.71875 C 59.046875 39.234375 61.796875 39.769531 64.539062 39.503906 L 64.5 39.121094 C 61.816406 39.382812 59.09375 38.851562 56.460938 38.339844 C 54.285156 37.917969 52.03125 37.480469 49.78125 37.480469 C 49.765625 37.480469 49.746094 37.480469 49.730469 37.480469 C 46.113281 37.492188 42.230469 38.648438 38.191406 40.921875 L 38.378906 41.257812 C 42.363281 39.015625 46.179688 37.875 49.730469 37.863281 Z M 49.730469 34.449219 C 49.746094 34.449219 49.765625 34.449219 49.78125 34.449219 C 51.996094 34.449219 54.226562 34.882812 56.386719 35.300781 C 59.046875 35.820312 61.796875 36.351562 64.539062 36.085938 L 64.5 35.703125 C 61.816406 35.964844 59.09375 35.4375 56.460938 34.925781 C 54.285156 34.5 52.03125 34.0625 49.78125 34.0625 C 49.765625 34.0625 49.746094 34.0625 49.730469 34.0625 C 46.113281 34.074219 42.230469 35.230469 38.191406 37.503906 L 38.378906 37.839844 C 42.363281 35.601562 46.179688 34.457031 49.730469 34.449219 Z M 49.730469 31.03125 C 49.746094 31.03125 49.765625 31.03125 49.78125 31.03125 C 51.996094 31.03125 54.230469 31.464844 56.386719 31.886719 C 59.046875 32.402344 61.796875 32.9375 64.539062 32.667969 L 64.5 32.289062 C 61.816406 32.546875 59.09375 32.019531 56.460938 31.507812 C 54.265625 31.082031 52.003906 30.640625 49.730469 30.648438 C 46.113281 30.660156 42.230469 31.816406 38.191406 34.089844 L 38.378906 34.421875 C 42.363281 32.183594 46.179688 31.042969 49.730469 31.03125 Z M 49.730469 27.59375 C 49.746094 27.59375 49.765625 27.59375 49.78125 27.59375 C 51.996094 27.59375 54.226562 28.027344 56.386719 28.445312 C 59.046875 28.964844 61.796875 29.5 64.539062 29.230469 L 64.5 28.847656 C 61.816406 29.109375 59.09375 28.582031 56.460938 28.070312 C 54.285156 27.644531 52.03125 27.207031 49.78125 27.207031 C 49.765625 27.207031 49.746094 27.207031 49.730469 27.207031 C 46.113281 27.21875 42.230469 28.375 38.191406 30.648438 L 38.378906 30.984375 C 42.363281 28.746094 46.179688 27.601562 49.730469 27.59375 Z M 49.730469 24.175781 C 49.746094 24.175781 49.765625 24.175781 49.78125 24.175781 C 51.996094 24.175781 54.230469 24.609375 56.386719 25.03125 C 59.046875 25.546875 61.796875 26.082031 64.539062 25.8125 L 64.5 25.429688 C 61.816406 25.691406 59.09375 25.164062 56.460938 24.652344 C 54.285156 24.230469 52.03125 23.789062 49.78125 23.789062 C 49.765625 23.789062 49.746094 23.789062 49.730469 23.789062 C 46.113281 23.800781 42.230469 24.960938 38.191406 27.234375 L 38.378906 27.566406 C 42.363281 25.328125 46.179688 24.1875 49.730469 24.175781 Z M 49.730469 20.738281 C 49.746094 20.738281 49.765625 20.738281 49.78125 20.738281 C 51.996094 20.738281 54.226562 21.171875 56.386719 21.589844 C 59.046875 22.109375 61.796875 22.644531 64.539062 22.375 L 64.5 21.992188 C 61.816406 22.253906 59.09375 21.726562 56.460938 21.214844 C 54.265625 20.785156 52.003906 20.34375 49.730469 20.351562 C 46.113281 20.363281 42.230469 21.519531 38.191406 23.792969 L 38.378906 24.128906 C 42.363281 21.886719 46.179688 20.746094 49.730469 20.738281 Z M 49.730469 17.320312 C 49.746094 17.320312 49.765625 17.320312 49.78125 17.320312 C 51.996094 17.320312 54.230469 17.753906 56.386719 18.171875 C 59.046875 18.691406 61.796875 19.226562 64.539062 18.957031 L 64.5 18.574219 C 61.816406 18.835938 59.09375 18.308594 56.460938 17.796875 C 54.285156 17.371094 52.03125 16.933594 49.78125 16.933594 C 49.765625 16.933594 49.746094 16.933594 49.730469 16.933594 C 46.113281 16.945312 42.230469 18.105469 38.191406 20.375 L 38.378906 20.710938 C 42.363281 18.472656 46.179688 17.332031 49.730469 17.320312 Z M 49.730469 13.21875 C 49.746094 13.21875 49.765625 13.21875 49.78125 13.21875 C 51.996094 13.21875 54.230469 13.652344 56.386719 14.074219 C 59.046875 14.589844 61.796875 15.125 64.539062 14.855469 L 64.5 14.472656 C 61.816406 14.734375 59.09375 14.207031 56.460938 13.695312 C 54.285156 13.273438 52.03125 12.835938 49.78125 12.835938 C 49.765625 12.835938 49.746094 12.835938 49.730469 12.835938 C 46.113281 12.84375 42.230469 14.003906 38.191406 16.273438 L 38.378906 16.609375 C 42.363281 14.371094 46.179688 13.230469 49.730469 13.21875 Z M 71.117188 18.570312 L 71.058594 18.796875 L 70.824219 19.722656 L 71.058594 19.785156 L 74.527344 20.667969 L 74.820312 19.515625 Z M 71.058594 21.011719 L 70.53125 20.875 L 70.238281 22.027344 L 71.058594 22.238281 L 73.941406 22.972656 L 74.234375 21.820312 Z M 67.195312 44.414062 L 66.496094 45.253906 C 66.277344 45.515625 65.851562 45.390625 65.808594 45.050781 L 65.6875 44.082031 C 66.046875 44.058594 66.628906 44.089844 67.195312 44.414062 "/>
</g>
</svg>
