<?xml version="1.0" encoding="UTF-8"?>
<svg xmlns="http://www.w3.org/2000/svg" xmlns:xlink="http://www.w3.org/1999/xlink" width="78pt" height="54pt" viewBox="0 0 78 54" version="1.2">
<defs>
<clipPath id="clip1">
  <path d="M 32.566406 9.3125 L 48.765625 9.3125 L 48.765625 52.023438 L 32.566406 52.023438 Z M 32.566406 9.3125 "/>
</clipPath>
<clipPath id="clip2">
  <path d="M 48.523438 19.117188 L 76.957031 19.117188 L 76.957031 48.308594 L 48.523438 48.308594 Z M 48.523438 19.117188 "/>
</clipPath>
<clipPath id="clip3">
  <path d="M 31.046875 1.195312 L 35 1.195312 L 35 7 L 31.046875 7 Z M 31.046875 1.195312 "/>
</clipPath>
<clipPath id="clip4">
  <path d="M 32 1.195312 L 35 1.195312 L 35 3 L 32 3 Z M 32 1.195312 "/>
</clipPath>
<clipPath id="clip5">
  <path d="M 41 1.195312 L 44.96875 1.195312 L 44.96875 7 L 41 7 Z M 41 1.195312 "/>
</clipPath>
<clipPath id="clip6">
  <path d="M 42 1.195312 L 44 1.195312 L 44 3 L 42 3 Z M 42 1.195312 "/>
</clipPath>
<clipPath id="clip7">
  <path d="M 34 2 L 38 2 L 38 9.28125 L 34 9.28125 Z M 34 2 "/>
</clipPath>
<clipPath id="clip8">
  <path d="M 37 2 L 42 2 L 42 9.28125 L 37 9.28125 Z M 37 2 "/>
</clipPath>
<clipPath id="clip9">
  <path d="M 1.28125 19.117188 L 29.425781 19.117188 L 29.425781 48.308594 L 1.28125 48.308594 Z M 1.28125 19.117188 "/>
</clipPath>
<clipPath id="clip10">
  <path d="M 64.464844 1.523438 L 70 1.523438 L 70 7 L 64.464844 7 Z M 64.464844 1.523438 "/>
</clipPath>
<clipPath id="clip11">
  <path d="M 64.464844 2 L 77.289062 2 L 77.289062 14.777344 L 64.464844 14.777344 Z M 64.464844 2 "/>
</clipPath>
<clipPath id="clip12">
  <path d="M 8 1.523438 L 13.964844 1.523438 L 13.964844 7 L 8 7 Z M 8 1.523438 "/>
</clipPath>
<clipPath id="clip13">
  <path d="M 0.710938 2 L 13.964844 2 L 13.964844 14.777344 L 0.710938 14.777344 Z M 0.710938 2 "/>
</clipPath>
</defs>
<g id="surface1">
<g clip-path="url(#clip1)" clip-rule="nonzero">
<path style=" stroke:none;fill-rule:nonzero;fill:rgb(0%,0%,0%);fill-opacity:1;" d="M 38.054688 9.324219 C 38.128906 9.488281 38.242188 9.636719 38.300781 9.8125 C 38.402344 10.097656 37.820312 11.542969 39.710938 12.820312 C 40.816406 13.558594 41.820312 14.433594 42.804688 15.324219 C 43.023438 15.515625 43.191406 15.769531 43.300781 16.039062 C 43.53125 16.640625 43.300781 19.800781 42.113281 22.441406 C 41.515625 23.804688 41.042969 25.21875 40.703125 26.664062 C 40.628906 26.984375 40.539062 27.257812 40.65625 28.019531 C 41.351562 32.441406 42.867188 31.972656 45.703125 34.058594 C 46.824219 34.886719 49.023438 36.320312 48.179688 37.488281 C 47.519531 38.382812 44.621094 38.902344 40.789062 40.597656 C 39.6875 41.144531 39.304688 43.207031 39.316406 44.042969 C 39.300781 44.925781 39.503906 44.8125 39.503906 46.136719 C 39.539062 47.566406 40.320312 48.46875 39.695312 51.078125 C 39.460938 51.957031 38.898438 52.339844 38.058594 51.90625 C 38.414062 50.667969 38.753906 49.894531 38.589844 48.542969 C 38.398438 46.972656 37.746094 45.878906 37.222656 43.632812 C 35.265625 35.121094 33.875 33.355469 35.476562 29.042969 C 37.132812 24.570312 32.84375 21.515625 32.566406 16.261719 C 32.578125 15.882812 32.824219 15.425781 33.125 15.1875 C 36.175781 12.695312 37.238281 13.21875 37.746094 9.910156 C 37.792969 9.691406 37.949219 9.519531 38.054688 9.324219 M 36.070312 14.191406 C 34.355469 15.71875 34.144531 15.972656 34.203125 16.308594 C 34.855469 19.5625 34.855469 20.390625 36.714844 21.355469 C 36.328125 19.144531 35.878906 18.066406 36.441406 16.460938 C 36.839844 15.324219 37.402344 15.234375 38.148438 15.253906 C 39.003906 15.285156 39.390625 15.445312 39.726562 16.171875 C 40.464844 17.832031 39.980469 19.136719 39.585938 21.164062 C 39.65625 21.191406 39.726562 21.21875 39.800781 21.246094 C 41.679688 19.96875 41.855469 18.460938 42.125 16.171875 C 42.136719 15.902344 42.117188 15.96875 38.058594 12.527344 C 37.394531 13.078125 36.714844 13.617188 36.070312 14.191406 M 38.988281 33.867188 C 38.988281 35.628906 38.988281 37.390625 38.988281 39.152344 C 41.101562 39.296875 42.222656 37.480469 43.988281 36.933594 C 42.320312 35.914062 40.652344 34.890625 38.988281 33.867188 Z M 38.988281 33.867188 "/>
</g>
<g clip-path="url(#clip2)" clip-rule="nonzero">
<path style=" stroke:none;fill-rule:nonzero;fill:rgb(0%,0%,0%);fill-opacity:1;" d="M 76.941406 47.046875 C 76.929688 47.007812 76.882812 46.953125 76.855469 46.953125 C 76.578125 46.972656 76.527344 46.703125 76.265625 46.707031 C 75.824219 46.714844 75.214844 46.320312 74.789062 46.167969 C 73.445312 45.695312 74.214844 42.191406 74.289062 41.335938 C 74.34375 40.683594 74.28125 40.242188 74.488281 39.234375 C 74.527344 39.039062 74.421875 38.726562 74.402344 38.285156 C 74.390625 38.046875 74.324219 37.835938 74.085938 37.71875 C 73.679688 37.515625 73.253906 37.40625 72.804688 37.367188 C 70.992188 37.199219 72.035156 37.214844 70.46875 37.085938 C 69.269531 36.984375 67.9375 37.253906 67.941406 36.820312 C 67.996094 33.390625 64.808594 30.34375 64.785156 30.3125 C 64.226562 29.539062 63.84375 29.746094 62.992188 29.113281 C 60.625 27.367188 60.820312 26.492188 59.484375 25.339844 C 55.6875 22.058594 58.839844 24.191406 54.105469 20.894531 C 53.824219 20.699219 53.589844 20.417969 53.214844 20.382812 C 52.699219 20.335938 51.761719 19.789062 51.601562 19.785156 C 50.769531 19.769531 49.609375 19.117188 49.886719 19.511719 C 50.285156 20.082031 50.648438 19.839844 51.921875 20.882812 C 52.144531 21.066406 52.371094 21.261719 52.699219 21.171875 C 53.273438 21.019531 55.628906 23.632812 55.644531 23.652344 C 56.230469 24.402344 56.554688 24.171875 56.910156 24.832031 C 57.328125 25.601562 57.066406 25.394531 58.273438 26.671875 C 58.453125 26.863281 58.441406 26.882812 58.863281 27.96875 C 58.878906 28.015625 58.921875 28.070312 58.875 28.105469 C 58.820312 28.148438 58.753906 28.132812 58.695312 28.09375 C 58.292969 27.8125 58.054688 28.136719 57.902344 27.917969 C 57.777344 27.738281 57.65625 27.714844 57.472656 27.832031 C 57.324219 27.925781 57.183594 28.03125 57.0625 28.15625 C 56.738281 28.492188 56.578125 28.066406 56.277344 28.242188 C 56.066406 28.367188 55.8125 28.417969 55.609375 28.566406 C 55.558594 28.601562 55.5 28.605469 55.4375 28.585938 C 55.230469 28.519531 55.3125 28.675781 54.902344 28.984375 C 54.726562 29.113281 54.753906 29.511719 54.515625 29.765625 C 54.421875 29.863281 54.480469 30.023438 54.441406 30.191406 C 54.253906 30.976562 54.527344 31.433594 55.089844 32.4375 C 55.476562 33.121094 56.054688 32.738281 56.390625 32.902344 C 56.445312 32.929688 56.476562 32.925781 56.449219 33.011719 C 56.371094 33.257812 56.453125 33.441406 56.664062 33.578125 C 57.167969 33.902344 56.738281 34.597656 57.316406 34.625 C 57.535156 34.636719 57.683594 34.828125 57.628906 35.046875 C 57.503906 35.5625 57.695312 35.402344 57.703125 35.550781 C 57.738281 36.550781 57.273438 36.753906 56.851562 37.714844 C 56.523438 38.460938 56.179688 38.476562 55.753906 38.890625 C 55.117188 39.507812 54.257812 40.734375 53.742188 41.144531 C 52.691406 41.988281 52.808594 42.328125 52.289062 42.683594 C 51.710938 43.082031 52.132812 43.113281 51.5 43.976562 C 51.242188 44.328125 50.921875 45.144531 50.070312 45.613281 C 49.675781 45.832031 49.464844 46.253906 49.0625 46.449219 C 49.03125 46.464844 49.015625 46.570312 48.84375 46.613281 C 48.625 46.664062 48.527344 46.878906 48.597656 47.082031 C 48.621094 47.152344 48.699219 47.136719 48.714844 47.203125 C 48.804688 47.570312 49.0625 47.578125 49.40625 47.757812 C 50.457031 48.308594 51.21875 48.105469 51.457031 48.203125 C 51.621094 48.265625 51.730469 48.128906 51.601562 47.984375 C 51.3125 47.652344 51.398438 47.464844 51.066406 47.304688 C 50.496094 47.027344 51.039062 46.011719 53.066406 45.191406 C 54.664062 44.546875 54.867188 43.980469 55.503906 43.785156 C 56.121094 43.597656 56.394531 43.351562 57.222656 43.261719 C 57.640625 43.21875 58 42.980469 58.417969 42.90625 C 60.027344 42.625 61.449219 41.261719 62.472656 41 C 63.1875 40.8125 63.785156 40.417969 64.054688 40.289062 C 64.214844 40.210938 64.394531 40.183594 64.5 40.019531 C 64.628906 39.816406 66.519531 40.277344 66.59375 40.277344 C 67.769531 40.253906 69.355469 40.417969 70.269531 40.054688 C 71.03125 39.75 71.632812 39.679688 72.296875 39.683594 C 72.460938 39.683594 72.5 39.675781 72.394531 39.964844 C 72.058594 40.859375 72.113281 41.746094 72.296875 42.332031 C 72.542969 43.113281 72.417969 43.261719 72.472656 43.496094 C 72.652344 44.234375 72.539062 44.175781 72.582031 45.585938 C 72.585938 45.742188 72.535156 45.894531 72.519531 46.046875 C 72.492188 46.324219 72.355469 46.582031 72.335938 46.859375 C 72.316406 47.109375 72.496094 47.210938 72.726562 47.210938 C 72.734375 47.210938 72.746094 47.210938 72.757812 47.210938 C 73.773438 47.195312 74.789062 47.21875 75.804688 47.199219 C 76.132812 47.195312 76.457031 47.136719 76.789062 47.144531 C 76.816406 47.144531 76.953125 47.101562 76.941406 47.046875 Z M 59.335938 28.773438 C 59.628906 28.9375 59.664062 29.230469 59.75 29.496094 C 59.789062 29.613281 59.746094 29.628906 59.574219 29.601562 C 59.496094 29.589844 59.402344 29.601562 59.363281 29.523438 C 59.191406 29.164062 59.191406 29.292969 59.335938 28.773438 Z M 58.742188 31.578125 C 58.902344 31.753906 59.195312 32.28125 58.832031 32.363281 C 58.609375 32.414062 58.828125 32.046875 58.601562 31.886719 C 58.503906 31.820312 58.644531 31.46875 58.742188 31.578125 Z M 62.558594 36.015625 C 62.550781 36.15625 62.496094 36.011719 62.222656 36.355469 C 62.117188 36.488281 61.949219 36.605469 61.949219 36.808594 C 61.949219 36.847656 61.945312 36.882812 61.917969 36.902344 C 61.757812 37.019531 61.769531 37.234375 61.636719 37.375 C 61.582031 37.4375 61.679688 37.546875 61.644531 37.648438 C 61.542969 37.917969 61.523438 37.730469 61.183594 38.09375 C 60.179688 39.15625 59.058594 40.078125 57.890625 40.949219 C 56.957031 41.644531 56.453125 41.410156 54.386719 42.046875 C 55.382812 40.957031 56.558594 41.222656 58.417969 38.019531 C 58.785156 37.386719 58.945312 37.511719 59.367188 36.480469 C 59.496094 36.167969 59.710938 35.894531 59.824219 35.570312 C 59.855469 35.480469 59.933594 35.441406 60.039062 35.4375 C 60.070312 35.433594 60.972656 35.386719 61.035156 35.351562 C 61.316406 35.195312 61.5 35.429688 61.84375 35.324219 C 62.003906 35.277344 62.09375 35.558594 62.421875 35.421875 C 62.480469 35.394531 62.546875 35.382812 62.605469 35.429688 C 62.667969 35.484375 62.601562 35.53125 62.589844 35.578125 C 62.585938 35.597656 62.570312 35.625 62.578125 35.636719 C 62.710938 35.769531 62.5625 35.890625 62.558594 36.015625 Z M 62.558594 36.015625 "/>
</g>
<path style=" stroke:none;fill-rule:nonzero;fill:rgb(0%,0%,0%);fill-opacity:1;" d="M 58.820312 32.167969 C 58.816406 32.167969 58.8125 32.171875 58.808594 32.175781 C 58.8125 32.175781 58.820312 32.171875 58.824219 32.171875 Z M 58.820312 32.167969 "/>
<path style=" stroke:none;fill-rule:nonzero;fill:rgb(0%,0%,0%);fill-opacity:1;" d="M 58.847656 32.125 C 58.851562 32.117188 58.855469 32.109375 58.859375 32.101562 C 58.875 32.128906 58.855469 32.121094 58.839844 32.121094 C 58.839844 32.121094 58.847656 32.125 58.847656 32.125 Z M 58.847656 32.125 "/>
<path style=" stroke:none;fill-rule:nonzero;fill:rgb(0%,0%,0%);fill-opacity:1;" d="M 58.824219 32.171875 C 58.816406 32.148438 58.820312 32.132812 58.847656 32.125 C 58.84375 32.125 58.839844 32.121094 58.839844 32.121094 C 58.835938 32.136719 58.828125 32.152344 58.820312 32.167969 C 58.820312 32.167969 58.824219 32.171875 58.824219 32.171875 Z M 58.824219 32.171875 "/>
<g clip-path="url(#clip3)" clip-rule="nonzero">
<path style=" stroke:none;fill-rule:nonzero;fill:rgb(58.039856%,6.269836%,7.839966%);fill-opacity:1;" d="M 34.804688 6.136719 C 34.582031 5.90625 34.429688 5.617188 34.332031 5.3125 C 34.28125 5.15625 34.25 4.988281 34.226562 4.820312 C 34.222656 4.765625 34.222656 4.714844 34.21875 4.660156 C 34.246094 4.570312 34.246094 4.441406 34.234375 4.410156 C 34.179688 4.292969 34.105469 4.179688 34.015625 4.078125 C 34.015625 4.078125 33.917969 3.976562 33.894531 3.957031 C 33.679688 3.765625 33.40625 3.648438 33.136719 3.703125 C 33.148438 3.617188 33.144531 3.523438 33.160156 3.449219 C 33.203125 3.234375 33.28125 3.035156 33.378906 2.839844 C 33.726562 2.855469 34.183594 2.28125 33.945312 2.027344 C 34.023438 1.894531 33.933594 1.6875 33.851562 1.570312 C 33.757812 1.4375 33.589844 1.285156 33.429688 1.367188 C 33.3125 1.28125 33.230469 1.300781 33.121094 1.378906 C 32.863281 1.191406 32.613281 1.519531 32.472656 1.726562 C 32.304688 1.964844 32.183594 2.28125 32.417969 2.496094 C 32.410156 2.503906 32.402344 2.511719 32.398438 2.523438 C 32.375 2.589844 32.296875 2.652344 32.25 2.699219 C 32.195312 2.753906 32.140625 2.796875 32.082031 2.839844 C 31.980469 2.910156 31.871094 2.980469 31.785156 3.070312 C 31.59375 3.273438 31.4375 3.515625 31.3125 3.761719 C 31.0625 4.257812 31.070312 4.800781 31.070312 5.34375 C 31.070312 5.464844 31.058594 5.585938 31.058594 5.707031 C 31.058594 5.742188 31.078125 5.761719 31.101562 5.769531 C 31.46875 6.167969 32.089844 6.246094 32.601562 6.277344 C 33.199219 6.3125 33.804688 6.277344 34.398438 6.199219 C 34.445312 6.171875 34.628906 6.160156 34.742188 6.171875 C 34.746094 6.179688 34.75 6.183594 34.753906 6.1875 C 34.769531 6.207031 34.792969 6.199219 34.804688 6.183594 C 34.808594 6.179688 34.8125 6.175781 34.8125 6.167969 C 34.8125 6.160156 34.8125 6.148438 34.804688 6.136719 "/>
</g>
<path style=" stroke:none;fill-rule:nonzero;fill:rgb(100%,100%,100%);fill-opacity:1;" d="M 32.933594 5.066406 C 33.058594 5.078125 33.175781 5.105469 33.300781 5.105469 C 33.429688 5.105469 33.558594 5.078125 33.679688 5.039062 C 33.738281 5.023438 33.792969 5.003906 33.847656 4.984375 C 33.890625 4.96875 33.984375 4.949219 34.015625 4.90625 C 34.03125 4.886719 34.0625 4.902344 34.050781 4.925781 C 34.027344 4.976562 33.960938 4.996094 33.914062 5.015625 C 33.851562 5.039062 33.785156 5.0625 33.71875 5.082031 C 33.476562 5.164062 33.167969 5.207031 32.929688 5.085938 C 32.921875 5.078125 32.925781 5.0625 32.933594 5.066406 "/>
<g clip-path="url(#clip4)" clip-rule="nonzero">
<path style=" stroke:none;fill-rule:nonzero;fill:rgb(100%,100%,100%);fill-opacity:1;" d="M 33.835938 1.957031 C 33.824219 1.953125 33.8125 1.953125 33.800781 1.957031 C 33.820312 1.898438 33.816406 1.832031 33.804688 1.773438 C 33.800781 1.757812 33.800781 1.738281 33.796875 1.722656 C 33.84375 1.816406 33.867188 1.910156 33.835938 1.957031 Z M 33.402344 2.199219 C 33.453125 2.238281 33.527344 2.261719 33.589844 2.273438 C 33.566406 2.289062 33.546875 2.308594 33.53125 2.335938 C 33.523438 2.355469 33.546875 2.378906 33.566406 2.359375 C 33.601562 2.324219 33.644531 2.304688 33.6875 2.277344 C 33.710938 2.265625 33.703125 2.226562 33.675781 2.230469 C 33.625 2.234375 33.359375 2.171875 33.394531 2.089844 C 33.421875 2.019531 33.546875 2.023438 33.605469 2.019531 C 33.636719 2.019531 33.800781 2.058594 33.816406 2.066406 C 33.828125 2.070312 33.835938 2.074219 33.84375 2.082031 C 33.957031 2.132812 33.992188 2.242188 33.980469 2.355469 C 34.027344 2.234375 34.023438 2.113281 33.945312 2.027344 C 34.027344 1.894531 33.933594 1.6875 33.851562 1.570312 C 33.800781 1.5 33.734375 1.425781 33.65625 1.382812 C 33.765625 1.515625 33.746094 1.695312 33.753906 1.730469 C 33.769531 1.800781 33.785156 1.890625 33.753906 1.957031 L 33.75 1.960938 C 33.691406 1.964844 33.632812 1.964844 33.574219 1.96875 C 33.578125 1.957031 33.582031 1.949219 33.585938 1.941406 C 33.589844 1.917969 33.589844 1.894531 33.585938 1.875 C 33.597656 1.792969 33.554688 1.679688 33.53125 1.609375 C 33.519531 1.582031 33.46875 1.449219 33.429688 1.367188 C 33.386719 1.335938 33.347656 1.320312 33.3125 1.3125 C 33.476562 1.417969 33.523438 1.660156 33.535156 1.710938 C 33.554688 1.777344 33.546875 1.910156 33.546875 1.921875 C 33.542969 1.933594 33.539062 1.945312 33.53125 1.957031 C 33.523438 1.960938 33.515625 1.964844 33.511719 1.972656 C 33.507812 1.976562 33.503906 1.976562 33.5 1.976562 C 33.4375 1.984375 33.34375 2.011719 33.339844 2.089844 L 33.339844 2.09375 C 33.351562 2.109375 33.359375 2.128906 33.355469 2.152344 C 33.359375 2.160156 33.367188 2.167969 33.375 2.175781 C 33.332031 2.1875 33.300781 2.207031 33.253906 2.195312 C 33.230469 2.191406 33.203125 2.1875 33.183594 2.171875 C 33.171875 2.164062 33.167969 2.152344 33.160156 2.140625 C 33.167969 2.136719 33.175781 2.132812 33.179688 2.128906 C 33.175781 2.128906 33.171875 2.128906 33.171875 2.128906 C 33.191406 2.113281 33.214844 2.09375 33.230469 2.070312 C 33.246094 2.050781 33.304688 1.941406 33.304688 1.929688 C 33.308594 1.867188 33.292969 1.804688 33.273438 1.746094 C 33.25 1.675781 33.125 1.378906 33.121094 1.378906 C 33.042969 1.324219 32.96875 1.3125 32.894531 1.332031 L 32.894531 1.335938 C 33.105469 1.355469 33.21875 1.789062 33.238281 1.847656 C 33.265625 1.925781 33.160156 2.085938 33.101562 2.105469 C 33.027344 2.132812 32.972656 2.113281 32.902344 2.09375 C 32.875 2.074219 32.863281 2.042969 32.902344 2.003906 C 32.925781 1.980469 32.964844 1.976562 33.003906 1.980469 C 33.011719 1.960938 33.023438 1.941406 33.039062 1.925781 C 33.015625 1.910156 32.992188 1.890625 32.976562 1.863281 C 32.949219 1.8125 32.929688 1.773438 32.875 1.75 C 32.867188 1.75 32.859375 1.757812 32.863281 1.765625 C 32.878906 1.789062 32.890625 1.8125 32.902344 1.839844 C 32.890625 1.84375 32.875 1.851562 32.863281 1.855469 C 32.832031 1.863281 32.804688 1.863281 32.777344 1.867188 C 32.769531 1.867188 32.765625 1.875 32.769531 1.878906 C 32.792969 1.90625 32.84375 1.902344 32.871094 1.890625 C 32.886719 1.886719 32.90625 1.882812 32.921875 1.871094 C 32.933594 1.890625 32.945312 1.910156 32.960938 1.925781 C 32.9375 1.929688 32.910156 1.933594 32.894531 1.945312 C 32.816406 1.984375 32.800781 2.082031 32.867188 2.136719 C 32.882812 2.148438 32.898438 2.160156 32.914062 2.164062 C 32.882812 2.160156 32.847656 2.160156 32.816406 2.164062 C 32.8125 2.167969 32.808594 2.179688 32.816406 2.179688 C 32.863281 2.210938 32.925781 2.199219 32.972656 2.226562 C 33.039062 2.257812 33.054688 2.3125 33.070312 2.378906 C 33.074219 2.386719 33.085938 2.386719 33.085938 2.378906 C 33.105469 2.285156 33.054688 2.21875 32.980469 2.1875 C 33.015625 2.191406 33.046875 2.191406 33.082031 2.191406 C 33.09375 2.183594 33.101562 2.179688 33.113281 2.171875 C 33.121094 2.171875 33.125 2.167969 33.128906 2.164062 C 33.148438 2.203125 33.203125 2.234375 33.242188 2.242188 C 33.285156 2.25 33.375 2.246094 33.402344 2.199219 "/>
</g>
<path style=" stroke:none;fill-rule:nonzero;fill:rgb(100%,100%,100%);fill-opacity:1;" d="M 33.066406 3.863281 C 33.214844 3.78125 33.390625 3.730469 33.558594 3.746094 C 33.421875 3.691406 33.277344 3.671875 33.136719 3.703125 C 33.148438 3.617188 33.144531 3.523438 33.160156 3.449219 C 33.183594 3.335938 33.214844 3.226562 33.257812 3.121094 L 33.253906 3.121094 C 33.179688 3.214844 33.109375 3.320312 33.046875 3.425781 C 33.039062 3.445312 33.023438 3.464844 33.011719 3.488281 C 32.984375 3.601562 32.953125 3.738281 32.9375 3.789062 C 32.933594 3.796875 32.929688 3.804688 32.929688 3.816406 C 32.917969 3.867188 32.90625 3.917969 32.898438 3.96875 C 32.871094 4.132812 32.875 4.292969 32.871094 4.457031 C 32.863281 4.640625 32.84375 4.824219 32.761719 4.992188 C 32.691406 5.144531 32.597656 5.253906 32.476562 5.367188 C 32.472656 5.371094 32.476562 5.378906 32.484375 5.375 C 32.609375 5.289062 32.734375 5.15625 32.804688 5.015625 C 32.882812 4.863281 32.914062 4.699219 32.921875 4.527344 C 32.929688 4.339844 32.917969 4.148438 32.953125 3.960938 C 32.957031 3.933594 32.996094 3.890625 33.007812 3.886719 C 33.011719 3.890625 33.03125 3.875 33.066406 3.863281 "/>
<g clip-path="url(#clip5)" clip-rule="nonzero">
<path style=" stroke:none;fill-rule:nonzero;fill:rgb(92.939758%,10.978699%,14.118958%);fill-opacity:1;" d="M 41.207031 6.167969 C 41.207031 6.175781 41.210938 6.179688 41.214844 6.183594 C 41.226562 6.199219 41.25 6.207031 41.265625 6.1875 C 41.269531 6.183594 41.273438 6.179688 41.28125 6.171875 C 41.390625 6.160156 41.574219 6.171875 41.621094 6.199219 C 42.214844 6.277344 42.820312 6.3125 43.417969 6.277344 C 43.929688 6.246094 44.554688 6.167969 44.917969 5.769531 C 44.941406 5.761719 44.960938 5.742188 44.960938 5.707031 C 44.960938 5.585938 44.949219 5.464844 44.949219 5.34375 C 44.949219 4.800781 44.957031 4.257812 44.707031 3.761719 C 44.582031 3.515625 44.425781 3.273438 44.238281 3.070312 C 44.152344 2.980469 44.039062 2.910156 43.9375 2.839844 C 43.878906 2.796875 43.824219 2.753906 43.773438 2.699219 C 43.722656 2.652344 43.644531 2.589844 43.621094 2.523438 C 43.617188 2.511719 43.609375 2.503906 43.601562 2.496094 C 43.835938 2.28125 43.714844 1.964844 43.546875 1.726562 C 43.40625 1.519531 43.15625 1.191406 42.898438 1.378906 C 42.789062 1.300781 42.707031 1.28125 42.589844 1.367188 C 42.429688 1.285156 42.265625 1.4375 42.167969 1.570312 C 42.089844 1.6875 41.996094 1.894531 42.074219 2.027344 C 41.835938 2.28125 42.292969 2.855469 42.640625 2.839844 C 42.738281 3.035156 42.816406 3.234375 42.863281 3.449219 C 42.878906 3.523438 42.871094 3.617188 42.882812 3.703125 C 42.613281 3.648438 42.339844 3.765625 42.125 3.957031 C 42.101562 3.976562 42.003906 4.078125 42.003906 4.078125 C 41.914062 4.179688 41.839844 4.292969 41.789062 4.410156 C 41.773438 4.441406 41.773438 4.570312 41.804688 4.660156 C 41.796875 4.714844 41.796875 4.765625 41.792969 4.820312 C 41.769531 4.988281 41.742188 5.15625 41.6875 5.3125 C 41.589844 5.617188 41.4375 5.90625 41.214844 6.136719 C 41.207031 6.148438 41.207031 6.160156 41.207031 6.167969 "/>
</g>
<path style=" stroke:none;fill-rule:nonzero;fill:rgb(100%,100%,100%);fill-opacity:1;" d="M 43.085938 5.066406 C 42.960938 5.078125 42.84375 5.105469 42.71875 5.105469 C 42.589844 5.105469 42.460938 5.078125 42.339844 5.039062 C 42.285156 5.023438 42.226562 5.003906 42.171875 4.984375 C 42.128906 4.96875 42.035156 4.949219 42.003906 4.90625 C 41.988281 4.886719 41.960938 4.902344 41.96875 4.925781 C 41.992188 4.976562 42.058594 4.996094 42.105469 5.015625 C 42.167969 5.039062 42.234375 5.0625 42.300781 5.082031 C 42.542969 5.164062 42.851562 5.207031 43.089844 5.085938 C 43.097656 5.078125 43.09375 5.0625 43.085938 5.066406 "/>
<g clip-path="url(#clip6)" clip-rule="nonzero">
<path style=" stroke:none;fill-rule:nonzero;fill:rgb(100%,100%,100%);fill-opacity:1;" d="M 42.222656 1.722656 C 42.222656 1.738281 42.21875 1.757812 42.214844 1.773438 C 42.207031 1.832031 42.199219 1.898438 42.21875 1.957031 C 42.207031 1.953125 42.195312 1.953125 42.183594 1.957031 C 42.152344 1.910156 42.175781 1.816406 42.222656 1.722656 Z M 42.78125 2.242188 C 42.816406 2.234375 42.871094 2.203125 42.890625 2.164062 C 42.894531 2.167969 42.902344 2.171875 42.90625 2.171875 C 42.917969 2.179688 42.929688 2.183594 42.9375 2.191406 C 42.972656 2.191406 43.007812 2.191406 43.039062 2.1875 C 42.964844 2.21875 42.914062 2.285156 42.933594 2.378906 C 42.933594 2.386719 42.945312 2.386719 42.949219 2.378906 C 42.964844 2.3125 42.980469 2.257812 43.046875 2.226562 C 43.097656 2.199219 43.15625 2.210938 43.203125 2.179688 C 43.210938 2.179688 43.210938 2.167969 43.203125 2.164062 C 43.171875 2.160156 43.140625 2.160156 43.109375 2.164062 C 43.121094 2.160156 43.136719 2.148438 43.152344 2.136719 C 43.21875 2.082031 43.203125 1.984375 43.125 1.945312 C 43.109375 1.933594 43.085938 1.929688 43.058594 1.925781 C 43.074219 1.910156 43.085938 1.890625 43.097656 1.871094 C 43.113281 1.882812 43.132812 1.886719 43.148438 1.890625 C 43.179688 1.902344 43.226562 1.90625 43.25 1.878906 C 43.253906 1.875 43.25 1.867188 43.246094 1.867188 C 43.214844 1.863281 43.1875 1.863281 43.15625 1.855469 C 43.144531 1.851562 43.128906 1.84375 43.117188 1.839844 C 43.128906 1.8125 43.140625 1.789062 43.15625 1.765625 C 43.160156 1.757812 43.152344 1.75 43.144531 1.75 C 43.089844 1.773438 43.070312 1.8125 43.042969 1.863281 C 43.027344 1.890625 43.003906 1.910156 42.980469 1.925781 C 42.996094 1.941406 43.007812 1.960938 43.015625 1.980469 C 43.054688 1.976562 43.09375 1.980469 43.121094 2.003906 C 43.15625 2.042969 43.144531 2.074219 43.117188 2.09375 C 43.046875 2.113281 42.992188 2.132812 42.917969 2.105469 C 42.859375 2.085938 42.753906 1.925781 42.78125 1.847656 C 42.800781 1.789062 42.914062 1.355469 43.125 1.335938 L 43.125 1.332031 C 43.054688 1.3125 42.976562 1.324219 42.898438 1.378906 C 42.894531 1.378906 42.769531 1.675781 42.746094 1.746094 C 42.726562 1.804688 42.710938 1.867188 42.714844 1.929688 C 42.714844 1.941406 42.773438 2.050781 42.789062 2.070312 C 42.804688 2.09375 42.828125 2.113281 42.851562 2.128906 C 42.847656 2.128906 42.84375 2.128906 42.839844 2.128906 C 42.847656 2.132812 42.851562 2.136719 42.859375 2.140625 C 42.851562 2.152344 42.847656 2.164062 42.835938 2.171875 C 42.816406 2.1875 42.789062 2.191406 42.765625 2.195312 C 42.71875 2.207031 42.6875 2.1875 42.648438 2.175781 C 42.65625 2.167969 42.660156 2.160156 42.667969 2.152344 C 42.660156 2.128906 42.667969 2.109375 42.683594 2.09375 L 42.683594 2.089844 C 42.675781 2.011719 42.582031 1.984375 42.519531 1.976562 C 42.515625 1.976562 42.511719 1.976562 42.507812 1.972656 C 42.503906 1.964844 42.496094 1.960938 42.492188 1.957031 C 42.480469 1.945312 42.476562 1.933594 42.476562 1.921875 C 42.472656 1.910156 42.464844 1.777344 42.484375 1.710938 C 42.5 1.660156 42.546875 1.417969 42.707031 1.3125 C 42.671875 1.320312 42.632812 1.335938 42.589844 1.367188 C 42.550781 1.449219 42.5 1.582031 42.488281 1.609375 C 42.464844 1.679688 42.421875 1.792969 42.433594 1.875 C 42.429688 1.894531 42.429688 1.917969 42.433594 1.941406 C 42.4375 1.949219 42.441406 1.957031 42.445312 1.96875 C 42.386719 1.964844 42.328125 1.964844 42.273438 1.960938 L 42.265625 1.957031 C 42.234375 1.890625 42.253906 1.800781 42.265625 1.730469 C 42.273438 1.695312 42.253906 1.515625 42.367188 1.382812 C 42.289062 1.425781 42.21875 1.5 42.167969 1.570312 C 42.089844 1.6875 41.996094 1.894531 42.074219 2.027344 C 41.996094 2.113281 41.992188 2.234375 42.039062 2.355469 C 42.027344 2.242188 42.0625 2.132812 42.175781 2.082031 C 42.183594 2.074219 42.191406 2.070312 42.203125 2.066406 C 42.21875 2.058594 42.382812 2.019531 42.414062 2.019531 C 42.472656 2.023438 42.597656 2.019531 42.628906 2.089844 C 42.660156 2.171875 42.394531 2.234375 42.34375 2.230469 C 42.316406 2.226562 42.308594 2.265625 42.332031 2.277344 C 42.375 2.304688 42.417969 2.324219 42.453125 2.359375 C 42.472656 2.378906 42.5 2.355469 42.488281 2.335938 C 42.476562 2.308594 42.453125 2.289062 42.433594 2.273438 C 42.492188 2.261719 42.566406 2.238281 42.617188 2.199219 C 42.648438 2.246094 42.734375 2.25 42.78125 2.242188 "/>
</g>
<path style=" stroke:none;fill-rule:nonzero;fill:rgb(100%,100%,100%);fill-opacity:1;" d="M 42.953125 3.863281 C 42.804688 3.78125 42.632812 3.730469 42.464844 3.746094 C 42.597656 3.691406 42.742188 3.671875 42.882812 3.703125 C 42.871094 3.617188 42.875 3.523438 42.863281 3.449219 C 42.835938 3.335938 42.804688 3.226562 42.765625 3.121094 C 42.839844 3.214844 42.910156 3.320312 42.972656 3.425781 C 42.984375 3.445312 42.996094 3.464844 43.007812 3.488281 C 43.035156 3.601562 43.066406 3.738281 43.082031 3.789062 C 43.085938 3.796875 43.089844 3.804688 43.089844 3.816406 C 43.101562 3.867188 43.117188 3.917969 43.125 3.96875 C 43.148438 4.132812 43.144531 4.292969 43.148438 4.457031 C 43.15625 4.640625 43.175781 4.824219 43.257812 4.992188 C 43.328125 5.144531 43.425781 5.253906 43.542969 5.367188 C 43.546875 5.371094 43.542969 5.378906 43.535156 5.375 C 43.410156 5.289062 43.285156 5.15625 43.214844 5.015625 C 43.136719 4.863281 43.105469 4.699219 43.097656 4.527344 C 43.089844 4.339844 43.101562 4.148438 43.066406 3.960938 C 43.0625 3.933594 43.027344 3.890625 43.011719 3.886719 C 43.007812 3.890625 42.988281 3.875 42.953125 3.863281 "/>
<g clip-path="url(#clip7)" clip-rule="nonzero">
<path style=" stroke:none;fill-rule:nonzero;fill:rgb(58.039856%,6.269836%,7.839966%);fill-opacity:1;" d="M 37.953125 3.410156 C 35.730469 1.234375 32.539062 4.503906 34.769531 6.714844 C 36.054688 7.992188 37.644531 9.074219 37.953125 9.28125 L 37.953125 3.410156 "/>
</g>
<g clip-path="url(#clip8)" clip-rule="nonzero">
<path style=" stroke:none;fill-rule:nonzero;fill:rgb(92.939758%,10.978699%,14.118958%);fill-opacity:1;" d="M 37.953125 3.410156 C 40.171875 1.234375 43.363281 4.503906 41.136719 6.714844 C 39.851562 7.992188 38.261719 9.074219 37.953125 9.28125 L 37.953125 3.410156 "/>
</g>
<g clip-path="url(#clip9)" clip-rule="nonzero">
<path style=" stroke:none;fill-rule:nonzero;fill:rgb(0%,0%,0%);fill-opacity:1;" d="M 1.296875 47.046875 C 1.308594 47.007812 1.355469 46.953125 1.382812 46.953125 C 1.660156 46.972656 1.710938 46.703125 1.972656 46.707031 C 2.414062 46.714844 3.023438 46.320312 3.449219 46.167969 C 4.792969 45.695312 4.023438 42.191406 3.949219 41.335938 C 3.890625 40.683594 3.957031 40.242188 3.75 39.234375 C 3.710938 39.039062 3.816406 38.726562 3.835938 38.285156 C 3.847656 38.046875 3.914062 37.835938 4.152344 37.71875 C 4.558594 37.515625 4.984375 37.40625 5.433594 37.367188 C 7.246094 37.199219 6.203125 37.214844 7.765625 37.085938 C 8.96875 36.984375 10.300781 37.253906 10.296875 36.820312 C 10.242188 33.390625 13.429688 30.34375 13.453125 30.3125 C 14.011719 29.539062 14.394531 29.746094 15.246094 29.113281 C 17.613281 27.367188 17.414062 26.492188 18.753906 25.339844 C 22.550781 22.058594 19.398438 24.191406 24.132812 20.894531 C 24.414062 20.699219 24.648438 20.417969 25.023438 20.382812 C 25.539062 20.335938 26.476562 19.789062 26.636719 19.785156 C 27.46875 19.769531 28.628906 19.117188 28.351562 19.511719 C 27.953125 20.082031 27.589844 19.839844 26.316406 20.882812 C 26.09375 21.066406 25.867188 21.261719 25.539062 21.171875 C 24.964844 21.019531 22.609375 23.632812 22.59375 23.652344 C 22.007812 24.402344 21.683594 24.171875 21.328125 24.832031 C 20.910156 25.601562 21.171875 25.394531 19.964844 26.671875 C 19.785156 26.863281 19.792969 26.882812 19.375 27.96875 C 19.355469 28.015625 19.316406 28.070312 19.363281 28.105469 C 19.417969 28.148438 19.484375 28.132812 19.542969 28.09375 C 19.945312 27.8125 20.183594 28.136719 20.335938 27.917969 C 20.460938 27.738281 20.578125 27.714844 20.765625 27.832031 C 20.914062 27.925781 21.054688 28.03125 21.175781 28.15625 C 21.5 28.492188 21.660156 28.066406 21.957031 28.242188 C 22.171875 28.367188 22.425781 28.417969 22.628906 28.566406 C 22.679688 28.601562 22.738281 28.605469 22.800781 28.585938 C 23.007812 28.519531 22.925781 28.675781 23.335938 28.984375 C 23.511719 29.113281 23.484375 29.511719 23.722656 29.765625 C 23.8125 29.863281 23.757812 30.023438 23.796875 30.191406 C 23.984375 30.976562 23.710938 31.433594 23.148438 32.4375 C 22.761719 33.121094 22.183594 32.738281 21.847656 32.902344 C 21.789062 32.929688 21.757812 32.925781 21.785156 33.011719 C 21.867188 33.257812 21.785156 33.441406 21.574219 33.578125 C 21.066406 33.902344 21.5 34.597656 20.921875 34.625 C 20.703125 34.636719 20.554688 34.828125 20.609375 35.046875 C 20.734375 35.5625 20.539062 35.402344 20.535156 35.550781 C 20.496094 36.550781 20.964844 36.753906 21.386719 37.714844 C 21.714844 38.460938 22.058594 38.476562 22.480469 38.890625 C 23.121094 39.507812 23.980469 40.734375 24.496094 41.144531 C 25.546875 41.988281 25.429688 42.328125 25.945312 42.683594 C 26.523438 43.082031 26.105469 43.113281 26.738281 43.976562 C 26.992188 44.328125 27.316406 45.144531 28.167969 45.613281 C 28.5625 45.832031 28.773438 46.253906 29.175781 46.449219 C 29.207031 46.464844 29.222656 46.570312 29.394531 46.613281 C 29.609375 46.664062 29.710938 46.878906 29.640625 47.082031 C 29.617188 47.152344 29.539062 47.136719 29.523438 47.203125 C 29.433594 47.570312 29.175781 47.578125 28.828125 47.757812 C 27.777344 48.308594 27.019531 48.105469 26.78125 48.203125 C 26.617188 48.265625 26.507812 48.128906 26.632812 47.984375 C 26.925781 47.652344 26.839844 47.464844 27.167969 47.304688 C 27.742188 47.027344 27.199219 46.011719 25.171875 45.191406 C 23.574219 44.546875 23.371094 43.980469 22.734375 43.785156 C 22.117188 43.597656 21.84375 43.351562 21.015625 43.261719 C 20.597656 43.21875 20.238281 42.980469 19.820312 42.90625 C 18.210938 42.625 16.789062 41.261719 15.765625 41 C 15.050781 40.8125 14.453125 40.417969 14.183594 40.289062 C 14.023438 40.210938 13.84375 40.183594 13.738281 40.019531 C 13.609375 39.816406 11.71875 40.277344 11.644531 40.277344 C 10.46875 40.253906 8.882812 40.417969 7.96875 40.054688 C 7.207031 39.75 6.605469 39.679688 5.941406 39.683594 C 5.773438 39.683594 5.738281 39.675781 5.84375 39.964844 C 6.179688 40.859375 6.125 41.746094 5.941406 42.332031 C 5.691406 43.113281 5.820312 43.261719 5.761719 43.496094 C 5.582031 44.234375 5.699219 44.175781 5.65625 45.585938 C 5.652344 45.742188 5.703125 45.894531 5.71875 46.046875 C 5.746094 46.324219 5.882812 46.582031 5.902344 46.859375 C 5.921875 47.109375 5.742188 47.210938 5.511719 47.210938 C 5.5 47.210938 5.492188 47.210938 5.480469 47.210938 C 4.464844 47.195312 3.449219 47.21875 2.433594 47.199219 C 2.105469 47.195312 1.777344 47.136719 1.449219 47.144531 C 1.421875 47.144531 1.285156 47.101562 1.296875 47.046875 Z M 18.902344 28.773438 C 18.609375 28.9375 18.574219 29.230469 18.488281 29.496094 C 18.449219 29.613281 18.492188 29.628906 18.664062 29.601562 C 18.742188 29.589844 18.835938 29.601562 18.875 29.523438 C 19.046875 29.164062 19.046875 29.292969 18.902344 28.773438 Z M 19.496094 31.578125 C 19.335938 31.753906 19.042969 32.28125 19.40625 32.363281 C 19.628906 32.414062 19.410156 32.046875 19.636719 31.886719 C 19.730469 31.820312 19.59375 31.46875 19.496094 31.578125 Z M 15.679688 36.015625 C 15.6875 36.15625 15.742188 36.011719 16.015625 36.355469 C 16.121094 36.488281 16.289062 36.605469 16.289062 36.808594 C 16.289062 36.847656 16.292969 36.882812 16.320312 36.902344 C 16.480469 37.019531 16.46875 37.234375 16.597656 37.375 C 16.65625 37.4375 16.558594 37.546875 16.59375 37.648438 C 16.691406 37.917969 16.714844 37.730469 17.054688 38.09375 C 18.058594 39.15625 19.179688 40.078125 20.347656 40.949219 C 21.277344 41.644531 21.785156 41.410156 23.851562 42.046875 C 22.855469 40.957031 21.679688 41.222656 19.820312 38.019531 C 19.453125 37.386719 19.292969 37.511719 18.871094 36.480469 C 18.742188 36.167969 18.527344 35.894531 18.414062 35.570312 C 18.382812 35.480469 18.304688 35.441406 18.199219 35.4375 C 18.167969 35.433594 17.265625 35.386719 17.199219 35.351562 C 16.917969 35.195312 16.738281 35.429688 16.390625 35.324219 C 16.234375 35.277344 16.144531 35.558594 15.816406 35.421875 C 15.757812 35.394531 15.6875 35.382812 15.632812 35.429688 C 15.570312 35.484375 15.636719 35.53125 15.648438 35.578125 C 15.652344 35.597656 15.664062 35.625 15.65625 35.636719 C 15.527344 35.769531 15.671875 35.890625 15.679688 36.015625 Z M 15.679688 36.015625 "/>
</g>
<path style=" stroke:none;fill-rule:nonzero;fill:rgb(0%,0%,0%);fill-opacity:1;" d="M 19.414062 32.167969 C 19.421875 32.167969 19.425781 32.171875 19.429688 32.175781 C 19.425781 32.175781 19.417969 32.171875 19.414062 32.171875 Z M 19.414062 32.167969 "/>
<path style=" stroke:none;fill-rule:nonzero;fill:rgb(0%,0%,0%);fill-opacity:1;" d="M 19.390625 32.125 C 19.386719 32.117188 19.382812 32.109375 19.378906 32.101562 C 19.363281 32.128906 19.382812 32.121094 19.394531 32.121094 C 19.394531 32.121094 19.390625 32.125 19.390625 32.125 Z M 19.390625 32.125 "/>
<path style=" stroke:none;fill-rule:nonzero;fill:rgb(0%,0%,0%);fill-opacity:1;" d="M 19.414062 32.171875 C 19.421875 32.148438 19.417969 32.132812 19.390625 32.125 C 19.390625 32.125 19.394531 32.121094 19.394531 32.121094 C 19.402344 32.136719 19.410156 32.152344 19.414062 32.167969 C 19.414062 32.167969 19.414062 32.171875 19.414062 32.171875 Z M 19.414062 32.171875 "/>
<g clip-path="url(#clip10)" clip-rule="nonzero">
<path style=" stroke:none;fill-rule:nonzero;fill:rgb(6.269836%,5.879211%,5.099487%);fill-opacity:1;" d="M 68.046875 3.472656 C 67.871094 3.175781 67.589844 2.964844 67.257812 2.878906 C 66.921875 2.792969 66.574219 2.84375 66.277344 3.019531 C 65.980469 3.195312 65.769531 3.476562 65.683594 3.8125 C 65.601562 4.144531 65.648438 4.496094 65.824219 4.792969 C 66 5.089844 66.285156 5.296875 66.617188 5.382812 C 66.726562 5.410156 66.832031 5.425781 66.941406 5.425781 C 67.167969 5.425781 67.394531 5.363281 67.597656 5.242188 C 67.894531 5.066406 68.105469 4.785156 68.191406 4.453125 C 68.273438 4.117188 68.226562 3.769531 68.046875 3.472656 Z M 69.191406 4.707031 C 68.875 5.949219 67.605469 6.703125 66.363281 6.386719 C 65.121094 6.070312 64.367188 4.800781 64.683594 3.558594 C 65 2.316406 66.269531 1.5625 67.511719 1.878906 C 68.753906 2.195312 69.507812 3.464844 69.191406 4.707031 "/>
</g>
<path style=" stroke:none;fill-rule:nonzero;fill:rgb(6.269836%,5.879211%,5.099487%);fill-opacity:1;" d="M 67.6875 4.324219 C 67.636719 4.523438 67.511719 4.691406 67.332031 4.796875 C 67.15625 4.90625 66.945312 4.933594 66.746094 4.882812 C 66.546875 4.832031 66.375 4.707031 66.269531 4.527344 C 66.164062 4.347656 66.136719 4.140625 66.1875 3.941406 C 66.238281 3.738281 66.363281 3.570312 66.542969 3.464844 C 66.664062 3.394531 66.796875 3.355469 66.9375 3.355469 C 67 3.355469 67.066406 3.363281 67.128906 3.378906 C 67.328125 3.429688 67.5 3.558594 67.605469 3.738281 C 67.710938 3.914062 67.738281 4.125 67.6875 4.324219 "/>
<g clip-path="url(#clip11)" clip-rule="nonzero">
<path style=" stroke:none;fill-rule:nonzero;fill:rgb(6.269836%,5.879211%,5.099487%);fill-opacity:1;" d="M 74.496094 7.160156 C 74.542969 7.207031 74.609375 7.234375 74.675781 7.234375 C 74.746094 7.234375 74.8125 7.207031 74.859375 7.160156 L 76.007812 6.011719 C 76.324219 5.691406 76.5 5.269531 76.5 4.824219 C 76.5 4.316406 76.085938 3.902344 75.578125 3.902344 C 75.332031 3.902344 75.101562 3.996094 74.925781 4.171875 L 74.675781 4.421875 L 74.429688 4.171875 C 74.253906 3.996094 74.023438 3.902344 73.777344 3.902344 C 73.265625 3.902344 72.855469 4.316406 72.855469 4.824219 C 72.855469 5.269531 73.027344 5.691406 73.34375 6.011719 Z M 64.109375 5.652344 C 64.113281 5.609375 64.113281 5.582031 64.117188 5.558594 C 64.121094 5.511719 64.125 5.488281 64.128906 5.464844 L 64.132812 5.425781 C 64.140625 5.367188 64.152344 5.304688 64.167969 5.246094 C 64.183594 5.160156 64.207031 5.078125 64.230469 4.992188 C 64.425781 5.605469 64.828125 6.140625 65.371094 6.503906 L 64.984375 6.761719 C 64.914062 6.808594 64.867188 6.890625 64.867188 6.976562 L 64.867188 7.492188 L 65.386719 7.492188 L 65.386719 7.113281 L 65.894531 6.777344 C 66.003906 6.820312 66.117188 6.859375 66.234375 6.886719 C 66.46875 6.949219 66.703125 6.976562 66.9375 6.976562 L 66.9375 7.234375 C 66.9375 7.339844 67 7.4375 67.097656 7.476562 L 69.4375 8.410156 C 69.550781 8.453125 69.660156 8.503906 69.769531 8.558594 C 70.59375 8.945312 71.332031 9.523438 71.90625 10.238281 L 72.308594 9.917969 C 71.714844 9.179688 70.960938 8.570312 70.117188 8.152344 L 70.207031 8.023438 C 70.472656 7.652344 70.832031 7.363281 71.253906 7.191406 C 71.65625 7.027344 72.09375 6.976562 72.523438 7.039062 L 72.820312 7.085938 L 72.898438 6.574219 L 72.601562 6.53125 C 72.128906 6.457031 71.648438 6.507812 71.195312 6.667969 C 71.125 6.476562 71.0625 6.058594 71.222656 5.148438 C 71.445312 3.859375 72.417969 2.84375 73.644531 2.628906 C 73.6875 2.617188 73.722656 2.613281 73.753906 2.609375 L 73.960938 2.589844 C 74.027344 2.585938 74.101562 2.582031 74.175781 2.582031 C 75.070312 2.582031 75.914062 2.933594 76.550781 3.566406 C 77.183594 4.203125 77.535156 5.046875 77.535156 5.941406 C 77.535156 7.515625 76.886719 9.042969 75.753906 10.136719 L 70.8125 14.890625 L 65.875 10.136719 C 65.308594 9.585938 64.863281 8.945312 64.558594 8.21875 C 64.25 7.496094 64.09375 6.730469 64.09375 5.941406 C 64.09375 5.84375 64.097656 5.746094 64.109375 5.652344 "/>
</g>
<path style=" stroke:none;fill-rule:nonzero;fill:rgb(6.269836%,5.879211%,5.099487%);fill-opacity:1;" d="M 73.777344 4.417969 C 73.882812 4.417969 73.988281 4.460938 74.0625 4.535156 L 74.496094 4.96875 C 74.59375 5.070312 74.757812 5.070312 74.859375 4.96875 L 75.292969 4.535156 C 75.367188 4.460938 75.46875 4.417969 75.578125 4.417969 C 75.800781 4.417969 75.984375 4.601562 75.984375 4.824219 C 75.984375 5.132812 75.863281 5.425781 75.644531 5.644531 L 74.675781 6.609375 L 73.710938 5.644531 C 73.492188 5.425781 73.371094 5.132812 73.371094 4.824219 C 73.371094 4.601562 73.550781 4.417969 73.777344 4.417969 "/>
<g clip-path="url(#clip12)" clip-rule="nonzero">
<path style=" stroke:none;fill-rule:nonzero;fill:rgb(6.269836%,5.879211%,5.099487%);fill-opacity:1;" d="M 10.195312 3.472656 C 10.371094 3.175781 10.652344 2.964844 10.988281 2.878906 C 11.320312 2.792969 11.667969 2.84375 11.964844 3.019531 C 12.261719 3.195312 12.472656 3.476562 12.558594 3.8125 C 12.644531 4.144531 12.59375 4.496094 12.417969 4.792969 C 12.242188 5.089844 11.960938 5.296875 11.625 5.382812 C 11.519531 5.410156 11.410156 5.425781 11.304688 5.425781 C 11.074219 5.425781 10.847656 5.363281 10.648438 5.242188 C 10.351562 5.066406 10.140625 4.785156 10.054688 4.453125 C 9.96875 4.117188 10.019531 3.769531 10.195312 3.472656 Z M 9.050781 4.707031 C 9.371094 5.949219 10.640625 6.703125 11.882812 6.386719 C 13.125 6.070312 13.878906 4.800781 13.5625 3.558594 C 13.242188 2.316406 11.972656 1.5625 10.730469 1.878906 C 9.488281 2.195312 8.734375 3.464844 9.050781 4.707031 "/>
</g>
<path style=" stroke:none;fill-rule:nonzero;fill:rgb(6.269836%,5.879211%,5.099487%);fill-opacity:1;" d="M 10.554688 4.324219 C 10.605469 4.523438 10.734375 4.691406 10.910156 4.796875 C 11.089844 4.90625 11.296875 4.933594 11.496094 4.882812 C 11.699219 4.832031 11.867188 4.707031 11.972656 4.527344 C 12.078125 4.347656 12.109375 4.140625 12.058594 3.941406 C 12.007812 3.738281 11.878906 3.570312 11.703125 3.464844 C 11.582031 3.394531 11.445312 3.355469 11.308594 3.355469 C 11.242188 3.355469 11.179688 3.363281 11.113281 3.378906 C 10.914062 3.429688 10.746094 3.558594 10.640625 3.738281 C 10.535156 3.914062 10.503906 4.125 10.554688 4.324219 "/>
<g clip-path="url(#clip13)" clip-rule="nonzero">
<path style=" stroke:none;fill-rule:nonzero;fill:rgb(6.269836%,5.879211%,5.099487%);fill-opacity:1;" d="M 3.75 7.160156 C 3.699219 7.207031 3.636719 7.234375 3.566406 7.234375 C 3.496094 7.234375 3.433594 7.207031 3.382812 7.160156 L 2.234375 6.011719 C 1.917969 5.691406 1.742188 5.269531 1.742188 4.824219 C 1.742188 4.316406 2.15625 3.902344 2.664062 3.902344 C 2.914062 3.902344 3.144531 3.996094 3.316406 4.171875 L 3.566406 4.421875 L 3.816406 4.171875 C 3.988281 3.996094 4.222656 3.902344 4.46875 3.902344 C 4.976562 3.902344 5.390625 4.316406 5.390625 4.824219 C 5.390625 5.269531 5.214844 5.691406 4.898438 6.011719 Z M 14.136719 5.652344 C 14.132812 5.609375 14.132812 5.582031 14.128906 5.558594 C 14.125 5.511719 14.121094 5.488281 14.117188 5.464844 L 14.109375 5.425781 C 14.101562 5.367188 14.089844 5.304688 14.078125 5.246094 C 14.058594 5.160156 14.039062 5.078125 14.011719 4.992188 C 13.816406 5.605469 13.417969 6.140625 12.871094 6.503906 L 13.257812 6.761719 C 13.332031 6.808594 13.375 6.890625 13.375 6.976562 L 13.375 7.492188 L 12.859375 7.492188 L 12.859375 7.113281 L 12.347656 6.777344 C 12.238281 6.820312 12.125 6.859375 12.007812 6.886719 C 11.773438 6.949219 11.539062 6.976562 11.308594 6.976562 L 11.308594 7.234375 C 11.308594 7.339844 11.242188 7.4375 11.144531 7.476562 L 8.804688 8.410156 C 8.695312 8.453125 8.582031 8.503906 8.472656 8.558594 C 7.648438 8.945312 6.910156 9.523438 6.339844 10.238281 L 5.933594 9.917969 C 6.527344 9.179688 7.285156 8.570312 8.128906 8.152344 L 8.035156 8.023438 C 7.773438 7.652344 7.410156 7.363281 6.988281 7.191406 C 6.585938 7.027344 6.148438 6.976562 5.71875 7.039062 L 5.421875 7.085938 L 5.34375 6.574219 L 5.640625 6.53125 C 6.113281 6.457031 6.597656 6.507812 7.046875 6.667969 C 7.121094 6.476562 7.179688 6.058594 7.023438 5.148438 C 6.796875 3.859375 5.828125 2.84375 4.601562 2.628906 C 4.558594 2.617188 4.523438 2.613281 4.488281 2.609375 L 4.285156 2.589844 C 4.214844 2.585938 4.144531 2.582031 4.070312 2.582031 C 3.171875 2.582031 2.328125 2.933594 1.691406 3.566406 C 1.058594 4.203125 0.710938 5.046875 0.710938 5.941406 C 0.710938 7.515625 1.359375 9.042969 2.492188 10.136719 L 7.429688 14.890625 L 12.367188 10.136719 C 12.9375 9.585938 13.378906 8.945312 13.683594 8.21875 C 13.992188 7.496094 14.148438 6.730469 14.148438 5.941406 C 14.148438 5.84375 14.144531 5.746094 14.136719 5.652344 "/>
</g>
<path style=" stroke:none;fill-rule:nonzero;fill:rgb(6.269836%,5.879211%,5.099487%);fill-opacity:1;" d="M 4.46875 4.417969 C 4.359375 4.417969 4.257812 4.460938 4.179688 4.535156 L 3.75 4.96875 C 3.648438 5.070312 3.484375 5.070312 3.382812 4.96875 L 2.953125 4.535156 C 2.875 4.460938 2.773438 4.417969 2.664062 4.417969 C 2.441406 4.417969 2.261719 4.601562 2.261719 4.824219 C 2.261719 5.132812 2.382812 5.425781 2.601562 5.644531 L 3.566406 6.609375 L 4.53125 5.644531 C 4.753906 5.425781 4.875 5.132812 4.875 4.824219 C 4.875 4.601562 4.691406 4.417969 4.46875 4.417969 "/>
</g>
</svg>
