<?xml version="1.0" encoding="UTF-8"?>
<svg xmlns="http://www.w3.org/2000/svg" xmlns:xlink="http://www.w3.org/1999/xlink" width="224.87999pt" height="299.999988pt" viewBox="0 0 224.87999 299.999988" version="1.2">
<defs>
<clipPath id="clip1">
  <path d="M 7 1 L 188.6875 1 L 188.6875 299 L 7 299 Z M 7 1 "/>
</clipPath>
</defs>
<g id="surface1">
<g clip-path="url(#clip1)" clip-rule="nonzero">
<path style=" stroke:none;fill-rule:nonzero;fill:rgb(100%,71.759033%,30.198669%);fill-opacity:1;" d="M 78.578125 1.128906 C 64.28125 14.074219 38.28125 48.378906 33.082031 72.328125 C 20.734375 87.863281 26.585938 101.457031 33.082031 114.402344 C 40.234375 126.050781 38.28125 135.761719 41.53125 150 C 44.132812 161.652344 51.929688 179.125 56.480469 190.777344 C 66.230469 216.667969 75.976562 246.441406 68.828125 258.738281 C 61.679688 271.683594 56.480469 269.742188 44.132812 274.921875 C 31.132812 280.746094 23.335938 282.6875 18.785156 283.984375 C 5.785156 285.925781 7.085938 287.21875 7.085938 289.160156 C 7.085938 294.988281 12.285156 298.871094 18.136719 298.871094 C 21.382812 298.871094 25.285156 298.222656 27.234375 296.28125 C 30.484375 298.871094 34.382812 298.871094 38.28125 298.871094 C 72.730469 298.871094 66.230469 295.632812 79.226562 295.632812 C 84.425781 295.632812 92.875 298.871094 105.226562 298.871094 C 117.574219 298.871094 123.421875 289.808594 123.421875 282.042969 C 123.421875 268.449219 111.074219 261.976562 105.226562 223.140625 C 100.023438 183.011719 111.074219 193.367188 111.074219 143.527344 C 111.074219 115.046875 90.277344 102.75 91.578125 98.21875 C 92.875 93.6875 101.976562 83.980469 112.375 78.800781 C 124.722656 72.976562 175.417969 40.613281 189.066406 1.128906 Z M 78.578125 1.128906 "/>
</g>
<path style=" stroke:none;fill-rule:nonzero;fill:rgb(97.648621%,61.569214%,18.818665%);fill-opacity:1;" d="M 65.578125 98.21875 C 87.027344 91.097656 91.578125 98.21875 91.578125 98.21875 C 92.875 93.6875 101.976562 83.980469 112.375 78.800781 C 113.671875 78.152344 116.273438 76.859375 118.871094 74.917969 C 109.773438 78.800781 96.125 82.683594 91.578125 78.152344 C 84.425781 71.035156 130.570312 6.957031 130.570312 6.957031 C 130.570312 6.957031 72.730469 55.5 65.578125 98.21875 Z M 91.578125 188.835938 C 101.324219 188.835938 105.875 182.363281 108.472656 173.949219 C 109.125 170.710938 109.773438 166.828125 109.773438 162.296875 C 109.125 166.179688 107.175781 169.417969 98.074219 169.417969 C 83.777344 169.417969 65.578125 138.347656 65.578125 124.109375 C 58.429688 166.828125 91.578125 234.144531 91.578125 234.144531 C 91.578125 234.144531 84.425781 195.957031 91.578125 188.835938 Z M 91.578125 188.835938 "/>
<path style="fill:none;stroke-width:7.46666;stroke-linecap:butt;stroke-linejoin:miter;stroke:rgb(100%,0%,74.899292%);stroke-opacity:1;stroke-miterlimit:4;" d="M 893.328315 55.470027 L 893.328315 123.122158 C 882.613776 123.122158 875.618333 124.893156 872.253436 128.390878 C 868.932815 131.932874 867.250366 137.024494 867.250366 143.710012 L 867.250366 323.997629 L 757.714128 323.997629 L 662.522974 175.05668 L 662.522974 238.148491 C 662.522974 246.029433 664.869547 251.032503 669.474142 253.201976 C 674.078738 255.327174 681.738305 256.389773 692.452844 256.389773 L 692.452844 323.997629 L 567.021896 323.997629 L 567.021896 256.389773 C 577.736436 256.389773 585.351728 254.928699 590.000598 252.095102 C 594.605193 249.21723 596.907491 243.85996 596.907491 235.934743 L 596.907491 143.710012 C 596.907491 135.696245 594.605193 130.250426 590.000598 127.416829 C 585.351728 124.538957 577.736436 123.122158 567.021896 123.122158 L 567.021896 55.470027 L 710.295651 55.470027 L 801.457783 198.212482 L 801.457783 143.710012 C 801.457783 135.696245 799.775335 130.250426 796.454713 127.416829 C 793.089817 124.538957 786.094374 123.122158 775.379835 123.122158 L 775.379835 55.470027 Z M 906.256602 190.021615 C 906.256602 166.555889 910.108523 146.01231 917.85664 128.302328 C 925.560482 110.636621 936.452121 95.848786 950.575832 83.938823 C 964.655267 72.02886 981.3912 63.085319 1000.783631 57.1082 C 1020.176061 51.175356 1041.560864 48.208934 1065.02659 48.208934 C 1088.359492 48.208934 1109.744295 51.175356 1129.225275 57.1082 C 1148.66198 63.085319 1165.397913 72.02886 1179.433074 83.938823 C 1193.468235 95.848786 1204.315599 110.636621 1212.063716 128.302328 C 1219.767558 146.01231 1223.619479 166.555889 1223.619479 190.021615 C 1223.619479 213.354516 1219.767558 233.853821 1212.063716 251.519528 C 1204.315599 269.22951 1193.468235 284.06162 1179.433074 296.015857 C 1165.397913 307.970095 1148.66198 316.957911 1129.225275 322.890755 C 1109.744295 328.867874 1088.359492 331.834296 1065.02659 331.834296 C 1041.560864 331.834296 1020.176061 328.867874 1000.783631 322.890755 C 981.3912 316.957911 964.655267 307.970095 950.575832 296.015857 C 936.452121 284.06162 925.560482 269.22951 917.85664 251.519528 C 910.108523 233.853821 906.256602 213.354516 906.256602 190.021615 Z M 1028.765402 190.021615 C 1028.765402 204.7209 1029.296702 217.029338 1030.403576 226.946928 C 1031.51045 236.820243 1033.414273 244.834009 1036.15932 250.988228 C 1038.860092 257.142447 1042.534913 261.569942 1047.183784 264.31499 C 1051.788379 267.015762 1057.765498 268.388285 1065.02659 268.388285 C 1071.977758 268.388285 1077.777777 267.015762 1082.515198 264.31499 C 1087.296893 261.569942 1091.015989 257.142447 1093.761036 250.988228 C 1096.461809 244.834009 1098.409907 236.820243 1099.472505 226.946928 C 1100.579379 217.029338 1101.110679 204.7209 1101.110679 190.021615 C 1101.110679 175.543705 1100.579379 163.279542 1099.472505 153.184853 C 1098.409907 143.090163 1096.461809 135.032121 1093.761036 128.966452 C 1091.015989 122.856508 1087.296893 118.473288 1082.515198 115.728241 C 1077.777777 112.983193 1071.977758 111.61067 1065.02659 111.61067 C 1057.765498 111.61067 1051.788379 112.983193 1047.183784 115.728241 C 1042.534913 118.473288 1038.860092 122.856508 1036.15932 128.966452 C 1033.414273 135.032121 1031.51045 143.090163 1030.403576 153.184853 C 1029.296702 163.279542 1028.765402 175.543705 1028.765402 190.021615 Z M 1028.765402 190.021615 " transform="matrix(0.0882271,0,0,0.0882271,87.41472,97.012292)"/>
<path style="fill:none;stroke-width:7.46666;stroke-linecap:butt;stroke-linejoin:miter;stroke:rgb(100%,0%,74.899292%);stroke-opacity:1;stroke-miterlimit:4;" d="M 479.888785 598.015326 L 479.888785 608.951239 C 479.888785 615.415383 481.482683 620.418453 484.714755 624.004724 C 487.946827 627.590996 493.791121 629.361994 502.291912 629.361994 L 520.887393 629.361994 L 520.887393 697.014125 L 342.459325 697.014125 L 342.459325 629.361994 C 353.129589 629.361994 360.789156 627.945195 365.393751 625.067323 C 370.042622 622.233726 372.344919 616.832181 372.344919 608.951239 L 372.344919 516.726508 C 372.344919 508.712741 370.042622 503.266922 365.393751 500.38905 C 360.789156 497.555453 353.129589 496.094379 342.459325 496.094379 L 342.459325 428.486523 L 539.128675 428.486523 C 557.104307 428.486523 572.202066 430.611721 584.333404 434.862116 C 596.509016 439.112512 606.249507 445.045356 613.599149 452.660648 C 620.948792 460.231666 626.173236 469.440856 629.272483 480.243945 C 632.37173 491.091309 633.921353 503.001272 633.921353 515.973834 C 633.921353 529.123496 632.37173 540.723534 629.272483 550.818224 C 626.173236 560.868638 620.948792 569.502255 613.599149 576.586247 C 606.249507 583.714515 596.509016 589.071785 584.333404 592.658056 C 572.202066 596.244327 557.104307 598.015326 539.128675 598.015326 Z M 479.888785 554.802969 L 499.59114 554.802969 C 509.77438 554.802969 516.814097 552.146472 520.710294 546.789203 C 524.60649 541.431933 526.554588 534.392215 526.554588 525.625774 C 526.554588 517.390632 524.60649 510.39519 520.710294 504.68372 C 516.814097 498.972251 509.77438 496.094379 499.59114 496.094379 L 479.888785 496.094379 Z M 790.521869 603.284045 L 732.920153 603.284045 L 730.352205 611.120712 C 728.404107 616.345157 728.536932 620.728377 730.706405 624.181824 C 732.920153 627.63527 737.524748 629.361994 744.564466 629.361994 L 754.96908 629.361994 L 754.96908 697.014125 L 641.403821 697.014125 L 641.403821 629.361994 L 648.886288 629.361994 C 657.608454 629.361994 663.497023 627.63527 666.463445 624.181824 C 669.429867 620.728377 672.307739 615.636758 675.141337 608.951239 L 712.509399 516.726508 C 715.165896 509.68679 715.608645 504.462346 713.837647 501.141724 C 712.110924 497.776827 706.797929 496.094379 697.898663 496.094379 L 694.091017 496.094379 L 694.091017 428.486523 L 881.462627 428.486523 L 881.462627 496.094379 L 877.832081 496.094379 C 868.844265 496.094379 863.44272 497.865377 861.715997 501.407374 C 859.944999 504.905095 860.432023 510.04099 863.26562 516.726508 L 900.633682 608.951239 C 902.094756 612.360411 903.37873 615.282558 904.529879 617.80623 C 905.681027 620.285628 907.097826 622.410826 908.824549 624.181824 C 910.506997 625.952822 912.809295 627.236796 915.642892 628.07802 C 918.520764 628.963519 922.195586 629.361994 926.667356 629.361994 L 934.149823 629.361994 L 934.149823 697.014125 L 768.472942 697.014125 L 768.472942 629.361994 L 778.479082 629.361994 C 785.385975 629.361994 790.034845 627.63527 792.425692 624.181824 C 794.81654 620.728377 794.99364 616.345157 793.045542 611.120712 Z M 742.217893 574.859524 L 781.047029 574.859524 L 762.805748 518.895981 L 761.344674 518.895981 Z M 945.439937 697.014125 L 945.439937 629.361994 C 956.154476 629.361994 963.814043 627.945195 968.418639 625.067323 C 973.023234 622.233726 975.369807 616.832181 975.369807 608.951239 L 975.369807 516.726508 C 975.369807 508.712741 973.023234 503.266922 968.418639 500.38905 C 963.814043 497.555453 956.154476 496.094379 945.439937 496.094379 L 945.439937 428.486523 L 1112.622167 428.486523 L 1112.622167 496.094379 C 1101.907628 496.094379 1094.292336 497.555453 1089.732015 500.38905 C 1085.171695 503.266922 1082.913672 508.712741 1082.913672 516.726508 L 1082.913672 608.951239 C 1082.913672 616.832181 1085.171695 622.233726 1089.732015 625.067323 C 1094.292336 627.945195 1101.907628 629.361994 1112.622167 629.361994 L 1112.622167 697.014125 Z M 1453.849245 428.486523 L 1453.849245 496.094379 C 1443.178981 496.094379 1436.139263 497.865377 1432.818642 501.407374 C 1429.453745 504.905095 1427.815572 510.04099 1427.815572 516.726508 L 1427.815572 697.014125 L 1318.235058 697.014125 L 1223.08818 548.073176 L 1223.08818 611.120712 C 1223.08818 619.045929 1225.390478 624.048999 1229.995073 626.174197 C 1234.643943 628.299395 1242.30351 629.361994 1252.973774 629.361994 L 1252.973774 697.014125 L 1127.587102 697.014125 L 1127.587102 629.361994 C 1138.257366 629.361994 1145.916933 627.945195 1150.521529 625.067323 C 1155.170399 622.233726 1157.472697 616.832181 1157.472697 608.951239 L 1157.472697 516.726508 C 1157.472697 508.712741 1155.170399 503.266922 1150.521529 500.38905 C 1145.916933 497.555453 1138.257366 496.094379 1127.587102 496.094379 L 1127.587102 428.486523 L 1270.860856 428.486523 L 1361.978714 571.228978 L 1361.978714 516.726508 C 1361.978714 508.712741 1360.34054 503.266922 1356.975644 500.38905 C 1353.655022 497.555453 1346.615304 496.094379 1335.94504 496.094379 L 1335.94504 428.486523 Z M 1453.849245 428.486523 " transform="matrix(0.0882271,0,0,0.0882271,87.41472,97.012292)"/>
<path style="fill:none;stroke-width:7.46666;stroke-linecap:butt;stroke-linejoin:miter;stroke:rgb(100%,0%,74.899292%);stroke-opacity:1;stroke-miterlimit:4;" d="M 893.328315 801.503019 L 893.328315 869.110875 C 882.613776 869.110875 875.618333 870.881873 872.253436 874.42387 C 868.932815 877.921591 867.250366 883.013211 867.250366 889.698729 L 867.250366 1069.986346 L 757.714128 1069.986346 L 662.522974 921.089672 L 662.522974 984.137208 C 662.522974 992.062425 664.869547 997.065495 669.474142 999.190693 C 674.078738 1001.315891 681.738305 1002.37849 692.452844 1002.37849 L 692.452844 1069.986346 L 567.021896 1069.986346 L 567.021896 1002.37849 C 577.736436 1002.37849 585.351728 1000.961691 590.000598 998.083819 C 594.605193 995.250222 596.907491 989.848677 596.907491 981.967735 L 596.907491 889.698729 C 596.907491 881.684962 594.605193 876.239143 590.000598 873.405546 C 585.351728 870.527674 577.736436 869.110875 567.021896 869.110875 L 567.021896 801.503019 L 710.295651 801.503019 L 801.457783 944.201199 L 801.457783 889.698729 C 801.457783 881.684962 799.775335 876.239143 796.454713 873.405546 C 793.089817 870.527674 786.094374 869.110875 775.379835 869.110875 L 775.379835 801.503019 Z M 906.256602 936.010332 C 906.256602 912.544606 910.108523 892.001027 917.85664 874.291045 C 925.560482 856.625338 936.452121 841.837503 950.575832 829.92754 C 964.655267 818.017577 981.3912 809.074036 1000.783631 803.141192 C 1020.176061 797.164073 1041.560864 794.197651 1065.02659 794.197651 C 1088.359492 794.197651 1109.744295 797.164073 1129.225275 803.141192 C 1148.66198 809.074036 1165.397913 818.017577 1179.433074 829.92754 C 1193.468235 841.837503 1204.315599 856.625338 1212.063716 874.291045 C 1219.767558 892.001027 1223.619479 912.544606 1223.619479 936.010332 C 1223.619479 959.343233 1219.767558 979.842538 1212.063716 997.55252 C 1204.315599 1015.218227 1193.468235 1030.050337 1179.433074 1042.004574 C 1165.397913 1054.003087 1148.66198 1062.946628 1129.225275 1068.923747 C 1109.744295 1074.856591 1088.359492 1077.823013 1065.02659 1077.823013 C 1041.560864 1077.823013 1020.176061 1074.856591 1000.783631 1068.923747 C 981.3912 1062.946628 964.655267 1054.003087 950.575832 1042.004574 C 936.452121 1030.050337 925.560482 1015.218227 917.85664 997.55252 C 910.108523 979.842538 906.256602 959.343233 906.256602 936.010332 Z M 1028.765402 936.010332 C 1028.765402 950.709617 1029.296702 963.018055 1030.403576 972.935645 C 1031.51045 982.853235 1033.414273 990.867001 1036.15932 996.976945 C 1038.860092 1003.131164 1042.534913 1007.558659 1047.183784 1010.303707 C 1051.788379 1013.048754 1057.765498 1014.421277 1065.02659 1014.421277 C 1071.977758 1014.421277 1077.777777 1013.048754 1082.515198 1010.303707 C 1087.296893 1007.558659 1091.015989 1003.131164 1093.761036 996.976945 C 1096.461809 990.867001 1098.409907 982.853235 1099.472505 972.935645 C 1100.579379 963.018055 1101.110679 950.709617 1101.110679 936.010332 C 1101.110679 921.576697 1100.579379 909.268259 1099.472505 899.17357 C 1098.409907 889.123155 1096.461809 881.020838 1093.761036 874.955169 C 1091.015989 868.8895 1087.296893 864.462005 1082.515198 861.716958 C 1077.777777 859.016185 1071.977758 857.643662 1065.02659 857.643662 C 1057.765498 857.643662 1051.788379 859.016185 1047.183784 861.716958 C 1042.534913 864.462005 1038.860092 868.8895 1036.15932 874.955169 C 1033.414273 881.020838 1031.51045 889.123155 1030.403576 899.17357 C 1029.296702 909.268259 1028.765402 921.576697 1028.765402 936.010332 Z M 1028.765402 936.010332 " transform="matrix(0.0882271,0,0,0.0882271,87.41472,97.012292)"/>
<path style="fill:none;stroke-width:7.46666;stroke-linecap:butt;stroke-linejoin:miter;stroke:rgb(100%,0%,74.899292%);stroke-opacity:1;stroke-miterlimit:4;" d="M 556.528732 1443.002842 L 550.507338 1424.761561 C 542.847771 1431.712728 532.310332 1437.778397 518.89502 1443.002842 C 505.479709 1448.227287 489.983475 1450.839509 472.494867 1450.839509 C 452.836787 1450.839509 434.241306 1448.183012 416.708424 1442.825742 C 399.219817 1437.468473 383.944957 1429.100506 370.883846 1417.677568 C 357.822734 1406.254629 347.462395 1391.555344 339.891377 1373.623987 C 332.276085 1355.692631 328.512714 1334.175003 328.512714 1309.026828 C 328.512714 1283.878654 332.541735 1262.316751 340.599777 1244.385394 C 348.702093 1226.454037 359.328082 1211.799027 372.522019 1200.376089 C 385.715956 1188.95315 400.636616 1180.585184 417.283999 1175.227914 C 433.931382 1169.870645 450.977239 1167.214147 468.510122 1167.214147 C 478.693361 1167.214147 487.902552 1167.966821 496.093419 1169.56072 C 504.32856 1171.154618 511.501103 1173.102716 517.699597 1175.493564 C 523.89809 1177.840136 529.122535 1180.363809 533.372931 1182.976031 C 537.623326 1185.588254 541.121048 1187.713451 543.777545 1189.440175 L 543.777545 1174.47524 L 603.947209 1174.47524 L 603.947209 1273.828239 L 540.146999 1273.828239 C 539.659974 1260.944227 535.808053 1250.539613 528.546961 1242.570121 C 521.330143 1234.600629 511.279728 1230.615883 498.395716 1230.615883 C 491.843023 1230.615883 485.688804 1231.811307 479.977335 1234.202154 C 474.265866 1236.548727 469.218521 1240.710573 464.8353 1246.687691 C 460.45208 1252.620535 457.042908 1260.634302 454.563511 1270.728992 C 452.039838 1280.823682 450.80014 1293.574869 450.80014 1309.026828 C 450.80014 1323.726113 451.641364 1336.034551 453.279537 1345.952141 C 454.91771 1355.825456 457.485658 1363.839222 460.939104 1369.993441 C 464.392551 1376.14766 468.775771 1380.575155 474.133041 1383.320203 C 479.49031 1386.020975 485.954454 1387.393498 493.481196 1387.393498 C 495.163644 1387.393498 497.333117 1387.216399 499.94534 1386.862199 C 502.557562 1386.507999 505.036959 1385.843875 507.427807 1384.958376 C 509.77438 1384.028602 511.855303 1382.833178 513.626301 1381.372105 C 515.353024 1379.911031 516.238523 1377.918658 516.238523 1375.350711 L 516.238523 1365.344571 C 516.238523 1359.633102 514.290425 1355.294156 510.438504 1352.327734 C 506.542308 1349.317037 499.23694 1347.855964 488.566676 1347.855964 L 488.566676 1287.6863 L 642.37787 1287.6863 L 642.37787 1347.855964 C 631.707606 1347.855964 624.048039 1349.272762 619.443443 1352.106359 C 614.794573 1354.984231 612.492275 1360.341501 612.492275 1368.266718 L 612.492275 1443.002842 Z M 802.653207 1349.317037 L 745.007216 1349.317037 L 742.483543 1357.153704 C 740.535445 1362.378149 740.66827 1366.717095 742.837743 1370.170541 C 745.007216 1373.623987 749.656086 1375.350711 756.695804 1375.350711 L 767.100418 1375.350711 L 767.100418 1443.002842 L 653.535159 1443.002842 L 653.535159 1375.350711 L 660.973351 1375.350711 C 669.739792 1375.350711 675.584086 1373.623987 678.594783 1370.170541 C 681.561205 1366.717095 684.439077 1361.625475 687.228399 1354.939956 L 724.596461 1262.715225 C 727.297234 1255.675507 727.739983 1250.451063 725.968985 1247.130441 C 724.197987 1243.765544 718.884992 1242.127371 710.030001 1242.127371 L 706.17808 1242.127371 L 706.17808 1174.47524 L 893.593965 1174.47524 L 893.593965 1242.127371 L 889.963418 1242.127371 C 880.975602 1242.127371 875.574058 1243.898369 873.80306 1247.396091 C 872.032062 1250.938087 872.563361 1256.029707 875.352683 1262.715225 L 912.720745 1354.939956 C 914.181819 1358.349128 915.510067 1361.31555 916.661216 1363.794947 C 917.812365 1366.274345 919.229164 1368.399543 920.955887 1370.170541 C 922.638335 1371.941539 924.896358 1373.225513 927.77423 1374.111012 C 930.607827 1374.952236 934.326923 1375.350711 938.798694 1375.350711 L 946.281161 1375.350711 L 946.281161 1443.002842 L 780.560004 1443.002842 L 780.560004 1375.350711 L 790.610419 1375.350711 C 797.517312 1375.350711 802.166183 1373.623987 804.55703 1370.170541 C 806.903603 1366.717095 807.124977 1362.378149 805.176879 1357.153704 Z M 754.304956 1320.848241 L 793.134092 1320.848241 L 774.937085 1264.884698 L 773.476012 1264.884698 Z M 957.571275 1443.002842 L 957.571275 1375.350711 C 968.285814 1375.350711 975.945381 1373.933912 980.549976 1371.100315 C 985.154572 1368.222443 987.456869 1362.865173 987.456869 1354.939956 L 987.456869 1262.715225 C 987.456869 1254.701458 985.154572 1249.255639 980.549976 1246.422042 C 975.945381 1243.54417 968.285814 1242.127371 957.571275 1242.127371 L 957.571275 1174.47524 L 1124.753505 1174.47524 L 1124.753505 1242.127371 C 1114.038966 1242.127371 1106.423673 1243.54417 1101.863353 1246.422042 C 1097.303033 1249.255639 1095.04501 1254.701458 1095.04501 1262.715225 L 1095.04501 1354.939956 C 1095.04501 1362.865173 1097.303033 1368.222443 1101.863353 1371.100315 C 1106.423673 1373.933912 1114.038966 1375.350711 1124.753505 1375.350711 L 1124.753505 1443.002842 Z M 1465.980583 1174.47524 L 1465.980583 1242.127371 C 1455.310319 1242.127371 1448.270601 1243.898369 1444.949979 1247.396091 C 1441.585083 1250.938087 1439.902635 1256.029707 1439.902635 1262.715225 L 1439.902635 1443.002842 L 1330.366396 1443.002842 L 1235.219518 1294.061893 L 1235.219518 1357.153704 C 1235.219518 1365.034646 1237.521815 1370.037716 1242.126411 1372.162914 C 1246.731006 1374.288112 1254.390573 1375.350711 1265.105112 1375.350711 L 1265.105112 1443.002842 L 1139.674165 1443.002842 L 1139.674165 1375.350711 C 1150.388704 1375.350711 1158.048271 1373.933912 1162.652866 1371.100315 C 1167.257462 1368.222443 1169.559759 1362.865173 1169.559759 1354.939956 L 1169.559759 1262.715225 C 1169.559759 1254.701458 1167.257462 1249.255639 1162.652866 1246.422042 C 1158.048271 1243.54417 1150.388704 1242.127371 1139.674165 1242.127371 L 1139.674165 1174.47524 L 1282.947919 1174.47524 L 1374.110051 1317.217695 L 1374.110051 1262.715225 C 1374.110051 1254.701458 1372.427603 1249.255639 1369.106981 1246.422042 C 1365.742085 1243.54417 1358.746642 1242.127371 1348.032103 1242.127371 L 1348.032103 1174.47524 Z M 1465.980583 1174.47524 " transform="matrix(0.0882271,0,0,0.0882271,87.41472,97.012292)"/>
</g>
</svg>
