<?xml version="1.0" encoding="UTF-8"?>
<svg xmlns="http://www.w3.org/2000/svg" xmlns:xlink="http://www.w3.org/1999/xlink" width="75pt" height="74.999997pt" viewBox="0 0 75 74.999997" version="1.2">
<defs>
<clipPath id="clip1">
  <path d="M 37.160156 26 L 72.734375 26 L 72.734375 61.816406 L 37.160156 61.816406 Z M 37.160156 26 "/>
</clipPath>
<clipPath id="clip2">
  <path d="M 7.5 10.558594 L 68 10.558594 L 68 61.816406 L 7.5 61.816406 Z M 7.5 10.558594 "/>
</clipPath>
<clipPath id="clip3">
  <path d="M 10.609375 20.164062 L 24 20.164062 L 24 35 L 10.609375 35 Z M 10.609375 20.164062 "/>
</clipPath>
<clipPath id="clip4">
  <path d="M 20 30 L 33.109375 30 L 33.109375 44.914062 L 20 44.914062 Z M 20 30 "/>
</clipPath>
</defs>
<g id="surface1">
<path style=" stroke:none;fill-rule:nonzero;fill:rgb(12.939453%,58.81958%,95.289612%);fill-opacity:1;" d="M 10.597656 0.519531 L 64.402344 0.519531 C 69.96875 0.519531 74.480469 5.03125 74.480469 10.597656 L 74.480469 64.402344 C 74.480469 69.96875 69.96875 74.480469 64.402344 74.480469 L 10.597656 74.480469 C 5.03125 74.480469 0.519531 69.96875 0.519531 64.402344 L 0.519531 10.597656 C 0.519531 5.03125 5.03125 0.519531 10.597656 0.519531 Z M 10.597656 0.519531 "/>
<path style=" stroke:none;fill-rule:nonzero;fill:rgb(12.939453%,58.81958%,95.289612%);fill-opacity:1;" d="M 64.402344 75 L 10.597656 75 C 4.753906 75 0 70.246094 0 64.402344 L 0 10.597656 C 0 4.753906 4.753906 0 10.597656 0 L 64.402344 0 C 70.246094 0 75 4.753906 75 10.597656 L 75 64.402344 C 75 70.246094 70.246094 75 64.402344 75 Z M 10.597656 1.042969 C 5.328125 1.042969 1.042969 5.328125 1.042969 10.597656 L 1.042969 64.402344 C 1.042969 69.671875 5.328125 73.957031 10.597656 73.957031 L 64.402344 73.957031 C 69.671875 73.957031 73.957031 69.671875 73.957031 64.402344 L 73.957031 10.597656 C 73.957031 5.328125 69.671875 1.042969 64.402344 1.042969 Z M 10.597656 1.042969 "/>
<g clip-path="url(#clip1)" clip-rule="nonzero">
<path style=" stroke:none;fill-rule:nonzero;fill:rgb(25.489807%,18.429565%,19.219971%);fill-opacity:1;" d="M 67.304688 54.089844 C 68.554688 54.085938 69.574219 55.078125 69.582031 56.328125 C 69.582031 56.347656 69.582031 56.371094 69.582031 56.394531 C 69.644531 57.636719 68.683594 58.691406 67.4375 58.753906 C 66.191406 58.8125 65.132812 57.851562 65.074219 56.609375 C 65.070312 56.535156 65.070312 56.464844 65.074219 56.394531 C 65.046875 55.148438 66.035156 54.117188 67.28125 54.089844 C 67.292969 54.089844 67.300781 54.089844 67.3125 54.089844 Z M 44.253906 26.75 C 43.871094 26.738281 43.496094 26.757812 43.125 26.808594 C 42.90625 26.839844 42.761719 27.039062 42.785156 27.253906 C 42.800781 27.339844 42.84375 27.421875 42.898438 27.484375 L 46.277344 30.855469 C 46.589844 31.160156 46.589844 31.664062 46.277344 31.96875 L 42.832031 35.414062 C 42.523438 35.726562 42.019531 35.726562 41.707031 35.417969 C 41.707031 35.414062 41.699219 35.414062 41.699219 35.414062 L 38.324219 32.042969 C 38.167969 31.890625 37.914062 31.894531 37.761719 32.050781 C 37.703125 32.113281 37.667969 32.1875 37.65625 32.269531 C 37.195312 35.75 39.644531 38.945312 43.132812 39.40625 C 43.984375 39.515625 44.851562 39.457031 45.6875 39.222656 C 46.238281 39.070312 46.832031 39.226562 47.234375 39.632812 L 61.570312 53.929688 C 61.945312 54.304688 62.121094 54.835938 62.023438 55.355469 C 61.4375 58.285156 63.347656 61.121094 66.285156 61.699219 C 69.214844 62.277344 72.0625 60.371094 72.640625 57.449219 C 73.21875 54.523438 71.308594 51.679688 68.382812 51.109375 C 67.6875 50.96875 66.96875 50.96875 66.273438 51.109375 C 65.753906 51.210938 65.214844 51.050781 64.84375 50.675781 L 50.511719 36.378906 C 50.113281 35.96875 49.960938 35.378906 50.117188 34.832031 C 51.074219 31.457031 49.097656 27.949219 45.710938 27 C 45.246094 26.867188 44.757812 26.792969 44.273438 26.769531 L 44.253906 26.75 "/>
</g>
<g clip-path="url(#clip2)" clip-rule="nonzero">
<path style=" stroke:none;fill-rule:nonzero;fill:rgb(100%,100%,100%);fill-opacity:1;" d="M 45.992188 40.269531 C 42.023438 41.382812 37.90625 39.078125 36.789062 35.117188 C 36.515625 34.140625 36.441406 33.125 36.574219 32.121094 C 36.683594 31.304688 37.429688 30.726562 38.25 30.835938 C 38.578125 30.878906 38.878906 31.027344 39.109375 31.265625 L 42.28125 34.417969 L 45.304688 31.410156 L 42.136719 28.253906 C 41.550781 27.671875 41.550781 26.730469 42.136719 26.144531 C 42.367188 25.914062 42.667969 25.761719 42.992188 25.71875 C 47.082031 25.179688 50.828125 28.039062 51.378906 32.121094 C 51.507812 33.121094 51.4375 34.140625 51.167969 35.113281 C 51.109375 35.28125 51.15625 35.464844 51.277344 35.59375 L 59.703125 44.007812 C 61.832031 41.394531 63.746094 38.625 65.457031 35.726562 C 70.148438 27.78125 67.488281 17.546875 59.535156 12.871094 C 52.195312 8.566406 42.796875 10.425781 37.679688 17.207031 C 37.652344 17.234375 37.605469 17.238281 37.582031 17.21875 C 37.574219 17.210938 37.570312 17.210938 37.570312 17.207031 C 31.992188 9.859375 21.496094 8.417969 14.132812 13.980469 C 7.371094 19.089844 5.511719 28.425781 9.800781 35.726562 C 16.367188 46.894531 26.015625 55.949219 37.597656 61.808594 C 37.609375 61.820312 37.632812 61.820312 37.652344 61.808594 C 44.132812 58.535156 50.046875 54.234375 55.164062 49.082031 L 46.449219 40.402344 C 46.324219 40.261719 46.125 40.214844 45.945312 40.273438 L 45.992188 40.269531 "/>
</g>
<g clip-path="url(#clip3)" clip-rule="nonzero">
<path style=" stroke:none;fill-rule:nonzero;fill:rgb(12.939453%,58.81958%,95.289612%);fill-opacity:1;" d="M 21.878906 27.261719 C 21.875 26.691406 22.058594 26.191406 22.425781 25.765625 L 23.070312 25.019531 C 23.171875 24.902344 23.234375 24.765625 23.25 24.605469 C 23.265625 24.449219 23.234375 24.300781 23.15625 24.164062 L 22.691406 23.347656 C 22.613281 23.210938 22.503906 23.109375 22.363281 23.042969 C 22.222656 22.980469 22.074219 22.960938 21.921875 22.996094 L 20.972656 23.191406 C 20.421875 23.304688 19.90625 23.214844 19.421875 22.925781 C 18.9375 22.636719 18.609375 22.21875 18.4375 21.671875 L 18.132812 20.730469 C 18.082031 20.582031 17.992188 20.460938 17.867188 20.367188 C 17.742188 20.273438 17.597656 20.230469 17.445312 20.230469 L 16.519531 20.230469 C 16.183594 20.242188 15.960938 20.410156 15.855469 20.734375 L 15.550781 21.675781 C 15.371094 22.214844 15.039062 22.625 14.558594 22.90625 C 14.074219 23.195312 13.558594 23.285156 13.007812 23.175781 L 12.058594 22.976562 C 11.90625 22.945312 11.757812 22.960938 11.617188 23.027344 C 11.476562 23.089844 11.367188 23.191406 11.289062 23.328125 L 10.789062 24.15625 C 10.710938 24.292969 10.679688 24.441406 10.695312 24.597656 C 10.710938 24.753906 10.773438 24.894531 10.875 25.011719 L 11.503906 25.738281 C 11.878906 26.171875 12.066406 26.679688 12.066406 27.261719 C 12.066406 27.839844 11.878906 28.347656 11.503906 28.78125 L 10.875 29.511719 C 10.765625 29.632812 10.703125 29.777344 10.6875 29.9375 C 10.671875 30.101562 10.707031 30.253906 10.789062 30.394531 L 11.253906 31.1875 C 11.332031 31.324219 11.441406 31.425781 11.582031 31.492188 C 11.722656 31.554688 11.871094 31.570312 12.023438 31.539062 L 12.972656 31.34375 C 13.523438 31.230469 14.039062 31.320312 14.523438 31.609375 C 15.007812 31.894531 15.339844 32.304688 15.515625 32.84375 L 15.855469 33.789062 C 15.960938 34.117188 16.183594 34.285156 16.519531 34.296875 L 17.445312 34.296875 C 17.597656 34.296875 17.738281 34.25 17.867188 34.15625 C 17.992188 34.0625 18.078125 33.941406 18.128906 33.789062 L 18.4375 32.855469 C 18.617188 32.316406 18.949219 31.90625 19.429688 31.625 C 19.914062 31.332031 20.429688 31.242188 20.980469 31.355469 L 21.929688 31.554688 C 22.082031 31.585938 22.230469 31.570312 22.371094 31.503906 C 22.511719 31.441406 22.621094 31.339844 22.699219 31.203125 L 23.167969 30.371094 C 23.246094 30.234375 23.277344 30.085938 23.261719 29.929688 C 23.246094 29.769531 23.1875 29.632812 23.082031 29.511719 L 22.4375 28.769531 C 22.0625 28.339844 21.875 27.839844 21.878906 27.261719 Z M 16.984375 29.273438 C 16.722656 29.273438 16.472656 29.222656 16.230469 29.117188 C 15.988281 29.015625 15.777344 28.871094 15.59375 28.683594 C 15.410156 28.496094 15.265625 28.277344 15.167969 28.03125 C 15.066406 27.785156 15.015625 27.53125 15.015625 27.261719 C 15.015625 26.996094 15.066406 26.742188 15.167969 26.496094 C 15.265625 26.25 15.410156 26.03125 15.59375 25.84375 C 15.777344 25.652344 15.988281 25.507812 16.230469 25.40625 C 16.472656 25.304688 16.722656 25.253906 16.984375 25.253906 C 17.246094 25.253906 17.496094 25.304688 17.734375 25.40625 C 17.976562 25.507812 18.1875 25.652344 18.375 25.84375 C 18.558594 26.03125 18.699219 26.25 18.800781 26.496094 C 18.898438 26.742188 18.949219 26.996094 18.949219 27.261719 C 18.949219 27.53125 18.898438 27.785156 18.800781 28.03125 C 18.699219 28.277344 18.558594 28.496094 18.375 28.683594 C 18.1875 28.871094 17.976562 29.015625 17.734375 29.117188 C 17.496094 29.222656 17.246094 29.273438 16.984375 29.273438 Z M 16.984375 29.273438 "/>
</g>
<g clip-path="url(#clip4)" clip-rule="nonzero">
<path style=" stroke:none;fill-rule:nonzero;fill:rgb(12.939453%,58.81958%,95.289612%);fill-opacity:1;" d="M 31.691406 37.8125 C 31.6875 37.242188 31.871094 36.742188 32.238281 36.3125 L 32.882812 35.570312 C 32.988281 35.453125 33.046875 35.3125 33.0625 35.15625 C 33.078125 35 33.046875 34.851562 32.96875 34.714844 L 32.503906 33.886719 C 32.425781 33.75 32.316406 33.648438 32.175781 33.585938 C 32.035156 33.519531 31.886719 33.503906 31.734375 33.535156 L 30.785156 33.734375 C 30.234375 33.84375 29.71875 33.753906 29.234375 33.464844 C 28.75 33.183594 28.417969 32.769531 28.242188 32.230469 L 27.902344 31.285156 C 27.796875 30.960938 27.574219 30.789062 27.238281 30.78125 L 26.316406 30.78125 C 26.160156 30.78125 26.019531 30.828125 25.894531 30.917969 C 25.765625 31.011719 25.679688 31.132812 25.628906 31.285156 L 25.320312 32.222656 C 25.140625 32.761719 24.8125 33.171875 24.328125 33.453125 C 23.84375 33.742188 23.328125 33.832031 22.777344 33.71875 L 21.828125 33.523438 C 21.675781 33.492188 21.527344 33.507812 21.386719 33.570312 C 21.246094 33.636719 21.136719 33.738281 21.058594 33.875 L 20.589844 34.703125 C 20.511719 34.84375 20.480469 34.988281 20.496094 35.148438 C 20.511719 35.304688 20.570312 35.445312 20.675781 35.5625 L 21.304688 36.289062 C 21.683594 36.722656 21.878906 37.230469 21.878906 37.8125 C 21.878906 38.390625 21.691406 38.898438 21.316406 39.328125 L 20.6875 40.054688 C 20.578125 40.175781 20.519531 40.316406 20.5 40.480469 C 20.484375 40.640625 20.519531 40.792969 20.601562 40.933594 L 21.066406 41.75 C 21.144531 41.886719 21.253906 41.988281 21.394531 42.054688 C 21.539062 42.117188 21.683594 42.136719 21.835938 42.101562 L 22.785156 41.90625 C 23.335938 41.792969 23.851562 41.882812 24.335938 42.171875 C 24.816406 42.457031 25.144531 42.867188 25.320312 43.402344 L 25.625 44.34375 C 25.675781 44.496094 25.765625 44.617188 25.890625 44.707031 C 26.019531 44.800781 26.160156 44.847656 26.316406 44.847656 L 27.238281 44.847656 C 27.574219 44.835938 27.796875 44.667969 27.902344 44.339844 L 28.207031 43.398438 C 28.386719 42.859375 28.71875 42.449219 29.203125 42.167969 C 29.683594 41.878906 30.199219 41.789062 30.75 41.902344 L 31.699219 42.097656 C 31.851562 42.128906 32 42.113281 32.140625 42.050781 C 32.28125 41.984375 32.394531 41.882812 32.472656 41.746094 L 32.9375 40.929688 C 33.011719 40.792969 33.042969 40.644531 33.027344 40.488281 C 33.011719 40.328125 32.953125 40.191406 32.847656 40.070312 L 32.203125 39.328125 C 31.84375 38.890625 31.675781 38.386719 31.691406 37.8125 Z M 26.773438 39.820312 C 26.515625 39.820312 26.265625 39.765625 26.027344 39.660156 C 25.785156 39.558594 25.574219 39.410156 25.394531 39.21875 C 25.210938 39.03125 25.070312 38.8125 24.972656 38.566406 C 24.875 38.320312 24.828125 38.0625 24.832031 37.796875 C 24.832031 37.53125 24.882812 37.277344 24.984375 37.03125 C 25.085938 36.789062 25.230469 36.570312 25.414062 36.382812 C 25.597656 36.199219 25.8125 36.054688 26.050781 35.953125 C 26.292969 35.851562 26.542969 35.804688 26.804688 35.804688 C 27.0625 35.804688 27.3125 35.855469 27.554688 35.960938 C 27.792969 36.0625 28.003906 36.207031 28.1875 36.394531 C 28.371094 36.582031 28.515625 36.800781 28.613281 37.046875 C 28.714844 37.292969 28.761719 37.546875 28.761719 37.8125 C 28.761719 38.082031 28.710938 38.339844 28.609375 38.585938 C 28.511719 38.835938 28.367188 39.050781 28.179688 39.242188 C 27.992188 39.429688 27.777344 39.574219 27.535156 39.675781 C 27.289062 39.777344 27.039062 39.824219 26.773438 39.820312 Z M 26.773438 39.820312 "/>
</g>
</g>
</svg>
