<?xml version="1.0" encoding="UTF-8"?>
<svg xmlns="http://www.w3.org/2000/svg" xmlns:xlink="http://www.w3.org/1999/xlink" width="75pt" height="74.999997pt" viewBox="0 0 75 74.999997" version="1.2">
<defs>
<clipPath id="clip1">
  <path d="M 34 58 L 42 58 L 42 68.851562 L 34 68.851562 Z M 34 58 "/>
</clipPath>
<clipPath id="clip2">
  <path d="M 30 43.351562 L 44 43.351562 L 44 56 L 30 56 Z M 30 43.351562 "/>
</clipPath>
<clipPath id="clip3">
  <path d="M 32 58 L 37 58 L 37 68.851562 L 32 68.851562 Z M 32 58 "/>
</clipPath>
<clipPath id="clip4">
  <path d="M 30 43.351562 L 45 43.351562 L 45 56 L 30 56 Z M 30 43.351562 "/>
</clipPath>
<clipPath id="clip5">
  <path d="M 24.75 54 L 50.25 54 L 50.25 68.851562 L 24.75 68.851562 Z M 24.75 54 "/>
</clipPath>
</defs>
<g id="surface1">
<path style=" stroke:none;fill-rule:nonzero;fill:rgb(12.939453%,58.81958%,95.289612%);fill-opacity:1;" d="M 69.53125 0 L 5.46875 0 C 2.453125 0 0 2.453125 0 5.46875 L 0 69.53125 C 0 72.546875 2.453125 75 5.46875 75 L 69.53125 75 C 72.546875 75 75 72.546875 75 69.53125 L 75 5.46875 C 75 2.453125 72.546875 0 69.53125 0 Z M 69.53125 0 "/>
<path style=" stroke:none;fill-rule:nonzero;fill:rgb(98.039246%,98.039246%,98.039246%);fill-opacity:1;" d="M 51.5625 23.4375 C 51.5625 24.359375 51.472656 25.273438 51.292969 26.179688 C 51.113281 27.085938 50.84375 27.964844 50.492188 28.820312 C 50.140625 29.671875 49.707031 30.484375 49.191406 31.25 C 48.679688 32.019531 48.097656 32.726562 47.445312 33.382812 C 46.789062 34.035156 46.082031 34.617188 45.3125 35.128906 C 44.546875 35.644531 43.734375 36.078125 42.882812 36.429688 C 42.027344 36.78125 41.148438 37.050781 40.242188 37.230469 C 39.335938 37.410156 38.421875 37.5 37.5 37.5 C 36.578125 37.5 35.664062 37.410156 34.757812 37.230469 C 33.851562 37.050781 32.972656 36.78125 32.117188 36.429688 C 31.265625 36.078125 30.453125 35.644531 29.6875 35.128906 C 28.917969 34.617188 28.210938 34.035156 27.554688 33.382812 C 26.902344 32.726562 26.320312 32.019531 25.808594 31.25 C 25.292969 30.484375 24.859375 29.671875 24.507812 28.820312 C 24.15625 27.964844 23.886719 27.085938 23.707031 26.179688 C 23.527344 25.273438 23.4375 24.359375 23.4375 23.4375 C 23.4375 22.515625 23.527344 21.601562 23.707031 20.695312 C 23.886719 19.789062 24.15625 18.910156 24.507812 18.054688 C 24.859375 17.203125 25.292969 16.390625 25.808594 15.625 C 26.320312 14.855469 26.902344 14.148438 27.554688 13.492188 C 28.210938 12.839844 28.917969 12.257812 29.6875 11.746094 C 30.453125 11.230469 31.265625 10.796875 32.117188 10.445312 C 32.972656 10.09375 33.851562 9.824219 34.757812 9.644531 C 35.664062 9.464844 36.578125 9.375 37.5 9.375 C 38.421875 9.375 39.335938 9.464844 40.242188 9.644531 C 41.148438 9.824219 42.027344 10.09375 42.882812 10.445312 C 43.734375 10.796875 44.546875 11.230469 45.3125 11.746094 C 46.082031 12.257812 46.789062 12.839844 47.445312 13.492188 C 48.097656 14.148438 48.679688 14.855469 49.191406 15.625 C 49.707031 16.390625 50.140625 17.203125 50.492188 18.054688 C 50.84375 18.910156 51.113281 19.789062 51.292969 20.695312 C 51.472656 21.601562 51.5625 22.515625 51.5625 23.4375 Z M 51.5625 23.4375 "/>
<path style=" stroke:none;fill-rule:nonzero;fill:rgb(98.039246%,98.039246%,98.039246%);fill-opacity:1;" d="M 64.0625 66.40625 C 64.0625 67.699219 63.011719 68.75 61.71875 68.75 L 13.28125 68.75 C 11.988281 68.75 10.9375 67.699219 10.9375 66.40625 L 10.9375 56.683594 C 10.9375 48.703125 17.3125 42.210938 25.15625 42.191406 L 49.847656 42.191406 C 57.6875 42.210938 64.066406 48.699219 64.066406 56.683594 L 64.066406 66.40625 Z M 64.0625 66.40625 "/>
<path style=" stroke:none;fill-rule:nonzero;fill:rgb(92.549133%,92.549133%,92.549133%);fill-opacity:1;" d="M 26.804688 58.980469 L 25.160156 58.980469 L 25.160156 60.625 L 49.839844 60.625 L 49.839844 58.980469 L 26.804688 58.980469 "/>
<g clip-path="url(#clip1)" clip-rule="nonzero">
<path style=" stroke:none;fill-rule:nonzero;fill:rgb(97.648621%,87.838745%,65.098572%);fill-opacity:1;" d="M 34.621094 58.980469 L 34.621094 68.4375 L 39.96875 68.4375 L 39.96875 65.828125 C 39.96875 65.394531 40.140625 64.972656 40.449219 64.667969 L 40.71875 64.394531 C 41.027344 64.085938 41.203125 63.667969 41.203125 63.230469 L 41.203125 58.980469 L 34.621094 58.980469 "/>
</g>
<path style=" stroke:none;fill-rule:nonzero;fill:rgb(91.758728%,74.119568%,54.899597%);fill-opacity:1;" d="M 34.621094 61.445312 L 35.03125 61.445312 C 38.160156 61.445312 39.816406 64.085938 40.253906 64.902344 C 40.3125 64.820312 40.375 64.738281 40.449219 64.667969 L 40.71875 64.394531 C 41.027344 64.085938 41.203125 63.667969 41.203125 63.230469 L 41.203125 59.390625 L 34.621094 59.390625 L 34.621094 61.445312 "/>
<path style=" stroke:none;fill-rule:nonzero;fill:rgb(92.549133%,92.549133%,92.549133%);fill-opacity:1;" d="M 45.316406 61.035156 L 29.683594 61.035156 L 29.683594 58.566406 L 45.316406 58.566406 L 45.316406 61.035156 "/>
<path style=" stroke:none;fill-rule:nonzero;fill:rgb(71.369934%,75.689697%,80.778503%);fill-opacity:1;" d="M 41.203125 61.035156 L 33.796875 61.035156 L 33.796875 58.566406 L 41.203125 58.566406 L 41.203125 61.035156 "/>
<path style=" stroke:none;fill-rule:nonzero;fill:rgb(71.369934%,75.689697%,80.778503%);fill-opacity:1;" d="M 43.667969 61.035156 L 45.316406 61.035156 L 45.316406 58.566406 L 43.667969 58.566406 L 43.667969 61.035156 "/>
<path style=" stroke:none;fill-rule:nonzero;fill:rgb(71.369934%,75.689697%,80.778503%);fill-opacity:1;" d="M 29.683594 61.035156 L 31.332031 61.035156 L 31.332031 58.566406 L 29.683594 58.566406 L 29.683594 61.035156 "/>
<path style=" stroke:none;fill-rule:nonzero;fill:rgb(54.899597%,58.428955%,64.309692%);fill-opacity:1;" d="M 28.453125 54.453125 L 28.453125 56.511719 L 26.804688 56.511719 L 26.804688 63.09375 L 28.453125 63.09375 L 28.453125 65.148438 L 30.097656 65.148438 L 30.097656 54.453125 L 28.453125 54.453125 "/>
<path style=" stroke:none;fill-rule:nonzero;fill:rgb(54.899597%,58.428955%,64.309692%);fill-opacity:1;" d="M 46.546875 56.511719 L 46.546875 54.453125 L 44.902344 54.453125 L 44.902344 65.148438 L 46.546875 65.148438 L 46.546875 63.09375 L 48.195312 63.09375 L 48.195312 56.511719 L 46.546875 56.511719 "/>
<g clip-path="url(#clip2)" clip-rule="nonzero">
<path style=" stroke:none;fill-rule:nonzero;fill:rgb(98.429871%,34.899902%,40.779114%);fill-opacity:1;" d="M 37.089844 55.277344 L 31.53125 49.71875 C 30.875 49.066406 30.507812 48.175781 30.507812 47.25 C 30.507812 45.324219 32.070312 43.761719 33.996094 43.761719 C 34.921875 43.761719 35.8125 44.128906 36.464844 44.78125 L 37.089844 45.40625 L 37.710938 44.78125 C 38.367188 44.128906 39.253906 43.761719 40.179688 43.761719 C 42.109375 43.761719 43.667969 45.324219 43.667969 47.25 C 43.667969 48.175781 43.300781 49.066406 42.648438 49.71875 L 37.089844 55.277344 "/>
</g>
<path style=" stroke:none;fill-rule:nonzero;fill:rgb(97.648621%,87.838745%,65.098572%);fill-opacity:1;" d="M 41.203125 57.742188 L 41.203125 60.214844 C 41.203125 60.664062 40.832031 61.035156 40.378906 61.035156 C 39.925781 61.035156 39.554688 60.664062 39.554688 60.214844 L 39.554688 57.742188 C 39.554688 57.289062 39.925781 56.921875 40.378906 56.921875 C 40.832031 56.921875 41.203125 57.289062 41.203125 57.742188 "/>
<path style=" stroke:none;fill-rule:nonzero;fill:rgb(97.648621%,87.838745%,65.098572%);fill-opacity:1;" d="M 39.554688 57.742188 L 39.554688 60.214844 C 39.554688 60.664062 39.1875 61.035156 38.734375 61.035156 C 38.277344 61.035156 37.910156 60.664062 37.910156 60.214844 L 37.910156 57.742188 C 37.910156 57.289062 38.277344 56.921875 38.734375 56.921875 C 39.1875 56.921875 39.554688 57.289062 39.554688 57.742188 "/>
<path style=" stroke:none;fill-rule:nonzero;fill:rgb(97.648621%,87.838745%,65.098572%);fill-opacity:1;" d="M 37.910156 57.746094 L 37.910156 60.214844 C 37.910156 60.667969 37.542969 61.035156 37.089844 61.035156 C 36.632812 61.035156 36.265625 60.667969 36.265625 60.214844 L 36.265625 57.746094 C 36.265625 57.289062 36.632812 56.921875 37.089844 56.921875 C 37.542969 56.921875 37.910156 57.289062 37.910156 57.746094 "/>
<path style=" stroke:none;fill-rule:nonzero;fill:rgb(91.758728%,74.119568%,54.899597%);fill-opacity:1;" d="M 36.265625 57.746094 L 36.265625 59.800781 L 37.089844 56.921875 C 36.632812 56.921875 36.265625 57.289062 36.265625 57.746094 "/>
<path style=" stroke:none;fill-rule:nonzero;fill:rgb(91.758728%,74.119568%,54.899597%);fill-opacity:1;" d="M 37.910156 57.746094 L 37.910156 59.800781 L 38.734375 56.921875 C 38.277344 56.921875 37.910156 57.289062 37.910156 57.746094 "/>
<path style=" stroke:none;fill-rule:nonzero;fill:rgb(91.758728%,74.119568%,54.899597%);fill-opacity:1;" d="M 39.554688 57.746094 L 39.554688 59.800781 L 40.378906 56.921875 C 39.925781 56.921875 39.554688 57.289062 39.554688 57.746094 "/>
<path style=" stroke:none;fill-rule:nonzero;fill:rgb(97.648621%,87.838745%,65.098572%);fill-opacity:1;" d="M 36.265625 57.746094 L 36.265625 60.214844 C 36.265625 60.667969 35.898438 61.035156 35.445312 61.035156 C 34.988281 61.035156 34.621094 60.667969 34.621094 60.214844 L 34.621094 57.746094 C 34.621094 57.289062 34.988281 56.921875 35.445312 56.921875 C 35.898438 56.921875 36.265625 57.289062 36.265625 57.746094 "/>
<path style=" stroke:none;fill-rule:nonzero;fill:rgb(91.758728%,74.119568%,54.899597%);fill-opacity:1;" d="M 34.621094 58.980469 L 34.621094 60.214844 L 35.855469 60.214844 C 36.308594 60.214844 36.675781 59.84375 36.675781 59.390625 L 36.675781 58.980469 L 34.621094 58.980469 "/>
<path style=" stroke:none;fill-rule:nonzero;fill:rgb(47.44873%,52.549744%,59.999084%);fill-opacity:1;" d="M 46.546875 63.09375 L 47.371094 63.09375 L 47.371094 56.511719 L 46.546875 56.511719 L 46.546875 63.09375 "/>
<path style=" stroke:none;fill-rule:nonzero;fill:rgb(47.44873%,52.549744%,59.999084%);fill-opacity:1;" d="M 27.628906 63.09375 L 28.453125 63.09375 L 28.453125 56.511719 L 27.628906 56.511719 L 27.628906 63.09375 "/>
<g clip-path="url(#clip3)" clip-rule="nonzero">
<path style=" stroke:none;fill-rule:nonzero;fill:rgb(97.648621%,87.838745%,65.098572%);fill-opacity:1;" d="M 35.855469 58.15625 L 34.210938 58.15625 C 33.527344 58.15625 32.976562 58.707031 32.976562 59.390625 L 32.976562 62.992188 C 32.976562 63.320312 33.105469 63.632812 33.335938 63.863281 L 34.257812 64.785156 C 34.492188 65.015625 34.621094 65.332031 34.621094 65.65625 L 34.621094 68.4375 L 36.265625 68.4375 L 36.265625 62.777344 C 36.265625 62.214844 35.949219 61.699219 35.445312 61.445312 C 34.9375 61.195312 34.621094 60.679688 34.621094 60.113281 L 34.621094 59.800781 L 35.855469 59.800781 C 36.308594 59.800781 36.675781 59.433594 36.675781 58.976562 C 36.675781 58.523438 36.308594 58.15625 35.855469 58.15625 "/>
</g>
<g clip-path="url(#clip4)" clip-rule="nonzero">
<path style=" stroke:none;fill-rule:nonzero;fill:rgb(0%,0%,0%);fill-opacity:1;" d="M 33.996094 44.171875 C 34.820312 44.171875 35.59375 44.492188 36.175781 45.074219 L 36.796875 45.695312 C 36.957031 45.859375 37.21875 45.859375 37.378906 45.695312 L 38.003906 45.074219 C 38.585938 44.492188 39.355469 44.171875 40.179688 44.171875 C 41.875 44.171875 43.257812 45.550781 43.257812 47.25 C 43.257812 47.765625 43.132812 48.261719 42.894531 48.707031 C 42.878906 48.703125 42.863281 48.695312 42.847656 48.695312 L 37.71875 48.695312 L 36.195312 46.414062 C 36.105469 46.269531 35.933594 46.203125 35.769531 46.238281 C 35.605469 46.273438 35.476562 46.40625 35.449219 46.574219 L 34.898438 49.875 L 34.1875 47.742188 C 34.132812 47.574219 33.976562 47.464844 33.796875 47.464844 L 30.929688 47.464844 C 30.925781 47.390625 30.917969 47.320312 30.917969 47.25 C 30.917969 45.550781 32.300781 44.171875 33.996094 44.171875 Z M 37.089844 54.695312 L 31.820312 49.429688 C 31.492188 49.101562 31.25 48.710938 31.101562 48.285156 L 33.503906 48.285156 L 34.640625 51.707031 C 34.699219 51.875 34.855469 51.988281 35.03125 51.988281 C 35.042969 51.988281 35.054688 51.984375 35.0625 51.984375 C 35.253906 51.972656 35.40625 51.828125 35.4375 51.644531 L 36.089844 47.734375 L 37.15625 49.335938 C 37.234375 49.449219 37.363281 49.519531 37.5 49.519531 L 42.265625 49.519531 Z M 36.796875 55.566406 C 36.878906 55.648438 36.984375 55.6875 37.089844 55.6875 C 37.195312 55.6875 37.300781 55.648438 37.378906 55.566406 L 42.9375 50.007812 C 43.675781 49.273438 44.082031 48.292969 44.082031 47.25 C 44.082031 45.097656 42.332031 43.351562 40.179688 43.351562 C 39.136719 43.351562 38.15625 43.753906 37.421875 44.492188 L 37.089844 44.824219 L 36.757812 44.492188 C 36.019531 43.753906 35.039062 43.351562 33.996094 43.351562 C 31.847656 43.351562 30.097656 45.097656 30.097656 47.25 C 30.097656 48.292969 30.503906 49.273438 31.238281 50.007812 L 36.796875 55.566406 "/>
</g>
<g clip-path="url(#clip5)" clip-rule="nonzero">
<path style=" stroke:none;fill-rule:nonzero;fill:rgb(0%,0%,0%);fill-opacity:1;" d="M 49.425781 60.214844 L 48.605469 60.214844 L 48.605469 59.390625 L 49.425781 59.390625 Z M 47.78125 62.679688 L 46.960938 62.679688 L 46.960938 56.921875 L 47.78125 56.921875 Z M 46.136719 64.738281 L 45.316406 64.738281 L 45.316406 54.867188 L 46.136719 54.867188 Z M 41.539062 60.625 C 41.582031 60.492188 41.613281 60.359375 41.613281 60.214844 L 41.613281 58.980469 L 44.492188 58.980469 L 44.492188 60.625 Z M 40.789062 63.230469 C 40.789062 63.5625 40.660156 63.871094 40.429688 64.105469 L 40.160156 64.375 C 39.769531 64.761719 39.554688 65.28125 39.554688 65.828125 L 39.554688 68.027344 L 35.03125 68.027344 L 35.03125 65.65625 C 35.03125 65.226562 34.855469 64.800781 34.550781 64.496094 L 33.628906 63.574219 C 33.472656 63.417969 33.386719 63.210938 33.386719 62.992188 L 33.386719 59.390625 C 33.386719 58.9375 33.757812 58.566406 34.210938 58.566406 L 35.855469 58.566406 C 36.082031 58.566406 36.265625 58.75 36.265625 58.976562 C 36.265625 59.207031 36.082031 59.390625 35.855469 59.390625 L 34.621094 59.390625 C 34.394531 59.390625 34.210938 59.574219 34.210938 59.800781 L 34.210938 60.214844 C 34.210938 60.332031 34.230469 60.449219 34.265625 60.5625 C 34.394531 61.097656 34.75 61.558594 35.261719 61.816406 C 35.625 61.996094 35.855469 62.367188 35.855469 62.777344 L 35.855469 63.914062 C 35.855469 64.140625 36.039062 64.324219 36.265625 64.324219 C 36.492188 64.324219 36.675781 64.140625 36.675781 63.914062 L 36.675781 62.777344 C 36.675781 62.199219 36.417969 61.671875 35.988281 61.316406 C 36.085938 61.265625 36.183594 61.199219 36.265625 61.125 C 36.484375 61.324219 36.773438 61.445312 37.089844 61.445312 C 37.40625 61.445312 37.691406 61.324219 37.910156 61.125 C 38.128906 61.324219 38.417969 61.445312 38.734375 61.445312 C 39.050781 61.445312 39.339844 61.324219 39.554688 61.125 C 39.773438 61.324219 40.0625 61.445312 40.378906 61.445312 L 40.789062 61.445312 Z M 30.507812 60.625 L 30.507812 58.980469 L 32.621094 58.980469 C 32.589844 59.109375 32.566406 59.246094 32.566406 59.390625 L 32.566406 60.625 Z M 29.683594 64.738281 L 28.863281 64.738281 L 28.863281 54.867188 L 29.683594 54.867188 Z M 27.21875 62.679688 L 27.21875 56.921875 L 28.039062 56.921875 L 28.039062 62.679688 Z M 25.574219 60.214844 L 25.574219 59.390625 L 26.394531 59.390625 L 26.394531 60.214844 Z M 35.445312 57.332031 C 35.671875 57.332031 35.855469 57.515625 35.855469 57.742188 L 35.03125 57.742188 C 35.03125 57.515625 35.21875 57.332031 35.445312 57.332031 Z M 35.855469 60.214844 C 35.855469 60.4375 35.671875 60.625 35.445312 60.625 C 35.28125 60.625 35.140625 60.527344 35.074219 60.386719 C 35.058594 60.332031 35.042969 60.273438 35.035156 60.210938 L 35.855469 60.210938 Z M 37.089844 57.332031 C 37.316406 57.332031 37.5 57.515625 37.5 57.742188 L 37.5 60.214844 C 37.5 60.4375 37.316406 60.625 37.089844 60.625 C 36.863281 60.625 36.675781 60.4375 36.675781 60.214844 L 36.675781 59.890625 C 36.929688 59.664062 37.089844 59.34375 37.089844 58.976562 C 37.089844 58.613281 36.929688 58.292969 36.675781 58.066406 L 36.675781 57.742188 C 36.675781 57.515625 36.863281 57.332031 37.089844 57.332031 Z M 38.734375 57.332031 C 38.960938 57.332031 39.144531 57.515625 39.144531 57.742188 L 39.144531 60.214844 C 39.144531 60.4375 38.960938 60.625 38.734375 60.625 C 38.507812 60.625 38.324219 60.4375 38.324219 60.214844 L 38.324219 57.742188 C 38.324219 57.515625 38.507812 57.332031 38.734375 57.332031 Z M 40.378906 57.332031 C 40.605469 57.332031 40.789062 57.515625 40.789062 57.742188 L 40.789062 60.214844 C 40.789062 60.4375 40.605469 60.625 40.378906 60.625 C 40.152344 60.625 39.96875 60.4375 39.96875 60.214844 L 39.96875 57.742188 C 39.96875 57.515625 40.152344 57.332031 40.378906 57.332031 Z M 49.839844 58.566406 L 48.605469 58.566406 L 48.605469 56.511719 C 48.605469 56.28125 48.421875 56.101562 48.195312 56.101562 L 46.960938 56.101562 L 46.960938 54.453125 C 46.960938 54.226562 46.773438 54.042969 46.546875 54.042969 L 44.902344 54.042969 C 44.675781 54.042969 44.492188 54.226562 44.492188 54.453125 L 44.492188 58.15625 L 41.613281 58.15625 L 41.613281 57.742188 C 41.613281 57.0625 41.058594 56.507812 40.378906 56.507812 C 40.0625 56.507812 39.773438 56.632812 39.554688 56.832031 C 39.339844 56.632812 39.050781 56.507812 38.734375 56.507812 C 38.417969 56.507812 38.128906 56.632812 37.910156 56.832031 C 37.691406 56.632812 37.40625 56.507812 37.089844 56.507812 C 36.773438 56.507812 36.484375 56.632812 36.265625 56.832031 C 36.046875 56.632812 35.761719 56.507812 35.445312 56.507812 C 34.761719 56.507812 34.210938 57.0625 34.210938 57.742188 C 33.78125 57.742188 33.394531 57.914062 33.101562 58.179688 C 33.0625 58.167969 33.019531 58.15625 32.976562 58.15625 L 30.507812 58.15625 L 30.507812 54.453125 C 30.507812 54.226562 30.324219 54.042969 30.097656 54.042969 L 28.453125 54.042969 C 28.226562 54.042969 28.039062 54.226562 28.039062 54.453125 L 28.039062 56.101562 L 26.804688 56.101562 C 26.578125 56.101562 26.394531 56.28125 26.394531 56.511719 L 26.394531 58.566406 L 25.160156 58.566406 C 24.933594 58.566406 24.75 58.75 24.75 58.980469 L 24.75 60.625 C 24.75 60.851562 24.933594 61.035156 25.160156 61.035156 L 26.394531 61.035156 L 26.394531 63.09375 C 26.394531 63.320312 26.578125 63.503906 26.804688 63.503906 L 28.039062 63.503906 L 28.039062 65.148438 C 28.039062 65.375 28.226562 65.558594 28.453125 65.558594 L 30.097656 65.558594 C 30.324219 65.558594 30.507812 65.375 30.507812 65.148438 L 30.507812 61.445312 L 32.566406 61.445312 L 32.566406 62.992188 C 32.566406 63.429688 32.734375 63.84375 33.046875 64.15625 L 33.96875 65.074219 C 34.121094 65.230469 34.210938 65.441406 34.210938 65.65625 L 34.210938 68.027344 L 32.976562 68.027344 C 32.75 68.027344 32.566406 68.210938 32.566406 68.4375 C 32.566406 68.664062 32.75 68.851562 32.976562 68.851562 L 41.613281 68.851562 C 41.839844 68.851562 42.023438 68.664062 42.023438 68.4375 C 42.023438 68.210938 41.839844 68.027344 41.613281 68.027344 L 40.378906 68.027344 L 40.378906 65.828125 C 40.378906 65.503906 40.511719 65.1875 40.742188 64.957031 L 41.011719 64.6875 C 41.398438 64.296875 41.613281 63.78125 41.613281 63.230469 L 41.613281 61.445312 L 44.492188 61.445312 L 44.492188 65.148438 C 44.492188 65.375 44.675781 65.558594 44.902344 65.558594 L 46.546875 65.558594 C 46.773438 65.558594 46.960938 65.375 46.960938 65.148438 L 46.960938 63.503906 L 48.195312 63.503906 C 48.421875 63.503906 48.605469 63.320312 48.605469 63.09375 L 48.605469 61.035156 L 49.839844 61.035156 C 50.066406 61.035156 50.25 60.851562 50.25 60.625 L 50.25 58.980469 C 50.25 58.75 50.066406 58.566406 49.839844 58.566406 "/>
</g>
</g>
</svg>
