<?xml version="1.0" encoding="UTF-8"?>
<svg xmlns="http://www.w3.org/2000/svg" xmlns:xlink="http://www.w3.org/1999/xlink" width="75pt" height="74.999997pt" viewBox="0 0 75 74.999997" version="1.2">
<defs>
<clipPath id="clip1">
  <path d="M 27.789062 21.285156 L 47.289062 21.285156 L 47.289062 38.535156 L 27.789062 38.535156 Z M 27.789062 21.285156 "/>
</clipPath>
<clipPath id="clip2">
  <path d="M 37.5 37.5 L 52.5 37.5 L 52.5 44.90625 L 37.5 44.90625 Z M 37.5 37.5 "/>
</clipPath>
<clipPath id="clip3">
  <path d="M 22.5 37.5 L 37.5 37.5 L 37.5 44.90625 L 22.5 44.90625 Z M 22.5 37.5 "/>
</clipPath>
</defs>
<g id="surface1">
<path style=" stroke:none;fill-rule:evenodd;fill:rgb(12.939453%,58.81958%,95.289612%);fill-opacity:1;" d="M 12.816406 0 L 62.183594 0 C 69.234375 0 75.003906 5.769531 75.003906 12.816406 L 75.003906 62.183594 C 75.003906 69.234375 69.234375 75.003906 62.183594 75.003906 L 12.816406 75.003906 C 5.769531 75.003906 0 69.234375 0 62.183594 L 0 12.816406 C 0 5.769531 5.769531 0 12.816406 0 "/>
<path style=" stroke:none;fill-rule:evenodd;fill:rgb(100%,100%,100%);fill-opacity:1;" d="M 34.925781 10.441406 L 35.570312 9.839844 C 36.25 9.207031 37.269531 9.257812 37.949219 9.859375 L 64.527344 33.382812 C 65.238281 34.015625 65.304688 35.109375 64.675781 35.824219 C 64.042969 36.535156 62.949219 36.601562 62.238281 35.972656 L 36.78125 13.441406 L 12.800781 35.820312 C 12.101562 36.472656 11.007812 36.433594 10.355469 35.734375 C 9.707031 35.035156 9.746094 33.941406 10.445312 33.292969 L 34.925781 10.441406 "/>
<path style=" stroke:none;fill-rule:evenodd;fill:rgb(100%,100%,100%);fill-opacity:1;" d="M 56.765625 63.046875 L 56.765625 32.300781 L 36.796875 14.628906 L 17.765625 32.390625 L 17.765625 63.046875 L 31.550781 63.046875 L 31.550781 50.800781 C 31.550781 50.328125 31.933594 49.945312 32.402344 49.945312 L 42.125 49.945312 C 42.59375 49.945312 42.976562 50.328125 42.976562 50.800781 L 42.976562 63.046875 Z M 36.75 35.273438 C 35.304688 35.273438 33.996094 34.691406 33.050781 33.742188 C 32.105469 32.796875 31.519531 31.488281 31.519531 30.042969 C 31.519531 28.597656 32.105469 27.292969 33.050781 26.34375 C 33.996094 25.398438 35.304688 24.8125 36.75 24.8125 C 38.195312 24.8125 39.503906 25.398438 40.449219 26.34375 C 41.394531 27.292969 41.980469 28.597656 41.980469 30.042969 C 41.980469 31.488281 41.394531 32.796875 40.449219 33.742188 C 39.503906 34.691406 38.195312 35.273438 36.75 35.273438 "/>
<g clip-path="url(#clip1)" clip-rule="nonzero">
<path style=" stroke:none;fill-rule:nonzero;fill:rgb(94.509888%,1.959229%,1.959229%);fill-opacity:1;" d="M 46.886719 25.046875 C 46.683594 24.3125 46.09375 23.46875 45.605469 22.925781 C 44.613281 21.832031 43.105469 21.28125 41.714844 21.28125 C 41.011719 21.28125 40.320312 21.460938 39.71875 21.875 C 39.152344 22.265625 38.492188 22.917969 38.148438 23.550781 C 37.863281 24.078125 37.664062 24.667969 37.546875 25.273438 C 37.425781 24.667969 37.226562 24.078125 36.941406 23.550781 C 36.597656 22.917969 35.9375 22.265625 35.371094 21.875 C 34.769531 21.460938 34.078125 21.28125 33.375 21.28125 C 31.984375 21.28125 30.476562 21.832031 29.484375 22.925781 C 28.996094 23.46875 28.40625 24.3125 28.203125 25.046875 C 27.875 26.226562 27.808594 27.488281 28.160156 28.671875 C 28.546875 29.980469 29.238281 31.203125 29.996094 32.296875 C 30.804688 33.457031 31.753906 34.484375 32.746094 35.453125 C 34.074219 36.75 36.089844 38.398438 37.464844 38.519531 L 37.464844 38.527344 C 37.492188 38.527344 37.519531 38.527344 37.546875 38.523438 C 37.570312 38.527344 37.597656 38.527344 37.625 38.527344 L 37.625 38.519531 C 39.003906 38.398438 41.015625 36.75 42.34375 35.453125 C 43.335938 34.484375 44.289062 33.457031 45.09375 32.296875 C 45.851562 31.203125 46.542969 29.980469 46.929688 28.671875 C 47.28125 27.488281 47.214844 26.226562 46.886719 25.046875 Z M 46.886719 25.046875 "/>
</g>
<path style=" stroke:none;fill-rule:nonzero;fill:rgb(100%,100%,100%);fill-opacity:1;" d="M 39.097656 35.089844 L 37.957031 26.757812 L 36.769531 30.589844 L 29.417969 30.589844 L 29.417969 30.125 L 36.414062 30.125 L 38.136719 24.554688 L 39.324219 33.210938 L 40.539062 30.121094 L 45.671875 30.121094 L 45.671875 30.589844 L 40.867188 30.589844 Z M 39.097656 35.089844 "/>
<path style=" stroke:none;fill-rule:nonzero;fill:rgb(100%,100%,100%);fill-opacity:1;" d="M 44.777344 23.40625 C 44.96875 23.578125 45.089844 23.769531 45.140625 23.984375 C 45.191406 24.199219 45.152344 24.371094 45.03125 24.503906 C 44.910156 24.636719 44.734375 24.6875 44.511719 24.660156 C 44.289062 24.632812 44.082031 24.53125 43.886719 24.359375 C 43.695312 24.191406 43.574219 23.996094 43.523438 23.78125 C 43.472656 23.570312 43.511719 23.394531 43.632812 23.261719 C 43.753906 23.132812 43.929688 23.078125 44.152344 23.105469 C 44.375 23.136719 44.582031 23.234375 44.777344 23.40625 Z M 44.777344 23.40625 "/>
<g clip-path="url(#clip2)" clip-rule="nonzero">
<path style=" stroke:none;fill-rule:nonzero;fill:rgb(19.219971%,54.508972%,63.529968%);fill-opacity:1;" d="M 52.300781 41.167969 C 52.300781 42.160156 51.933594 43.003906 51.203125 43.695312 C 50.476562 44.382812 49.558594 44.730469 48.449219 44.730469 C 47.300781 44.730469 46.035156 44.296875 44.65625 43.433594 C 44.042969 43.046875 43.429688 42.65625 42.808594 42.269531 C 42.144531 41.898438 41.539062 41.710938 40.992188 41.710938 C 40.40625 41.710938 39.859375 41.859375 39.347656 42.152344 C 39.027344 42.324219 38.578125 42.664062 37.992188 43.164062 C 37.957031 43.1875 37.921875 43.203125 37.886719 43.203125 C 37.761719 43.203125 37.699219 43.140625 37.699219 43.019531 C 37.699219 42.976562 37.71875 42.9375 37.753906 42.902344 C 38.371094 42.378906 38.863281 42.019531 39.226562 41.828125 C 39.792969 41.519531 40.398438 41.363281 41.042969 41.363281 C 41.894531 41.363281 42.792969 41.621094 43.738281 42.140625 C 44.515625 42.625 45.296875 43.109375 46.074219 43.601562 C 46.976562 44.121094 47.796875 44.378906 48.53125 44.378906 C 49.476562 44.378906 50.242188 44.066406 50.828125 43.433594 C 51.382812 42.839844 51.664062 42.082031 51.664062 41.167969 C 51.664062 40.261719 51.378906 39.5 50.8125 38.878906 C 50.246094 38.257812 49.527344 37.945312 48.648438 37.945312 C 48.226562 37.945312 47.890625 38.015625 47.640625 38.160156 C 47.394531 38.300781 47.269531 38.476562 47.269531 38.683594 C 47.269531 38.796875 47.308594 38.882812 47.382812 38.949219 C 47.457031 39.011719 47.53125 39.078125 47.601562 39.136719 C 47.726562 39.238281 47.785156 39.371094 47.785156 39.523438 C 47.785156 39.671875 47.734375 39.792969 47.628906 39.894531 C 47.523438 39.992188 47.394531 40.042969 47.242188 40.042969 C 47.039062 40.042969 46.863281 39.960938 46.710938 39.796875 C 46.535156 39.617188 46.445312 39.371094 46.445312 39.058594 C 46.445312 38.644531 46.644531 38.296875 47.042969 38.015625 C 47.441406 37.734375 47.976562 37.59375 48.648438 37.59375 C 49.632812 37.59375 50.484375 37.949219 51.210938 38.652344 C 51.9375 39.355469 52.300781 40.195312 52.300781 41.167969 Z M 52.300781 41.167969 "/>
</g>
<g clip-path="url(#clip3)" clip-rule="nonzero">
<path style=" stroke:none;fill-rule:nonzero;fill:rgb(19.219971%,54.508972%,63.529968%);fill-opacity:1;" d="M 22.699219 41.167969 C 22.699219 42.160156 23.066406 43.003906 23.796875 43.695312 C 24.523438 44.382812 25.441406 44.730469 26.550781 44.730469 C 27.699219 44.730469 28.964844 44.296875 30.34375 43.433594 C 30.957031 43.046875 31.570312 42.65625 32.191406 42.269531 C 32.855469 41.898438 33.460938 41.710938 34.007812 41.710938 C 34.59375 41.710938 35.140625 41.859375 35.652344 42.152344 C 35.972656 42.324219 36.421875 42.664062 37.007812 43.164062 C 37.042969 43.1875 37.078125 43.203125 37.113281 43.203125 C 37.238281 43.203125 37.300781 43.140625 37.300781 43.019531 C 37.300781 42.976562 37.28125 42.9375 37.246094 42.902344 C 36.628906 42.378906 36.136719 42.019531 35.773438 41.828125 C 35.207031 41.519531 34.601562 41.363281 33.957031 41.363281 C 33.105469 41.363281 32.207031 41.621094 31.261719 42.140625 C 30.484375 42.625 29.703125 43.109375 28.925781 43.601562 C 28.023438 44.121094 27.203125 44.378906 26.46875 44.378906 C 25.523438 44.378906 24.757812 44.066406 24.171875 43.433594 C 23.617188 42.839844 23.335938 42.082031 23.335938 41.167969 C 23.335938 40.261719 23.621094 39.5 24.1875 38.878906 C 24.753906 38.257812 25.472656 37.945312 26.351562 37.945312 C 26.773438 37.945312 27.109375 38.015625 27.359375 38.160156 C 27.605469 38.300781 27.730469 38.476562 27.730469 38.683594 C 27.730469 38.796875 27.691406 38.882812 27.617188 38.949219 C 27.542969 39.011719 27.46875 39.078125 27.398438 39.136719 C 27.273438 39.238281 27.214844 39.371094 27.214844 39.523438 C 27.214844 39.671875 27.265625 39.792969 27.371094 39.894531 C 27.476562 39.992188 27.605469 40.042969 27.757812 40.042969 C 27.960938 40.042969 28.136719 39.960938 28.289062 39.796875 C 28.464844 39.617188 28.554688 39.371094 28.554688 39.058594 C 28.554688 38.644531 28.355469 38.296875 27.957031 38.015625 C 27.558594 37.734375 27.023438 37.59375 26.351562 37.59375 C 25.367188 37.59375 24.515625 37.949219 23.789062 38.652344 C 23.0625 39.355469 22.699219 40.195312 22.699219 41.167969 Z M 22.699219 41.167969 "/>
</g>
</g>
</svg>
