<?xml version="1.0" encoding="UTF-8"?>
<svg xmlns="http://www.w3.org/2000/svg" xmlns:xlink="http://www.w3.org/1999/xlink" width="224.87999pt" height="299.999988pt" viewBox="0 0 224.87999 299.999988" version="1.2">
<defs>
<clipPath id="clip1">
  <path d="M 151 20 L 224.761719 20 L 224.761719 57 L 151 57 Z M 151 20 "/>
</clipPath>
<clipPath id="clip2">
  <path d="M 164 156 L 203 156 L 203 224.648438 L 164 224.648438 Z M 164 156 "/>
</clipPath>
<clipPath id="clip3">
  <path d="M 138 0.707031 L 145 0.707031 L 145 37 L 138 37 Z M 138 0.707031 "/>
</clipPath>
<clipPath id="clip4">
  <path d="M 201 134 L 224.761719 134 L 224.761719 173 L 201 173 Z M 201 134 "/>
</clipPath>
<clipPath id="clip5">
  <path d="M 22 156 L 61 156 L 61 224.648438 L 22 224.648438 Z M 22 156 "/>
</clipPath>
<clipPath id="clip6">
  <path d="M 80 0.707031 L 86 0.707031 L 86 37 L 80 37 Z M 80 0.707031 "/>
</clipPath>
<clipPath id="clip7">
  <path d="M 57 186 L 167 186 L 167 224.648438 L 57 224.648438 Z M 57 186 "/>
</clipPath>
<clipPath id="clip8">
  <path d="M 10.574219 228 L 26 228 L 26 244 L 10.574219 244 Z M 10.574219 228 "/>
</clipPath>
<clipPath id="clip9">
  <path d="M 11 225.023438 L 28 225.023438 L 28 243 L 11 243 Z M 11 225.023438 "/>
</clipPath>
<clipPath id="clip10">
  <path d="M 72 280 L 88.535156 280 L 88.535156 297 L 72 297 Z M 72 280 "/>
</clipPath>
<clipPath id="clip11">
  <path d="M 10.574219 227 L 86 227 L 86 299 L 10.574219 299 Z M 10.574219 227 "/>
</clipPath>
<clipPath id="clip12">
  <path d="M 11 225.023438 L 88 225.023438 L 88 298 L 11 298 Z M 11 225.023438 "/>
</clipPath>
<clipPath id="clip13">
  <path d="M 72 225.023438 L 88.535156 225.023438 L 88.535156 243 L 72 243 Z M 72 225.023438 "/>
</clipPath>
<clipPath id="clip14">
  <path d="M 12 283 L 28 283 L 28 299.917969 L 12 299.917969 Z M 12 283 "/>
</clipPath>
<clipPath id="clip15">
  <path d="M 13 228 L 88 228 L 88 299.917969 L 13 299.917969 Z M 13 228 "/>
</clipPath>
<clipPath id="clip16">
  <path d="M 12 225.023438 L 88.535156 225.023438 L 88.535156 298 L 12 298 Z M 12 225.023438 "/>
</clipPath>
<clipPath id="clip17">
  <path d="M 122.519531 225.023438 L 197.476562 225.023438 L 197.476562 299.917969 L 122.519531 299.917969 Z M 122.519531 225.023438 "/>
</clipPath>
</defs>
<g id="surface1">
<path style=" stroke:none;fill-rule:nonzero;fill:rgb(98.429871%,76.858521%,61.959839%);fill-opacity:1;" d="M 189.347656 42.414062 C 172.816406 17.421875 141.648438 23.976562 141.648438 23.976562 L 141.648438 3.453125 L 83.234375 3.453125 L 83.234375 23.976562 C 83.234375 23.976562 52.0625 17.421875 35.53125 42.414062 C 35.53125 42.414062 14.289062 37.773438 3.246094 53.335938 L 3.246094 169.277344 C 3.246094 169.277344 14.402344 159.953125 18.652344 148.820312 C 18.652344 148.820312 23.847656 162.207031 37.546875 169.277344 C 37.546875 169.277344 40.328125 190.027344 41.140625 209.035156 C 41.445312 216.222656 47.347656 221.902344 54.550781 221.902344 L 170.328125 221.902344 C 177.53125 221.902344 183.433594 216.222656 183.742188 209.035156 C 184.554688 190.027344 187.335938 169.277344 187.335938 169.277344 C 201.035156 162.207031 206.226562 148.820312 206.226562 148.820312 C 210.480469 159.953125 221.632812 169.277344 221.632812 169.277344 L 221.632812 53.335938 C 210.589844 37.773438 189.347656 42.414062 189.347656 42.414062 "/>
<path style=" stroke:none;fill-rule:nonzero;fill:rgb(93.328857%,50.19989%,43.139648%);fill-opacity:1;" d="M 19.863281 122.773438 C 19.714844 120.757812 17.019531 120.164062 16.066406 121.945312 C 13.957031 125.878906 10.140625 131.324219 3.246094 137.898438 L 3.246094 169.277344 C 3.246094 169.277344 14.402344 159.953125 18.652344 148.820312 C 20.25 136.628906 20.257812 128.183594 19.863281 122.773438 "/>
<path style=" stroke:none;fill-rule:nonzero;fill:rgb(93.328857%,50.19989%,43.139648%);fill-opacity:1;" d="M 121 32.648438 C 125.441406 27.367188 131.433594 18.078125 135.261719 3.453125 L 126.488281 3.453125 C 125.898438 5.984375 124.960938 9.316406 123.539062 12.726562 C 120.253906 20.609375 109.554688 21.6875 104.828125 14.578125 C 102.96875 11.78125 101.042969 8.152344 99.175781 3.453125 L 93.382812 3.453125 C 94.515625 10.449219 98.007812 24.113281 108.484375 33.527344 C 112.160156 36.828125 117.820312 36.429688 121 32.648438 "/>
<path style=" stroke:none;fill-rule:nonzero;fill:rgb(93.328857%,50.19989%,43.139648%);fill-opacity:1;" d="M 68.949219 221.902344 L 68.949219 197.90625 C 54.683594 189.96875 58.078125 174.957031 58.078125 174.957031 C 50.332031 168.386719 51.683594 159.050781 51.683594 159.050781 C 45.375 156.253906 42.648438 150.65625 42.648438 150.65625 C 41.597656 156.925781 45.746094 163.46875 45.746094 163.46875 C 44.09375 173.378906 50.46875 178.691406 50.46875 178.691406 C 47.867188 193.773438 56.226562 201.214844 56.226562 201.214844 L 56.226562 221.902344 L 68.949219 221.902344 "/>
<path style=" stroke:none;fill-rule:nonzero;fill:rgb(93.328857%,50.19989%,43.139648%);fill-opacity:1;" d="M 221.632812 137.875 C 214.753906 131.3125 210.945312 125.875 208.839844 121.945312 C 207.882812 120.164062 205.1875 120.757812 205.039062 122.773438 C 204.644531 128.183594 204.652344 136.628906 206.25 148.820312 C 206.253906 148.851562 206.261719 148.878906 206.261719 148.910156 C 210.539062 160.003906 221.632812 169.277344 221.632812 169.277344 L 221.632812 137.875 "/>
<path style=" stroke:none;fill-rule:nonzero;fill:rgb(93.328857%,50.19989%,43.139648%);fill-opacity:1;" d="M 182.246094 150.65625 C 182.246094 150.65625 179.519531 156.253906 173.210938 159.050781 C 173.210938 159.050781 174.558594 168.386719 166.816406 174.957031 C 166.816406 174.957031 170.210938 189.96875 155.941406 197.90625 L 155.941406 221.902344 L 168.667969 221.902344 L 168.667969 201.214844 C 168.667969 201.214844 177.027344 193.773438 174.425781 178.691406 C 174.425781 178.691406 180.796875 173.378906 179.148438 163.46875 C 179.148438 163.46875 183.296875 156.925781 182.246094 150.65625 "/>
<path style=" stroke:none;fill-rule:nonzero;fill:rgb(93.328857%,50.19989%,43.139648%);fill-opacity:1;" d="M 119.574219 160.375 C 128.785156 163.363281 134.492188 160.929688 134.492188 160.929688 C 133.082031 160.691406 131.765625 160.265625 130.582031 159.753906 C 127.617188 158.472656 125.085938 156.375 123.09375 153.835938 C 118.175781 147.578125 113.003906 147.335938 112.082031 147.347656 C 111.160156 147.335938 106.027344 147.574219 101.128906 153.757812 C 99.128906 156.285156 96.636719 158.410156 93.683594 159.707031 C 92.46875 160.238281 91.121094 160.683594 89.671875 160.929688 C 89.671875 160.929688 95.375 163.363281 104.585938 160.375 C 109.464844 158.789062 114.695312 158.789062 119.574219 160.375 "/>
<path style=" stroke:none;fill-rule:nonzero;fill:rgb(93.328857%,50.19989%,43.139648%);fill-opacity:1;" d="M 112.082031 182.863281 C 123.035156 191.042969 137.167969 185.28125 137.167969 185.28125 C 119.601562 185.28125 112.703125 168.695312 112.105469 167.160156 L 112.105469 167.035156 C 112.105469 167.035156 112.097656 167.058594 112.082031 167.097656 C 112.0625 167.058594 112.054688 167.035156 112.054688 167.035156 L 112.054688 167.160156 C 111.457031 168.695312 104.558594 185.28125 86.992188 185.28125 C 86.992188 185.28125 101.125 191.042969 112.082031 182.863281 "/>
<path style=" stroke:none;fill-rule:nonzero;fill:rgb(93.328857%,50.19989%,43.139648%);fill-opacity:1;" d="M 112.105469 189.675781 L 112.105469 189.550781 C 112.105469 189.550781 112.097656 189.574219 112.082031 189.613281 C 112.0625 189.574219 112.054688 189.550781 112.054688 189.550781 L 112.054688 189.675781 C 111.457031 191.207031 104.558594 207.792969 86.992188 207.792969 C 86.992188 207.792969 101.125 213.554688 112.082031 205.378906 C 123.035156 213.554688 137.167969 207.792969 137.167969 207.792969 C 119.601562 207.792969 112.703125 191.207031 112.105469 189.675781 "/>
<path style=" stroke:none;fill-rule:nonzero;fill:rgb(93.328857%,50.19989%,43.139648%);fill-opacity:1;" d="M 126.632812 58.847656 C 126.632812 58.847656 119.023438 62.574219 112.082031 62.582031 C 105.136719 62.574219 97.527344 58.847656 97.527344 58.847656 C 86.878906 53.242188 73.597656 56.484375 73.597656 56.484375 C 86.734375 59.375 92.851562 68.679688 92.851562 68.679688 L 101.777344 68.679688 C 104.070312 68.820312 108.441406 69.664062 111.324219 73.785156 C 111.960938 74.699219 113.347656 74.699219 113.988281 73.785156 C 116.867188 69.664062 121.238281 68.820312 123.535156 68.679688 L 131.308594 68.679688 C 131.308594 68.679688 137.425781 59.375 150.5625 56.484375 C 150.5625 56.484375 137.28125 53.242188 126.632812 58.847656 "/>
<path style=" stroke:none;fill-rule:nonzero;fill:rgb(93.328857%,50.19989%,43.139648%);fill-opacity:1;" d="M 198.914062 95.40625 C 198.914062 95.40625 198.816406 95.984375 198.582031 96.996094 C 198.558594 97.105469 198.527344 97.207031 198.484375 97.308594 C 195.980469 103.496094 186.835938 122.640625 169.660156 122.640625 C 149.175781 122.640625 137.457031 122.640625 137.457031 122.640625 C 137.457031 122.640625 124.3125 122.640625 115.625 109.546875 C 114 107.097656 110.449219 107.097656 108.828125 109.546875 C 100.136719 122.640625 86.992188 122.640625 86.992188 122.640625 C 86.992188 122.640625 75.273438 122.640625 54.789062 122.640625 C 34.304688 122.640625 25.246094 95.40625 25.246094 95.40625 C 25.085938 101.449219 25.523438 106.734375 26.410156 111.351562 C 29.9375 129.808594 46.191406 143.101562 65.011719 143.101562 L 81.511719 143.101562 C 96.992188 143.101562 105.09375 138.164062 109.003906 134.421875 C 110.726562 132.777344 113.433594 132.777344 115.152344 134.421875 C 119.066406 138.164062 127.167969 143.101562 142.648438 143.101562 L 159.210938 143.101562 C 177.949219 143.101562 194.144531 129.898438 197.71875 111.535156 C 198.558594 107.199219 199.003906 102.261719 198.933594 96.664062 C 198.957031 95.972656 198.921875 95.667969 198.914062 95.40625 "/>
<path style=" stroke:none;fill-rule:nonzero;fill:rgb(100%,100%,100%);fill-opacity:1;" d="M 92.742188 174.210938 C 91.464844 175.292969 89.519531 174.257812 89.679688 172.589844 C 89.796875 171.371094 90.070312 170.074219 90.636719 169.054688 C 91.378906 167.710938 93.328125 167.351562 95.125 167.339844 C 96.742188 167.324219 97.636719 169.203125 96.574219 170.425781 C 95.609375 171.535156 94.328125 172.867188 92.742188 174.210938 "/>
<path style=" stroke:none;fill-rule:nonzero;fill:rgb(100%,100%,100%);fill-opacity:1;" d="M 123.058594 172.820312 C 121.78125 173.90625 119.835938 172.867188 119.996094 171.199219 C 120.117188 169.980469 120.386719 168.6875 120.953125 167.664062 C 121.695312 166.320312 123.644531 165.960938 125.441406 165.949219 C 127.0625 165.9375 127.957031 167.816406 126.890625 169.035156 C 125.925781 170.144531 124.644531 171.480469 123.058594 172.820312 "/>
<path style=" stroke:none;fill-rule:nonzero;fill:rgb(100%,100%,100%);fill-opacity:1;" d="M 92.742188 199.996094 C 91.464844 201.082031 89.519531 200.039062 89.679688 198.375 C 89.796875 197.152344 90.070312 195.863281 90.636719 194.839844 C 91.378906 193.496094 93.328125 193.140625 95.125 193.121094 C 96.742188 193.109375 97.636719 194.988281 96.574219 196.210938 C 95.609375 197.320312 94.328125 198.652344 92.742188 199.996094 "/>
<path style=" stroke:none;fill-rule:nonzero;fill:rgb(100%,100%,100%);fill-opacity:1;" d="M 123.058594 198.609375 C 121.78125 199.691406 119.835938 198.652344 119.996094 196.984375 C 120.117188 195.765625 120.386719 194.472656 120.953125 193.449219 C 121.695312 192.105469 123.644531 191.75 125.441406 191.734375 C 127.0625 191.722656 127.957031 193.601562 126.890625 194.820312 C 125.925781 195.929688 124.644531 197.261719 123.058594 198.609375 "/>
<path style=" stroke:none;fill-rule:nonzero;fill:rgb(100%,100%,100%);fill-opacity:1;" d="M 38.101562 95.769531 C 38.273438 92.15625 39.097656 86.933594 41.878906 81.238281 C 44.898438 75.046875 50.4375 70.382812 57.121094 68.667969 C 58.503906 68.3125 60.011719 68.027344 61.632812 67.863281 C 63.179688 67.703125 63.765625 69.832031 62.34375 70.457031 C 55.738281 73.367188 47.703125 80.203125 46.972656 96.21875 C 46.871094 98.414062 45.136719 100.183594 42.945312 100.386719 C 40.261719 100.632812 37.972656 98.457031 38.101562 95.769531 "/>
<path style=" stroke:none;fill-rule:nonzero;fill:rgb(100%,100%,100%);fill-opacity:1;" d="M 125.511719 102.386719 C 125.683594 98.773438 126.511719 93.550781 129.289062 87.855469 C 132.308594 81.660156 137.847656 77 144.53125 75.285156 C 145.917969 74.929688 147.421875 74.648438 149.042969 74.480469 C 150.589844 74.320312 151.179688 76.449219 149.753906 77.074219 C 143.148438 79.984375 135.113281 86.816406 134.382812 102.835938 C 134.28125 105.03125 132.546875 106.800781 130.355469 107.003906 C 127.671875 107.25 125.382812 105.074219 125.511719 102.386719 "/>
<path style=" stroke:none;fill-rule:nonzero;fill:rgb(100%,100%,100%);fill-opacity:1;" d="M 47.734375 108.453125 C 47.734375 110.785156 45.839844 112.675781 43.503906 112.675781 C 41.167969 112.675781 39.273438 110.785156 39.273438 108.453125 C 39.273438 106.121094 41.167969 104.230469 43.503906 104.230469 C 45.839844 104.230469 47.734375 106.121094 47.734375 108.453125 "/>
<path style=" stroke:none;fill-rule:nonzero;fill:rgb(100%,100%,100%);fill-opacity:1;" d="M 9.089844 64.707031 C 10.09375 67.117188 13.269531 67.632812 15 65.675781 C 17.953125 62.34375 22.945312 58.035156 30.613281 55.257812 C 32.300781 54.644531 31.871094 52.132812 30.070312 52.128906 C 24.667969 52.113281 17.128906 53.730469 9.894531 60.820312 C 8.863281 61.835938 8.535156 63.371094 9.089844 64.707031 "/>
<path style=" stroke:none;fill-rule:nonzero;fill:rgb(100%,100%,100%);fill-opacity:1;" d="M 47.4375 46.90625 C 48.667969 49.210938 51.878906 49.421875 53.414062 47.3125 C 56.03125 43.710938 60.585938 38.949219 67.953125 35.449219 C 69.578125 34.679688 68.90625 32.21875 67.117188 32.386719 C 61.738281 32.886719 54.390625 35.214844 47.867188 42.964844 C 46.933594 44.070312 46.757812 45.628906 47.4375 46.90625 "/>
<path style=" stroke:none;fill-rule:nonzero;fill:rgb(100%,100%,100%);fill-opacity:1;" d="M 156.667969 34.40625 C 155.082031 36.480469 156.230469 39.484375 158.792969 39.996094 C 163.160156 40.871094 169.398438 43.019531 175.652344 48.25 C 177.03125 49.402344 178.988281 47.769531 178.089844 46.210938 C 175.394531 41.539062 170.214844 35.839844 160.4375 33.148438 C 159.042969 32.765625 157.546875 33.253906 156.667969 34.40625 "/>
<g clip-path="url(#clip1)" clip-rule="nonzero">
<path style=" stroke:none;fill-rule:nonzero;fill:rgb(18.03894%,17.649841%,17.649841%);fill-opacity:1;" d="M 154.601562 26.054688 C 164.125 26.054688 178.339844 30.734375 187.0625 43.917969 C 187.6875 44.863281 188.828125 45.324219 189.933594 45.085938 C 190.128906 45.042969 209.515625 40.996094 219.398438 54.914062 C 219.933594 55.667969 220.777344 56.070312 221.636719 56.070312 C 222.179688 56.070312 222.734375 55.90625 223.214844 55.566406 C 224.453125 54.695312 224.742188 52.984375 223.867188 51.753906 C 213.761719 37.515625 196.332031 38.617188 190.613281 39.421875 C 180.628906 25.554688 165.117188 20.585938 154.601562 20.585938 C 153.089844 20.585938 151.859375 21.808594 151.859375 23.320312 C 151.859375 24.832031 153.089844 26.054688 154.601562 26.054688 "/>
</g>
<g clip-path="url(#clip2)" clip-rule="nonzero">
<path style=" stroke:none;fill-rule:nonzero;fill:rgb(18.03894%,17.649841%,17.649841%);fill-opacity:1;" d="M 164.1875 221.902344 C 164.1875 223.410156 165.417969 224.636719 166.929688 224.636719 L 170.328125 224.636719 C 179.011719 224.636719 186.109375 217.835938 186.476562 209.152344 C 187.15625 193.269531 189.25 175.949219 189.875 171.015625 C 194.289062 168.53125 198.273438 165.203125 201.730469 161.105469 C 202.703125 159.949219 202.554688 158.222656 201.398438 157.25 C 200.242188 156.277344 198.511719 156.425781 197.539062 157.582031 C 194.21875 161.519531 190.359375 164.636719 186.078125 166.847656 C 185.28125 167.257812 184.738281 168.03125 184.621094 168.914062 C 184.589844 169.125 181.8125 190.007812 181.003906 208.921875 C 180.757812 214.664062 176.070312 219.164062 170.328125 219.164062 L 166.929688 219.164062 C 165.417969 219.164062 164.1875 220.390625 164.1875 221.902344 "/>
</g>
<g clip-path="url(#clip3)" clip-rule="nonzero">
<path style=" stroke:none;fill-rule:nonzero;fill:rgb(18.03894%,17.649841%,17.649841%);fill-opacity:1;" d="M 141.648438 36.78125 C 143.160156 36.78125 144.386719 35.558594 144.386719 34.046875 L 144.386719 3.453125 C 144.386719 1.941406 143.160156 0.714844 141.648438 0.714844 C 140.132812 0.714844 138.90625 1.941406 138.90625 3.453125 L 138.90625 34.046875 C 138.90625 35.558594 140.132812 36.78125 141.648438 36.78125 "/>
</g>
<path style=" stroke:none;fill-rule:nonzero;fill:rgb(18.03894%,17.649841%,17.649841%);fill-opacity:1;" d="M 129.859375 65.691406 C 127.796875 65.398438 124.265625 65.144531 120.726562 66.027344 C 119.257812 66.390625 118.363281 67.875 118.730469 69.339844 C 119.039062 70.585938 120.15625 71.417969 121.386719 71.417969 C 121.605469 71.417969 121.828125 71.390625 122.050781 71.332031 C 126.082031 70.332031 130.34375 71.328125 130.378906 71.335938 C 131.480469 71.605469 132.628906 71.171875 133.277344 70.25 C 139.28125 61.683594 151.644531 59.199219 151.800781 59.171875 C 153.285156 58.886719 154.257812 57.457031 153.976562 55.972656 C 153.695312 54.488281 152.25 53.515625 150.773438 53.796875 C 150.203125 53.90625 137.386719 56.4375 129.859375 65.691406 "/>
<g clip-path="url(#clip4)" clip-rule="nonzero">
<path style=" stroke:none;fill-rule:nonzero;fill:rgb(18.03894%,17.649841%,17.649841%);fill-opacity:1;" d="M 204.855469 134.65625 C 203.339844 134.574219 202.046875 135.714844 201.957031 137.222656 C 201.511719 144.625 203.523438 149.46875 203.707031 149.890625 C 208.183594 161.511719 219.398438 170.976562 219.875 171.375 C 220.386719 171.804688 221.011719 172.011719 221.628906 172.011719 C 222.414062 172.011719 223.191406 171.679688 223.734375 171.03125 C 224.707031 169.875 224.550781 168.148438 223.390625 167.179688 C 223.285156 167.089844 212.738281 158.195312 208.785156 147.847656 C 208.777344 147.824219 208.765625 147.804688 208.753906 147.785156 C 208.746094 147.761719 208.742188 147.738281 208.734375 147.714844 C 208.71875 147.679688 207.054688 143.726562 207.425781 137.550781 C 207.515625 136.042969 206.367188 134.746094 204.855469 134.65625 "/>
</g>
<path style=" stroke:none;fill-rule:nonzero;fill:rgb(18.03894%,17.649841%,17.649841%);fill-opacity:1;" d="M 183.824219 152.828125 C 184.5 151.484375 183.957031 149.863281 182.617188 149.179688 C 181.277344 148.496094 179.632812 149.03125 178.933594 150.363281 C 178.738281 150.734375 173.976562 159.515625 158.804688 159.515625 C 157.292969 159.515625 156.066406 160.742188 156.066406 162.25 C 156.066406 163.761719 157.292969 164.984375 158.804688 164.984375 C 177.523438 164.984375 183.578125 153.324219 183.824219 152.828125 "/>
<path style=" stroke:none;fill-rule:nonzero;fill:rgb(18.03894%,17.649841%,17.649841%);fill-opacity:1;" d="M 152.335938 178.589844 C 152.285156 180.097656 153.46875 181.363281 154.980469 181.410156 C 155.257812 181.421875 155.527344 181.425781 155.800781 181.425781 C 167.597656 181.425781 172.308594 172.886719 172.507812 172.515625 C 173.21875 171.183594 172.714844 169.523438 171.382812 168.8125 C 170.042969 168.101562 168.386719 168.605469 167.675781 169.9375 C 167.640625 170 164.199219 176.246094 155.160156 175.945312 C 153.621094 175.890625 152.382812 177.078125 152.335938 178.589844 "/>
<path style=" stroke:none;fill-rule:nonzero;fill:rgb(18.03894%,17.649841%,17.649841%);fill-opacity:1;" d="M 138.925781 185.160156 C 138.433594 183.730469 136.878906 182.96875 135.449219 183.453125 C 135.367188 183.484375 127.304688 186.144531 119.453125 182.769531 C 118.066406 182.171875 116.453125 182.8125 115.855469 184.199219 C 115.257812 185.585938 115.898438 187.191406 117.285156 187.792969 C 121.132812 189.445312 124.957031 189.957031 128.210938 189.957031 C 133.285156 189.957031 136.984375 188.710938 137.230469 188.628906 C 138.65625 188.136719 139.410156 186.585938 138.925781 185.160156 "/>
<path style=" stroke:none;fill-rule:nonzero;fill:rgb(18.03894%,17.649841%,17.649841%);fill-opacity:1;" d="M 135.449219 205.90625 C 135.367188 205.9375 127.300781 208.597656 119.453125 205.21875 C 118.066406 204.625 116.453125 205.261719 115.855469 206.652344 C 115.257812 208.039062 115.898438 209.648438 117.285156 210.246094 C 121.132812 211.898438 124.957031 212.410156 128.210938 212.410156 C 133.285156 212.410156 136.984375 211.167969 137.230469 211.082031 C 138.65625 210.589844 139.410156 209.039062 138.925781 207.613281 C 138.433594 206.1875 136.878906 205.421875 135.449219 205.90625 "/>
<path style=" stroke:none;fill-rule:nonzero;fill:rgb(18.03894%,17.649841%,17.649841%);fill-opacity:1;" d="M 1.664062 55.566406 C 2.144531 55.90625 2.695312 56.070312 3.246094 56.070312 C 4.101562 56.070312 4.949219 55.667969 5.484375 54.914062 C 15.316406 41.058594 34.757812 45.042969 34.945312 45.085938 C 36.050781 45.324219 37.195312 44.863281 37.816406 43.917969 C 46.539062 30.734375 60.753906 26.054688 70.28125 26.054688 C 71.792969 26.054688 73.019531 24.832031 73.019531 23.320312 C 73.019531 21.808594 71.792969 20.585938 70.28125 20.585938 C 59.761719 20.585938 44.253906 25.554688 34.265625 39.421875 C 28.546875 38.617188 11.117188 37.515625 1.011719 51.753906 C 0.136719 52.984375 0.429688 54.695312 1.664062 55.566406 "/>
<g clip-path="url(#clip5)" clip-rule="nonzero">
<path style=" stroke:none;fill-rule:nonzero;fill:rgb(18.03894%,17.649841%,17.649841%);fill-opacity:1;" d="M 38.402344 209.152344 C 38.773438 217.835938 45.867188 224.636719 54.554688 224.636719 L 57.953125 224.636719 C 59.464844 224.636719 60.691406 223.410156 60.691406 221.902344 C 60.691406 220.390625 59.464844 219.164062 57.953125 219.164062 L 54.554688 219.164062 C 48.8125 219.164062 44.121094 214.664062 43.878906 208.921875 C 43.066406 190.007812 40.289062 169.125 40.261719 168.914062 C 40.140625 168.03125 39.597656 167.257812 38.804688 166.847656 C 34.519531 164.636719 30.664062 161.519531 27.339844 157.582031 C 26.367188 156.425781 24.636719 156.277344 23.480469 157.25 C 22.324219 158.222656 22.175781 159.949219 23.152344 161.105469 C 26.609375 165.203125 30.589844 168.53125 35.007812 171.015625 C 35.628906 175.949219 37.722656 193.261719 38.402344 209.152344 "/>
</g>
<path style=" stroke:none;fill-rule:nonzero;fill:rgb(18.03894%,17.649841%,17.649841%);fill-opacity:1;" d="M 21.183594 149.867188 C 21.410156 149.335938 23.363281 144.523438 22.925781 137.222656 C 22.835938 135.714844 21.523438 134.574219 20.027344 134.65625 C 18.515625 134.746094 17.363281 136.042969 17.453125 137.550781 C 17.824219 143.679688 16.179688 147.632812 16.140625 147.726562 C 16.132812 147.746094 16.128906 147.765625 16.121094 147.789062 C 16.113281 147.808594 16.101562 147.824219 16.09375 147.847656 C 12.152344 158.164062 1.59375 167.09375 1.488281 167.183594 C 0.328125 168.152344 0.175781 169.875 1.144531 171.03125 C 1.6875 171.679688 2.46875 172.011719 3.25 172.011719 C 3.867188 172.011719 4.492188 171.804688 5.003906 171.375 C 5.484375 170.976562 16.710938 161.5 21.183594 149.867188 "/>
<g clip-path="url(#clip6)" clip-rule="nonzero">
<path style=" stroke:none;fill-rule:nonzero;fill:rgb(18.03894%,17.649841%,17.649841%);fill-opacity:1;" d="M 83.234375 36.78125 C 84.746094 36.78125 85.972656 35.558594 85.972656 34.046875 L 85.972656 3.453125 C 85.972656 1.941406 84.746094 0.714844 83.234375 0.714844 C 81.71875 0.714844 80.492188 1.941406 80.492188 3.453125 L 80.492188 34.046875 C 80.492188 35.558594 81.71875 36.78125 83.234375 36.78125 "/>
</g>
<path style=" stroke:none;fill-rule:nonzero;fill:rgb(18.03894%,17.649841%,17.649841%);fill-opacity:1;" d="M 70.90625 55.96875 C 70.621094 57.453125 71.59375 58.882812 73.082031 59.171875 C 73.203125 59.195312 85.59375 61.675781 91.601562 70.25 C 92.25 71.167969 93.398438 71.597656 94.492188 71.335938 C 94.535156 71.328125 98.796875 70.332031 102.832031 71.332031 C 103.050781 71.390625 103.273438 71.417969 103.496094 71.417969 C 104.722656 71.417969 105.839844 70.585938 106.152344 69.339844 C 106.515625 67.875 105.621094 66.390625 104.152344 66.027344 C 100.613281 65.144531 97.082031 65.398438 95.019531 65.691406 C 87.492188 56.4375 74.675781 53.90625 74.109375 53.796875 C 72.628906 53.515625 71.191406 54.488281 70.90625 55.96875 "/>
<path style=" stroke:none;fill-rule:nonzero;fill:rgb(18.03894%,17.649841%,17.649841%);fill-opacity:1;" d="M 111.96875 96.488281 C 110.457031 96.488281 109.230469 97.710938 109.230469 99.222656 L 109.230469 110.851562 C 107.207031 115.84375 104.289062 120.257812 100.773438 123.636719 C 96.089844 128.128906 92.03125 130.6875 84.007812 131.328125 C 73.824219 132.140625 66.804688 131.78125 59.398438 130.992188 C 52.808594 130.289062 46.730469 127.402344 42.292969 122.863281 C 30.792969 111.105469 28 95.257812 27.953125 94.964844 C 27.707031 93.472656 26.300781 92.457031 24.804688 92.707031 C 23.308594 92.953125 22.296875 94.359375 22.542969 95.847656 C 22.660156 96.566406 25.582031 113.605469 38.371094 126.683594 C 43.699219 132.132812 50.960938 135.59375 58.816406 136.433594 C 63.46875 136.929688 67.972656 137.261719 73.144531 137.261719 C 76.546875 137.261719 80.234375 137.117188 84.445312 136.78125 C 94.015625 136.015625 99.242188 132.691406 104.570312 127.578125 C 107.523438 124.742188 110.089844 121.292969 112.164062 117.4375 C 114.21875 120.941406 116.933594 124.335938 120.308594 127.578125 C 125.636719 132.691406 130.863281 136.015625 140.4375 136.78125 C 144.644531 137.117188 148.335938 137.261719 151.738281 137.261719 C 156.90625 137.261719 161.410156 136.929688 166.0625 136.433594 C 173.917969 135.59375 181.179688 132.132812 186.507812 126.683594 C 199.296875 113.605469 202.21875 96.566406 202.335938 95.847656 C 202.582031 94.359375 201.570312 92.953125 200.078125 92.707031 C 198.578125 92.457031 197.175781 93.472656 196.929688 94.964844 C 196.902344 95.121094 194.183594 111.007812 182.589844 122.863281 C 178.148438 127.402344 172.070312 130.289062 165.484375 130.992188 C 158.074219 131.78125 151.054688 132.140625 140.875 131.328125 C 132.847656 130.6875 128.789062 128.128906 124.109375 123.636719 C 119.699219 119.402344 116.5625 114.945312 114.777344 110.378906 C 114.757812 110.332031 114.730469 110.292969 114.710938 110.246094 L 114.710938 99.222656 C 114.710938 97.710938 113.484375 96.488281 111.96875 96.488281 "/>
<path style=" stroke:none;fill-rule:nonzero;fill:rgb(18.03894%,17.649841%,17.649841%);fill-opacity:1;" d="M 66.074219 164.984375 C 67.589844 164.984375 68.816406 163.761719 68.816406 162.25 C 68.816406 160.742188 67.589844 159.515625 66.074219 159.515625 C 50.933594 159.515625 46.160156 150.773438 45.945312 150.363281 C 45.261719 149.023438 43.625 148.484375 42.28125 149.160156 C 40.925781 149.835938 40.378906 151.476562 41.054688 152.828125 C 41.300781 153.324219 47.359375 164.984375 66.074219 164.984375 "/>
<path style=" stroke:none;fill-rule:nonzero;fill:rgb(18.03894%,17.649841%,17.649841%);fill-opacity:1;" d="M 69.082031 181.425781 C 69.347656 181.425781 69.621094 181.421875 69.898438 181.410156 C 71.410156 181.363281 72.597656 180.097656 72.546875 178.589844 C 72.496094 177.078125 71.21875 175.902344 69.71875 175.945312 C 60.820312 176.246094 57.363281 170.214844 57.199219 169.921875 C 56.480469 168.601562 54.828125 168.105469 53.5 168.8125 C 52.164062 169.523438 51.660156 171.183594 52.375 172.515625 C 52.574219 172.886719 57.277344 181.425781 69.082031 181.425781 "/>
<g clip-path="url(#clip7)" clip-rule="nonzero">
<path style=" stroke:none;fill-rule:nonzero;fill:rgb(18.03894%,17.649841%,17.649841%);fill-opacity:1;" d="M 69.808594 224.636719 L 155.070312 224.636719 C 156.585938 224.636719 157.8125 223.410156 157.8125 221.902344 L 157.8125 201.589844 C 157.8125 199.828125 158.65625 198.140625 160.066406 197.078125 C 163.792969 194.265625 166.1875 191.296875 166.289062 191.171875 C 167.234375 189.992188 167.042969 188.269531 165.863281 187.328125 C 164.679688 186.382812 162.957031 186.574219 162.011719 187.753906 C 161.992188 187.777344 159.945312 190.308594 156.761719 192.714844 C 153.988281 194.808594 152.332031 198.125 152.332031 201.589844 L 152.332031 219.164062 L 72.546875 219.164062 L 72.546875 201.589844 C 72.546875 198.125 70.890625 194.808594 68.117188 192.714844 C 64.976562 190.34375 62.902344 187.796875 62.863281 187.75 C 61.921875 186.574219 60.195312 186.382812 59.019531 187.328125 C 57.835938 188.269531 57.644531 189.992188 58.589844 191.171875 C 58.691406 191.296875 61.089844 194.265625 64.8125 197.078125 C 66.226562 198.140625 67.066406 199.828125 67.066406 201.589844 L 67.066406 221.902344 C 67.066406 223.410156 68.292969 224.636719 69.808594 224.636719 "/>
</g>
<path style=" stroke:none;fill-rule:nonzero;fill:rgb(18.03894%,17.649841%,17.649841%);fill-opacity:1;" d="M 121.15625 155.636719 C 127.492188 163.28125 134.589844 163.640625 134.886719 163.652344 C 134.925781 163.652344 134.960938 163.652344 134.996094 163.652344 C 136.460938 163.652344 137.675781 162.496094 137.730469 161.023438 C 137.789062 159.515625 136.613281 158.242188 135.101562 158.1875 C 135.050781 158.183594 130.09375 157.839844 125.378906 152.152344 C 119.328125 144.855469 113.320312 144.578125 112.222656 144.597656 C 111.117188 144.585938 105.121094 144.855469 99.070312 152.152344 C 94.410156 157.777344 89.582031 158.171875 89.324219 158.1875 C 87.824219 158.257812 86.660156 159.523438 86.71875 161.023438 C 86.777344 162.535156 88.070312 163.703125 89.5625 163.652344 C 89.863281 163.640625 96.957031 163.28125 103.292969 155.636719 C 107.867188 150.121094 111.988281 150.066406 112.109375 150.066406 C 112.1875 150.070312 112.261719 150.070312 112.339844 150.066406 C 112.355469 150.066406 116.585938 150.121094 121.15625 155.636719 "/>
<path style=" stroke:none;fill-rule:nonzero;fill:rgb(18.03894%,17.649841%,17.649841%);fill-opacity:1;" d="M 109.027344 184.199219 C 108.425781 182.808594 106.8125 182.167969 105.425781 182.769531 C 97.609375 186.128906 89.574219 183.503906 89.433594 183.457031 C 88.003906 182.96875 86.449219 183.722656 85.957031 185.148438 C 85.460938 186.578125 86.21875 188.132812 87.648438 188.628906 C 87.894531 188.710938 91.59375 189.957031 96.671875 189.957031 C 99.925781 189.957031 103.746094 189.445312 107.59375 187.792969 C 108.984375 187.191406 109.625 185.585938 109.027344 184.199219 "/>
<path style=" stroke:none;fill-rule:nonzero;fill:rgb(18.03894%,17.649841%,17.649841%);fill-opacity:1;" d="M 105.425781 205.21875 C 97.578125 208.597656 89.511719 205.9375 89.433594 205.90625 C 88.003906 205.421875 86.449219 206.179688 85.957031 207.601562 C 85.460938 209.03125 86.21875 210.589844 87.648438 211.082031 C 87.894531 211.167969 91.59375 212.410156 96.671875 212.410156 C 99.925781 212.410156 103.746094 211.898438 107.59375 210.246094 C 108.984375 209.648438 109.625 208.039062 109.027344 206.652344 C 108.425781 205.261719 106.8125 204.625 105.425781 205.21875 "/>
<path style=" stroke:none;fill-rule:nonzero;fill:rgb(18.03894%,17.649841%,17.649841%);fill-opacity:1;" d="M 125.683594 27.300781 C 126.042969 27.457031 126.417969 27.535156 126.789062 27.535156 C 127.839844 27.535156 128.84375 26.925781 129.296875 25.90625 C 130.085938 24.117188 130.867188 22.121094 131.621094 19.976562 C 132.117188 18.550781 131.367188 16.988281 129.9375 16.488281 C 128.507812 15.992188 126.945312 16.742188 126.449219 18.167969 C 125.746094 20.179688 125.015625 22.039062 124.28125 23.695312 C 123.671875 25.078125 124.300781 26.691406 125.683594 27.300781 "/>
<path style=" stroke:none;fill-rule:nonzero;fill:rgb(18.03894%,17.649841%,17.649841%);fill-opacity:1;" d="M 110.15625 39.5625 C 111.097656 40.332031 112.679688 41.074219 114.625 41.074219 C 116.785156 41.074219 119.394531 40.160156 122.078125 37.351562 C 123.121094 36.257812 123.082031 34.527344 121.984375 33.484375 C 120.890625 32.445312 119.15625 32.484375 118.113281 33.578125 C 115.519531 36.292969 113.988281 35.5625 113.613281 35.3125 C 113.527344 35.226562 113.53125 35.242188 113.402344 35.15625 C 99.828125 25.664062 96.882812 6.914062 96.855469 6.722656 C 96.632812 5.234375 95.246094 4.199219 93.746094 4.417969 C 92.25 4.636719 91.214844 6.027344 91.433594 7.523438 C 91.5625 8.382812 94.707031 28.683594 110.15625 39.5625 "/>
<path style=" stroke:none;fill-rule:nonzero;fill:rgb(18.03894%,17.649841%,17.649841%);fill-opacity:1;" d="M 114.84375 167.035156 C 114.84375 165.523438 113.617188 164.300781 112.105469 164.300781 C 110.589844 164.300781 109.367188 165.523438 109.367188 167.035156 L 109.367188 174.957031 C 109.367188 176.46875 110.589844 177.691406 112.105469 177.691406 C 113.617188 177.691406 114.84375 176.46875 114.84375 174.957031 L 114.84375 167.035156 "/>
<path style=" stroke:none;fill-rule:nonzero;fill:rgb(18.03894%,17.649841%,17.649841%);fill-opacity:1;" d="M 112.105469 189 C 110.589844 189 109.367188 190.222656 109.367188 191.734375 L 109.367188 199.65625 C 109.367188 201.167969 110.589844 202.394531 112.105469 202.394531 C 113.617188 202.394531 114.84375 201.167969 114.84375 199.65625 L 114.84375 191.734375 C 114.84375 190.222656 113.617188 189 112.105469 189 "/>
<g clip-path="url(#clip8)" clip-rule="nonzero">
<path style=" stroke:none;fill-rule:nonzero;fill:rgb(67.449951%,53.729248%,79.60968%);fill-opacity:1;" d="M 15.261719 243.765625 L 10.910156 239.84375 C 10.773438 239.722656 10.761719 239.511719 10.886719 239.375 L 20.992188 228.152344 C 21.113281 228.019531 21.324219 228.007812 21.460938 228.128906 L 25.8125 232.054688 C 25.945312 232.175781 25.957031 232.386719 25.835938 232.523438 L 15.730469 243.742188 C 15.605469 243.878906 15.394531 243.890625 15.261719 243.765625 "/>
</g>
<g clip-path="url(#clip9)" clip-rule="nonzero">
<path style=" stroke:none;fill-rule:nonzero;fill:rgb(13.729858%,12.159729%,12.548828%);fill-opacity:1;" d="M 12.839844 237.613281 L 16.949219 241.320312 L 26.839844 230.339844 L 22.730469 226.628906 Z M 16.960938 242.371094 C 16.765625 242.371094 16.566406 242.300781 16.410156 242.160156 L 12.058594 238.238281 C 11.722656 237.929688 11.695312 237.40625 12 237.070312 L 22.105469 225.847656 C 22.410156 225.511719 22.929688 225.484375 23.269531 225.789062 L 27.621094 229.714844 C 27.957031 230.019531 27.984375 230.542969 27.679688 230.878906 L 17.574219 242.097656 C 17.414062 242.28125 17.1875 242.371094 16.960938 242.371094 "/>
</g>
<path style=" stroke:none;fill-rule:nonzero;fill:rgb(67.449951%,53.729248%,79.60968%);fill-opacity:1;" d="M 75.808594 298.378906 L 71.460938 294.457031 C 71.324219 294.332031 71.3125 294.121094 71.433594 293.988281 L 81.542969 282.765625 C 81.664062 282.628906 81.875 282.617188 82.011719 282.742188 L 86.363281 286.664062 C 86.496094 286.789062 86.507812 287 86.386719 287.132812 L 76.28125 298.355469 C 76.15625 298.492188 75.945312 298.503906 75.808594 298.378906 "/>
<g clip-path="url(#clip10)" clip-rule="nonzero">
<path style=" stroke:none;fill-rule:nonzero;fill:rgb(13.729858%,12.159729%,12.548828%);fill-opacity:1;" d="M 73.386719 292.222656 L 77.5 295.933594 L 87.390625 284.949219 L 83.28125 281.242188 Z M 77.511719 296.984375 C 77.316406 296.984375 77.117188 296.914062 76.960938 296.773438 L 72.609375 292.847656 C 72.269531 292.542969 72.246094 292.019531 72.546875 291.683594 L 82.65625 280.460938 C 82.960938 280.125 83.480469 280.097656 83.820312 280.402344 L 88.171875 284.324219 C 88.507812 284.632812 88.535156 285.152344 88.230469 285.492188 L 78.125 296.710938 C 77.960938 296.894531 77.738281 296.984375 77.511719 296.984375 "/>
</g>
<g clip-path="url(#clip11)" clip-rule="nonzero">
<path style=" stroke:none;fill-rule:nonzero;fill:rgb(67.449951%,53.729248%,79.60968%);fill-opacity:1;" d="M 70.414062 266.933594 L 65.4375 272.457031 L 37.132812 246.929688 L 42.109375 241.40625 C 43.453125 239.914062 43.335938 237.609375 41.84375 236.261719 L 33.292969 228.550781 C 31.800781 227.203125 29.5 227.324219 28.152344 228.820312 L 11.925781 246.835938 C 10.578125 248.332031 10.695312 250.632812 12.191406 251.980469 L 20.742188 259.691406 C 22.234375 261.039062 24.535156 260.917969 25.878906 259.425781 L 30.855469 253.898438 L 59.160156 279.425781 L 54.183594 284.953125 C 52.835938 286.445312 52.957031 288.75 54.449219 290.09375 L 63 297.808594 C 64.492188 299.152344 66.792969 299.035156 68.140625 297.539062 L 84.367188 279.523438 C 85.714844 278.027344 85.59375 275.722656 84.101562 274.378906 L 75.550781 266.667969 C 74.058594 265.320312 71.757812 265.441406 70.414062 266.933594 "/>
</g>
<g clip-path="url(#clip12)" clip-rule="nonzero">
<path style=" stroke:none;fill-rule:nonzero;fill:rgb(13.729858%,12.159729%,12.548828%);fill-opacity:1;" d="M 32.335938 251.433594 C 32.457031 251.433594 32.574219 251.476562 32.667969 251.558594 L 60.96875 277.085938 C 61.066406 277.175781 61.125 277.296875 61.128906 277.425781 C 61.136719 277.558594 61.09375 277.6875 61.003906 277.785156 L 56.027344 283.308594 C 55.464844 283.933594 55.179688 284.738281 55.222656 285.582031 C 55.265625 286.417969 55.632812 287.191406 56.257812 287.753906 L 64.808594 295.46875 C 66.097656 296.628906 68.089844 296.523438 69.253906 295.238281 L 85.480469 277.21875 C 86.644531 275.929688 86.539062 273.933594 85.25 272.769531 L 76.703125 265.058594 C 75.414062 263.898438 73.417969 264 72.257812 265.289062 L 67.28125 270.816406 C 67.101562 271.019531 66.785156 271.035156 66.585938 270.851562 L 38.28125 245.324219 C 38.183594 245.238281 38.125 245.113281 38.121094 244.984375 C 38.113281 244.851562 38.160156 244.722656 38.246094 244.628906 L 43.222656 239.101562 C 44.382812 237.8125 44.28125 235.816406 42.992188 234.65625 L 34.441406 226.945312 C 33.816406 226.382812 33.011719 226.09375 32.171875 226.136719 C 31.332031 226.183594 30.5625 226.550781 30 227.175781 L 13.769531 245.195312 C 13.207031 245.816406 12.921875 246.625 12.964844 247.464844 C 13.007812 248.304688 13.375 249.078125 14 249.640625 L 22.550781 257.351562 C 23.175781 257.914062 23.984375 258.199219 24.820312 258.15625 C 25.65625 258.113281 26.429688 257.746094 26.992188 257.121094 L 31.96875 251.59375 C 32.058594 251.5 32.179688 251.4375 32.3125 251.433594 Z M 66.914062 297.261719 C 65.925781 297.261719 64.9375 296.910156 64.148438 296.199219 L 55.597656 288.488281 C 54.777344 287.75 54.296875 286.734375 54.238281 285.632812 C 54.179688 284.527344 54.558594 283.46875 55.296875 282.648438 L 59.941406 277.488281 L 32.371094 252.621094 L 27.726562 257.78125 C 26.988281 258.601562 25.972656 259.085938 24.871094 259.140625 C 23.769531 259.199219 22.710938 258.824219 21.890625 258.085938 L 13.339844 250.371094 C 12.519531 249.632812 12.035156 248.617188 11.980469 247.515625 C 11.921875 246.414062 12.296875 245.351562 13.035156 244.53125 L 29.265625 226.515625 C 30.003906 225.691406 31.019531 225.210938 32.121094 225.152344 C 33.222656 225.097656 34.28125 225.472656 35.101562 226.210938 L 43.652344 233.921875 C 45.34375 235.449219 45.480469 238.070312 43.953125 239.761719 L 39.308594 244.921875 L 66.878906 269.789062 L 71.527344 264.628906 C 73.050781 262.9375 75.667969 262.800781 77.363281 264.328125 L 85.910156 272.039062 C 87.605469 273.566406 87.738281 276.183594 86.214844 277.878906 L 69.984375 295.898438 C 69.171875 296.800781 68.042969 297.261719 66.914062 297.261719 "/>
</g>
<path style=" stroke:none;fill-rule:nonzero;fill:rgb(100%,100%,100%);fill-opacity:1;" d="M 49.347656 258.621094 L 65.09375 272.820312 "/>
<path style=" stroke:none;fill-rule:nonzero;fill:rgb(13.729858%,12.159729%,12.548828%);fill-opacity:1;" d="M 65.089844 273.316406 C 64.972656 273.316406 64.855469 273.273438 64.761719 273.1875 L 49.019531 258.988281 C 48.816406 258.808594 48.800781 258.496094 48.980469 258.292969 C 49.164062 258.089844 49.476562 258.074219 49.679688 258.257812 L 65.421875 272.457031 C 65.625 272.636719 65.640625 272.949219 65.457031 273.152344 C 65.359375 273.261719 65.226562 273.316406 65.089844 273.316406 "/>
<path style=" stroke:none;fill-rule:nonzero;fill:rgb(100%,100%,100%);fill-opacity:1;" d="M 76.53125 268.042969 L 83.644531 274.457031 "/>
<path style=" stroke:none;fill-rule:nonzero;fill:rgb(13.729858%,12.159729%,12.548828%);fill-opacity:1;" d="M 83.644531 274.949219 C 83.527344 274.949219 83.410156 274.910156 83.316406 274.824219 L 76.203125 268.40625 C 76 268.226562 75.984375 267.914062 76.164062 267.710938 C 76.347656 267.507812 76.660156 267.492188 76.859375 267.675781 L 83.976562 274.089844 C 84.179688 274.273438 84.195312 274.585938 84.011719 274.789062 C 83.914062 274.894531 83.78125 274.949219 83.644531 274.949219 "/>
<path style=" stroke:none;fill-rule:nonzero;fill:rgb(100%,100%,100%);fill-opacity:1;" d="M 82.039062 276.851562 L 70.03125 290.179688 "/>
<path style=" stroke:none;fill-rule:nonzero;fill:rgb(13.729858%,12.159729%,12.548828%);fill-opacity:1;" d="M 70.03125 290.675781 C 69.914062 290.675781 69.796875 290.632812 69.703125 290.546875 C 69.5 290.363281 69.484375 290.054688 69.667969 289.851562 L 81.671875 276.519531 C 81.855469 276.316406 82.167969 276.304688 82.367188 276.484375 C 82.570312 276.667969 82.585938 276.980469 82.40625 277.183594 L 70.398438 290.511719 C 70.300781 290.621094 70.167969 290.675781 70.03125 290.675781 "/>
<path style=" stroke:none;fill-rule:nonzero;fill:rgb(100%,100%,100%);fill-opacity:1;" d="M 31.953125 229.203125 L 16.941406 245.867188 "/>
<path style=" stroke:none;fill-rule:nonzero;fill:rgb(13.729858%,12.159729%,12.548828%);fill-opacity:1;" d="M 16.941406 246.359375 C 16.824219 246.359375 16.707031 246.320312 16.613281 246.234375 C 16.410156 246.050781 16.394531 245.738281 16.578125 245.535156 L 31.585938 228.875 C 31.765625 228.671875 32.078125 228.65625 32.28125 228.835938 C 32.484375 229.019531 32.5 229.332031 32.316406 229.535156 L 17.308594 246.195312 C 17.210938 246.304688 17.078125 246.359375 16.941406 246.359375 "/>
<path style=" stroke:none;fill-rule:nonzero;fill:rgb(41.958618%,81.17981%,96.469116%);fill-opacity:1;" d="M 83.441406 244.589844 L 87.792969 240.664062 C 87.929688 240.542969 87.941406 240.332031 87.816406 240.195312 L 77.710938 228.976562 C 77.589844 228.839844 77.378906 228.828125 77.242188 228.953125 L 72.890625 232.875 C 72.753906 233 72.746094 233.210938 72.867188 233.34375 L 82.972656 244.566406 C 83.097656 244.703125 83.308594 244.710938 83.441406 244.589844 "/>
<g clip-path="url(#clip13)" clip-rule="nonzero">
<path style=" stroke:none;fill-rule:nonzero;fill:rgb(13.729858%,12.159729%,12.548828%);fill-opacity:1;" d="M 73.257812 230.339844 L 83.148438 241.320312 L 87.261719 237.613281 L 77.371094 226.628906 Z M 83.136719 242.371094 C 82.914062 242.371094 82.6875 242.28125 82.523438 242.097656 L 72.417969 230.878906 C 72.269531 230.714844 72.195312 230.503906 72.207031 230.285156 C 72.21875 230.0625 72.316406 229.859375 72.480469 229.714844 L 76.828125 225.789062 C 76.992188 225.640625 77.207031 225.566406 77.425781 225.578125 C 77.644531 225.589844 77.847656 225.6875 77.996094 225.847656 L 88.101562 237.070312 C 88.25 237.234375 88.324219 237.445312 88.3125 237.664062 C 88.300781 237.886719 88.203125 238.089844 88.042969 238.238281 L 83.691406 242.160156 C 83.535156 242.300781 83.335938 242.371094 83.136719 242.371094 "/>
</g>
<g clip-path="url(#clip14)" clip-rule="nonzero">
<path style=" stroke:none;fill-rule:nonzero;fill:rgb(41.958618%,81.17981%,96.469116%);fill-opacity:1;" d="M 22.894531 299.203125 L 27.242188 295.277344 C 27.378906 295.15625 27.390625 294.945312 27.265625 294.808594 L 17.160156 283.589844 C 17.039062 283.453125 16.828125 283.441406 16.691406 283.5625 L 12.34375 287.488281 C 12.207031 287.609375 12.195312 287.820312 12.316406 287.957031 L 22.421875 299.179688 C 22.546875 299.3125 22.757812 299.324219 22.894531 299.203125 "/>
</g>
<path style=" stroke:none;fill-rule:nonzero;fill:rgb(13.729858%,12.159729%,12.548828%);fill-opacity:1;" d="M 12.707031 284.949219 L 22.601562 295.933594 L 26.710938 292.222656 L 16.820312 281.242188 Z M 22.589844 296.984375 C 22.363281 296.984375 22.136719 296.894531 21.976562 296.710938 L 11.867188 285.492188 C 11.722656 285.328125 11.648438 285.117188 11.65625 284.894531 C 11.667969 284.675781 11.765625 284.472656 11.929688 284.324219 L 16.28125 280.402344 C 16.617188 280.097656 17.140625 280.125 17.445312 280.460938 L 27.550781 291.683594 C 27.855469 292.019531 27.828125 292.542969 27.492188 292.847656 L 23.140625 296.773438 C 22.984375 296.914062 22.785156 296.984375 22.589844 296.984375 "/>
<g clip-path="url(#clip15)" clip-rule="nonzero">
<path style=" stroke:none;fill-rule:nonzero;fill:rgb(41.958618%,81.17981%,96.469116%);fill-opacity:1;" d="M 28.289062 267.753906 L 33.265625 273.28125 L 61.570312 247.753906 L 56.59375 242.226562 C 55.246094 240.734375 55.367188 238.433594 56.859375 237.085938 L 65.410156 229.375 C 66.902344 228.027344 69.203125 228.148438 70.550781 229.640625 L 86.78125 247.660156 C 88.125 249.152344 88.003906 251.457031 86.511719 252.800781 L 77.964844 260.511719 C 76.46875 261.859375 74.167969 261.742188 72.824219 260.246094 L 67.847656 254.722656 L 39.542969 280.25 L 44.519531 285.773438 C 45.867188 287.269531 45.746094 289.570312 44.253906 290.917969 L 35.703125 298.628906 C 34.210938 299.976562 31.910156 299.855469 30.5625 298.363281 L 14.335938 280.34375 C 12.988281 278.851562 13.109375 276.546875 14.601562 275.203125 L 23.148438 267.488281 C 24.644531 266.140625 26.945312 266.261719 28.289062 267.753906 "/>
</g>
<g clip-path="url(#clip16)" clip-rule="nonzero">
<path style=" stroke:none;fill-rule:nonzero;fill:rgb(13.729858%,12.159729%,12.548828%);fill-opacity:1;" d="M 25.503906 264.25 C 24.753906 264.25 24 264.519531 23.398438 265.058594 L 14.847656 272.769531 C 14.226562 273.335938 13.855469 274.105469 13.8125 274.945312 C 13.769531 275.785156 14.054688 276.59375 14.617188 277.21875 L 30.847656 295.238281 C 32.007812 296.527344 34.003906 296.628906 35.292969 295.46875 L 43.839844 287.753906 C 44.464844 287.191406 44.832031 286.417969 44.875 285.582031 C 44.917969 284.738281 44.632812 283.933594 44.070312 283.308594 L 39.09375 277.785156 C 38.914062 277.582031 38.929688 277.269531 39.132812 277.085938 L 67.433594 251.558594 C 67.53125 251.472656 67.660156 251.425781 67.789062 251.433594 C 67.921875 251.4375 68.042969 251.5 68.128906 251.59375 L 73.105469 257.121094 C 74.269531 258.410156 76.261719 258.515625 77.550781 257.351562 L 86.101562 249.640625 C 87.390625 248.476562 87.492188 246.484375 86.332031 245.195312 L 70.101562 227.175781 C 69.539062 226.550781 68.765625 226.183594 67.925781 226.136719 C 67.089844 226.09375 66.28125 226.382812 65.65625 226.945312 L 57.109375 234.65625 C 55.820312 235.816406 55.714844 237.8125 56.878906 239.101562 L 61.855469 244.628906 C 62.035156 244.828125 62.019531 245.140625 61.816406 245.324219 L 33.515625 270.851562 C 33.3125 271.035156 33 271.019531 32.820312 270.816406 L 27.84375 265.289062 C 27.222656 264.601562 26.363281 264.25 25.503906 264.25 Z M 33.1875 297.261719 C 32.054688 297.261719 30.929688 296.800781 30.113281 295.898438 L 13.886719 277.878906 C 13.148438 277.058594 12.769531 276 12.828125 274.894531 C 12.886719 273.792969 13.367188 272.777344 14.1875 272.039062 L 22.738281 264.328125 C 24.429688 262.800781 27.046875 262.933594 28.574219 264.628906 L 33.222656 269.789062 L 60.792969 244.921875 L 56.144531 239.761719 C 54.621094 238.070312 54.753906 235.449219 56.449219 233.921875 L 64.996094 226.210938 C 65.816406 225.472656 66.875 225.097656 67.980469 225.152344 C 69.082031 225.210938 70.09375 225.691406 70.832031 226.515625 L 87.0625 244.53125 C 88.589844 246.226562 88.453125 248.847656 86.761719 250.371094 L 78.210938 258.085938 C 76.519531 259.609375 73.898438 259.476562 72.375 257.78125 L 67.726562 252.621094 L 40.15625 277.488281 L 44.804688 282.648438 C 45.542969 283.46875 45.917969 284.527344 45.863281 285.632812 C 45.804688 286.734375 45.320312 287.75 44.5 288.488281 L 35.949219 296.199219 C 35.164062 296.910156 34.171875 297.261719 33.1875 297.261719 "/>
</g>
<path style=" stroke:none;fill-rule:nonzero;fill:rgb(100%,100%,100%);fill-opacity:1;" d="M 50.753906 258.621094 L 35.007812 272.820312 "/>
<path style=" stroke:none;fill-rule:nonzero;fill:rgb(13.729858%,12.159729%,12.548828%);fill-opacity:1;" d="M 35.007812 273.316406 C 34.875 273.316406 34.738281 273.261719 34.640625 273.152344 C 34.460938 272.949219 34.476562 272.636719 34.679688 272.457031 L 50.421875 258.257812 C 50.621094 258.074219 50.9375 258.089844 51.117188 258.292969 C 51.300781 258.496094 51.285156 258.808594 51.082031 258.988281 L 35.339844 273.1875 C 35.242188 273.273438 35.125 273.316406 35.007812 273.316406 "/>
<path style=" stroke:none;fill-rule:nonzero;fill:rgb(100%,100%,100%);fill-opacity:1;" d="M 23.570312 268.042969 L 16.453125 274.457031 "/>
<path style=" stroke:none;fill-rule:nonzero;fill:rgb(13.729858%,12.159729%,12.548828%);fill-opacity:1;" d="M 16.453125 274.949219 C 16.320312 274.949219 16.183594 274.894531 16.089844 274.789062 C 15.90625 274.585938 15.921875 274.273438 16.125 274.089844 L 23.238281 267.675781 C 23.441406 267.492188 23.753906 267.507812 23.933594 267.710938 C 24.117188 267.914062 24.101562 268.226562 23.898438 268.40625 L 16.785156 274.824219 C 16.691406 274.910156 16.570312 274.949219 16.453125 274.949219 "/>
<path style=" stroke:none;fill-rule:nonzero;fill:rgb(100%,100%,100%);fill-opacity:1;" d="M 18.0625 276.851562 L 30.066406 290.179688 "/>
<path style=" stroke:none;fill-rule:nonzero;fill:rgb(13.729858%,12.159729%,12.548828%);fill-opacity:1;" d="M 30.066406 290.675781 C 29.933594 290.675781 29.800781 290.621094 29.703125 290.511719 L 17.695312 277.183594 C 17.511719 276.980469 17.527344 276.667969 17.730469 276.484375 C 17.933594 276.300781 18.246094 276.316406 18.425781 276.519531 L 30.433594 289.851562 C 30.617188 290.054688 30.601562 290.363281 30.398438 290.546875 C 30.304688 290.632812 30.183594 290.675781 30.066406 290.675781 "/>
<path style=" stroke:none;fill-rule:nonzero;fill:rgb(100%,100%,100%);fill-opacity:1;" d="M 68.148438 229.203125 L 83.15625 245.867188 "/>
<path style=" stroke:none;fill-rule:nonzero;fill:rgb(13.729858%,12.159729%,12.548828%);fill-opacity:1;" d="M 83.15625 246.359375 C 83.023438 246.359375 82.886719 246.304688 82.789062 246.195312 L 67.78125 229.535156 C 67.601562 229.332031 67.617188 229.019531 67.820312 228.835938 C 68.019531 228.65625 68.332031 228.671875 68.515625 228.875 L 83.523438 245.535156 C 83.707031 245.738281 83.6875 246.050781 83.488281 246.234375 C 83.394531 246.320312 83.273438 246.359375 83.15625 246.359375 "/>
<path style=" stroke:none;fill-rule:nonzero;fill:rgb(85.488892%,10.978699%,29.40979%);fill-opacity:1;" d="M 167.535156 270.132812 L 152.53125 270.132812 L 152.53125 248.78125 L 167.535156 248.78125 L 167.535156 270.132812 "/>
<path style=" stroke:none;fill-rule:nonzero;fill:rgb(49.01886%,55.288696%,61.178589%);fill-opacity:1;" d="M 128.769531 246.28125 L 123.769531 246.28125 L 123.769531 226.273438 L 128.769531 226.273438 L 128.769531 246.28125 "/>
<path style=" stroke:none;fill-rule:nonzero;fill:rgb(49.01886%,55.288696%,61.178589%);fill-opacity:1;" d="M 191.296875 246.28125 L 196.296875 246.28125 L 196.296875 226.273438 L 191.296875 226.273438 L 191.296875 246.28125 "/>
<path style=" stroke:none;fill-rule:nonzero;fill:rgb(49.01886%,55.288696%,61.178589%);fill-opacity:1;" d="M 186.292969 238.777344 L 133.773438 238.777344 L 133.773438 233.777344 L 186.292969 233.777344 L 186.292969 238.777344 "/>
<path style=" stroke:none;fill-rule:nonzero;fill:rgb(49.01886%,55.288696%,61.178589%);fill-opacity:1;" d="M 143.777344 293.800781 L 138.773438 293.800781 L 138.773438 243.78125 L 143.777344 243.78125 L 143.777344 293.800781 "/>
<path style=" stroke:none;fill-rule:nonzero;fill:rgb(49.01886%,55.288696%,61.178589%);fill-opacity:1;" d="M 181.292969 293.800781 L 176.289062 293.800781 L 176.289062 243.78125 L 181.292969 243.78125 L 181.292969 293.800781 "/>
<path style=" stroke:none;fill-rule:nonzero;fill:rgb(83.918762%,90.589905%,94.898987%);fill-opacity:1;" d="M 143.777344 243.78125 L 138.773438 243.78125 L 138.773438 238.777344 L 143.777344 238.777344 L 143.777344 243.78125 "/>
<path style=" stroke:none;fill-rule:nonzero;fill:rgb(83.918762%,90.589905%,94.898987%);fill-opacity:1;" d="M 181.292969 243.78125 L 176.289062 243.78125 L 176.289062 238.777344 L 181.292969 238.777344 L 181.292969 243.78125 "/>
<path style=" stroke:none;fill-rule:nonzero;fill:rgb(35.289001%,39.219666%,43.919373%);fill-opacity:1;" d="M 191.296875 298.804688 L 128.769531 298.804688 L 128.769531 293.800781 L 191.296875 293.800781 L 191.296875 298.804688 "/>
<path style=" stroke:none;fill-rule:nonzero;fill:rgb(83.918762%,90.589905%,94.898987%);fill-opacity:1;" d="M 128.769531 298.804688 L 123.769531 298.804688 L 123.769531 293.800781 L 128.769531 293.800781 L 128.769531 298.804688 "/>
<path style=" stroke:none;fill-rule:nonzero;fill:rgb(83.918762%,90.589905%,94.898987%);fill-opacity:1;" d="M 196.296875 298.804688 L 191.296875 298.804688 L 191.296875 293.800781 L 196.296875 293.800781 L 196.296875 298.804688 "/>
<path style=" stroke:none;fill-rule:nonzero;fill:rgb(92.939758%,41.958618%,60.389709%);fill-opacity:1;" d="M 171.289062 273.792969 L 148.777344 273.792969 C 148.777344 271.027344 151.015625 268.789062 153.78125 268.789062 L 166.285156 268.789062 C 169.050781 268.789062 171.289062 271.027344 171.289062 273.792969 "/>
<path style=" stroke:none;fill-rule:nonzero;fill:rgb(85.488892%,10.978699%,29.40979%);fill-opacity:1;" d="M 148.777344 273.792969 L 171.289062 273.792969 L 171.289062 278.792969 L 148.777344 278.792969 L 148.777344 273.792969 "/>
<path style=" stroke:none;fill-rule:nonzero;fill:rgb(83.918762%,90.589905%,94.898987%);fill-opacity:1;" d="M 157.53125 278.792969 L 162.535156 278.792969 L 162.535156 293.800781 L 157.53125 293.800781 L 157.53125 278.792969 "/>
<path style=" stroke:none;fill-rule:nonzero;fill:rgb(83.918762%,90.589905%,94.898987%);fill-opacity:1;" d="M 128.769531 243.78125 L 133.773438 243.78125 L 133.773438 228.773438 L 128.769531 228.773438 L 128.769531 243.78125 "/>
<path style=" stroke:none;fill-rule:nonzero;fill:rgb(83.918762%,90.589905%,94.898987%);fill-opacity:1;" d="M 191.296875 243.78125 L 186.292969 243.78125 L 186.292969 228.773438 L 191.296875 228.773438 L 191.296875 243.78125 "/>
<path style=" stroke:none;fill-rule:nonzero;fill:rgb(92.939758%,41.958618%,60.389709%);fill-opacity:1;" d="M 162.535156 255.035156 L 157.53125 255.035156 L 157.53125 252.535156 L 162.535156 252.535156 L 162.535156 255.035156 "/>
<path style=" stroke:none;fill-rule:nonzero;fill:rgb(92.939758%,41.958618%,60.389709%);fill-opacity:1;" d="M 162.535156 260.039062 L 157.53125 260.039062 L 157.53125 257.535156 L 162.535156 257.535156 L 162.535156 260.039062 "/>
<path style=" stroke:none;fill-rule:nonzero;fill:rgb(49.01886%,55.288696%,61.178589%);fill-opacity:1;" d="M 157.53125 287.546875 L 150.03125 287.546875 L 150.03125 285.046875 L 157.53125 285.046875 L 157.53125 287.546875 "/>
<path style=" stroke:none;fill-rule:nonzero;fill:rgb(49.01886%,55.288696%,61.178589%);fill-opacity:1;" d="M 170.039062 287.546875 L 162.535156 287.546875 L 162.535156 285.046875 L 170.039062 285.046875 L 170.039062 287.546875 "/>
<g clip-path="url(#clip17)" clip-rule="nonzero">
<path style=" stroke:none;fill-rule:nonzero;fill:rgb(0%,0%,0%);fill-opacity:1;" d="M 195.046875 245.03125 L 192.546875 245.03125 L 192.546875 227.523438 L 195.046875 227.523438 Z M 187.542969 242.53125 L 187.542969 230.023438 L 190.046875 230.023438 L 190.046875 242.53125 Z M 135.023438 237.527344 L 135.023438 235.027344 L 185.042969 235.027344 L 185.042969 237.527344 Z M 180.042969 242.53125 L 177.539062 242.53125 L 177.539062 240.027344 L 180.042969 240.027344 Z M 177.539062 292.550781 L 177.539062 245.03125 L 180.042969 245.03125 L 180.042969 292.550781 Z M 190.046875 297.550781 L 130.019531 297.550781 L 130.019531 295.050781 L 190.046875 295.050781 Z M 195.046875 297.550781 L 192.546875 297.550781 L 192.546875 295.050781 L 195.046875 295.050781 Z M 125.019531 295.050781 L 127.519531 295.050781 L 127.519531 297.550781 L 125.019531 297.550781 Z M 140.027344 245.03125 L 142.527344 245.03125 L 142.527344 292.550781 L 140.027344 292.550781 Z M 142.527344 242.53125 L 140.027344 242.53125 L 140.027344 240.027344 L 142.527344 240.027344 Z M 158.78125 280.046875 L 161.285156 280.046875 L 161.285156 292.550781 L 158.78125 292.550781 Z M 150.03125 275.042969 L 170.039062 275.042969 L 170.039062 277.542969 L 150.03125 277.542969 Z M 153.78125 270.042969 L 166.285156 270.042969 C 167.917969 270.042969 169.304688 271.085938 169.824219 272.542969 L 150.246094 272.542969 C 150.761719 271.085938 152.148438 270.042969 153.78125 270.042969 Z M 166.285156 267.539062 L 153.78125 267.539062 L 153.78125 250.03125 L 166.285156 250.03125 Z M 175.039062 240.027344 L 175.039062 292.550781 L 163.785156 292.550781 L 163.785156 287.546875 L 170.039062 287.546875 L 170.039062 285.046875 L 163.785156 285.046875 L 163.785156 280.046875 L 171.289062 280.046875 C 171.976562 280.046875 172.539062 279.484375 172.539062 278.792969 L 172.539062 273.792969 C 172.539062 271.238281 170.988281 269.039062 168.785156 268.066406 L 168.785156 248.78125 C 168.785156 248.09375 168.226562 247.53125 167.535156 247.53125 L 152.53125 247.53125 C 151.839844 247.53125 151.28125 248.09375 151.28125 248.78125 L 151.28125 268.066406 C 149.078125 269.039062 147.527344 271.238281 147.527344 273.792969 L 147.527344 278.792969 C 147.527344 279.484375 148.089844 280.046875 148.777344 280.046875 L 156.28125 280.046875 L 156.28125 285.046875 L 150.03125 285.046875 L 150.03125 287.546875 L 156.28125 287.546875 L 156.28125 292.550781 L 145.027344 292.550781 L 145.027344 240.027344 Z M 132.523438 242.53125 L 130.019531 242.53125 L 130.019531 230.023438 L 132.523438 230.023438 Z M 127.519531 245.03125 L 125.019531 245.03125 L 125.019531 227.523438 L 127.519531 227.523438 Z M 196.296875 225.023438 L 191.296875 225.023438 C 190.605469 225.023438 190.046875 225.585938 190.046875 226.273438 L 190.046875 227.523438 L 186.292969 227.523438 C 185.605469 227.523438 185.042969 228.085938 185.042969 228.773438 L 185.042969 232.527344 L 135.023438 232.527344 L 135.023438 228.773438 C 135.023438 228.085938 134.460938 227.523438 133.773438 227.523438 L 130.019531 227.523438 L 130.019531 226.273438 C 130.019531 225.585938 129.460938 225.023438 128.769531 225.023438 L 123.769531 225.023438 C 123.082031 225.023438 122.519531 225.585938 122.519531 226.273438 L 122.519531 246.28125 C 122.519531 246.96875 123.082031 247.53125 123.769531 247.53125 L 128.769531 247.53125 C 129.460938 247.53125 130.019531 246.96875 130.019531 246.28125 L 130.019531 245.03125 L 133.773438 245.03125 C 134.460938 245.03125 135.023438 244.46875 135.023438 243.78125 L 135.023438 240.027344 L 137.523438 240.027344 L 137.523438 292.550781 L 123.769531 292.550781 C 123.082031 292.550781 122.519531 293.113281 122.519531 293.800781 L 122.519531 298.804688 C 122.519531 299.492188 123.082031 300.054688 123.769531 300.054688 L 196.296875 300.054688 C 196.988281 300.054688 197.546875 299.492188 197.546875 298.804688 L 197.546875 293.800781 C 197.546875 293.113281 196.988281 292.550781 196.296875 292.550781 L 182.542969 292.550781 L 182.542969 240.027344 L 185.042969 240.027344 L 185.042969 243.78125 C 185.042969 244.46875 185.605469 245.03125 186.292969 245.03125 L 190.046875 245.03125 L 190.046875 246.28125 C 190.046875 246.96875 190.605469 247.53125 191.296875 247.53125 L 196.296875 247.53125 C 196.988281 247.53125 197.546875 246.96875 197.546875 246.28125 L 197.546875 226.273438 C 197.546875 225.585938 196.988281 225.023438 196.296875 225.023438 "/>
</g>
<path style=" stroke:none;fill-rule:nonzero;fill:rgb(0%,0%,0%);fill-opacity:1;" d="M 162.535156 252.535156 L 157.53125 252.535156 L 157.53125 255.035156 L 162.535156 255.035156 L 162.535156 252.535156 "/>
<path style=" stroke:none;fill-rule:nonzero;fill:rgb(0%,0%,0%);fill-opacity:1;" d="M 162.535156 257.535156 L 157.53125 257.535156 L 157.53125 260.039062 L 162.535156 260.039062 L 162.535156 257.535156 "/>
</g>
</svg>
