<?xml version="1.0" encoding="UTF-8"?>
<svg xmlns="http://www.w3.org/2000/svg" xmlns:xlink="http://www.w3.org/1999/xlink" width="224.87999pt" height="299.999988pt" viewBox="0 0 224.87999 299.999988" version="1.2">
<defs>
<clipPath id="clip1">
  <path d="M 28.066406 113.394531 L 177.523438 113.394531 L 177.523438 299.621094 L 28.066406 299.621094 Z M 28.066406 113.394531 "/>
</clipPath>
<clipPath id="clip2">
  <path d="M 52.808594 109 L 202.003906 109 L 202.003906 277.546875 L 52.808594 277.546875 Z M 52.808594 109 "/>
</clipPath>
<clipPath id="clip3">
  <path d="M 14.648438 119 L 111 119 L 111 181 L 14.648438 181 Z M 14.648438 119 "/>
</clipPath>
<clipPath id="clip4">
  <path d="M 36.046875 0.078125 L 79 0.078125 L 79 41 L 36.046875 41 Z M 36.046875 0.078125 "/>
</clipPath>
<clipPath id="clip5">
  <path d="M 159 12 L 180.71875 12 L 180.71875 42 L 159 42 Z M 159 12 "/>
</clipPath>
</defs>
<g id="surface1">
<g clip-path="url(#clip1)" clip-rule="nonzero">
<path style=" stroke:none;fill-rule:nonzero;fill:rgb(100%,56.858826%,30.198669%);fill-opacity:1;" d="M 170.816406 277.496094 C 170.816406 277.496094 164.03125 311.414062 171.519531 295.265625 C 172.519531 293.109375 176.496094 280.570312 176.496094 280.570312 L 170.550781 273.488281 C 170.625 273.90625 170.816406 277.496094 170.816406 277.496094 Z M 90.445312 266.289062 C 89.546875 266.890625 76.601562 281.351562 77.71875 286.554688 C 78.226562 288.921875 94.835938 270.859375 94.835938 270.859375 L 92.386719 263.941406 Z M 94.632812 166.703125 C 91.855469 169.304688 83.707031 177.28125 76.425781 178.84375 C 76.425781 178.84375 88.734375 186.996094 88.5625 189.253906 C 88.390625 191.503906 86.480469 195.496094 89.429688 194.628906 C 92.375 193.761719 112.316406 184.742188 118.039062 185.4375 L 109.195312 164.101562 C 109.195312 164.101562 97.40625 164.101562 94.632812 166.703125 Z M 68.449219 146.347656 C 64.265625 149.449219 60.277344 152.996094 56.570312 156.722656 C 54.675781 158.625 52.835938 160.589844 51.039062 162.585938 C 49.269531 164.550781 47.671875 166.621094 45.527344 168.195312 C 45.527344 168.195312 39.335938 148.789062 38.511719 148.789062 C 37.683594 148.789062 41.8125 136.765625 41.8125 136.765625 C 41.8125 136.765625 41.605469 132.6875 39.542969 133.101562 C 37.480469 133.515625 29.019531 135.066406 28.398438 136.765625 C 27.78125 138.46875 29.636719 145.898438 31.289062 149.410156 C 31.289062 149.410156 33.972656 176.453125 40.367188 181.613281 C 40.367188 181.613281 43.667969 185.328125 53.164062 178.308594 C 62.65625 171.289062 68.226562 165.921875 68.226562 165.921875 C 68.226562 165.921875 69.054688 158.492188 69.257812 156.839844 C 69.464844 155.1875 71.828125 145.121094 71.828125 145.121094 L 72.210938 143.941406 C 72.050781 143.84375 68.625 146.21875 68.449219 146.347656 Z M 176.0625 142.082031 C 172.390625 140.136719 163.996094 140.722656 163.996094 140.722656 C 163.996094 140.722656 139.511719 131.042969 135.3125 130.691406 C 131.117188 130.339844 90.25 129.085938 90.25 129.085938 C 90.25 129.085938 83.023438 134.035156 85.113281 150.589844 C 85.113281 150.589844 89.585938 153.828125 106.421875 151.542969 L 105.636719 142.082031 C 105.636719 142.082031 128.972656 139.480469 133.90625 140.960938 C 138.835938 142.441406 161.898438 145.734375 161.898438 145.734375 L 167.667969 151.335938 L 174.3125 152.359375 C 174.3125 152.359375 179.738281 144.027344 176.0625 142.082031 Z M 72.167969 158.585938 C 72.167969 157.003906 73.183594 143.898438 73.183594 143.898438 L 74.539062 143.335938 C 79.507812 139.609375 74.539062 133.621094 74.539062 133.621094 C 71.265625 136.441406 69.457031 136.554688 68.300781 136.21875 C 67.144531 135.878906 65.773438 128.195312 65.773438 128.195312 C 65.773438 128.195312 63.359375 128.988281 63.246094 128.195312 C 63.132812 127.40625 65.390625 123.902344 65.390625 123.902344 L 65.050781 122.324219 C 64.261719 118.59375 66.292969 113.871094 66.292969 113.871094 L 68.300781 113.871094 C 71.503906 114.457031 75.144531 121.109375 75.496094 121.53125 C 75.847656 121.953125 77.03125 119.738281 78.996094 118.796875 C 81.675781 117.519531 81.621094 124.53125 80.105469 125.515625 C 81.460938 129.355469 86.507812 130.117188 86.507812 130.117188 C 81.023438 135.75 82.105469 152.9375 82.105469 152.9375 C 82.105469 152.9375 83.460938 151.695312 79.847656 156.101562 C 76.234375 160.507812 72.167969 160.167969 72.167969 158.585938 "/>
</g>
<path style=" stroke:none;fill-rule:nonzero;fill:rgb(17.248535%,16.079712%,15.689087%);fill-opacity:1;" d="M 111.871094 124.480469 C 112.003906 121.210938 104.375 121.757812 105.875 118.101562 C 107.375 114.449219 105.195312 111.128906 105.195312 111.128906 C 100.835938 101.722656 88.722656 109.253906 88.722656 109.253906 L 90.890625 113.074219 C 90.890625 113.074219 97.054688 113.214844 95.964844 118.101562 C 94.875 122.992188 92.238281 127.417969 96.648438 129.289062 L 111.871094 129.78125 C 110.648438 129.085938 111.730469 127.753906 111.871094 124.480469 Z M 76.25 106.324219 C 68.230469 106.324219 65.75 113.800781 66.296875 113.871094 C 72.210938 114.617188 75.339844 122.636719 75.339844 122.636719 C 75.339844 122.636719 77.929688 119.472656 79 118.796875 C 80.066406 118.125 80.519531 118.988281 80.820312 121.335938 C 81.273438 124.84375 80.105469 125.515625 80.105469 125.515625 C 81.035156 128.789062 85.492188 129.882812 85.492188 129.882812 L 90.25 129.089844 C 90.25 129.089844 92.796875 122.113281 90.632812 116.765625 C 88.46875 111.417969 84.269531 106.324219 76.25 106.324219 Z M 118.039062 151.417969 C 115.304688 155.292969 109.140625 156.308594 108.203125 155.878906 C 108.203125 155.878906 106.386719 151.609375 105.636719 151.648438 C 104.890625 151.6875 106.421875 151.542969 106.421875 151.542969 L 105.636719 142.082031 L 113.207031 140.960938 C 113.207031 140.960938 120.773438 147.542969 118.039062 151.417969 "/>
<g clip-path="url(#clip2)" clip-rule="nonzero">
<path style=" stroke:none;fill-rule:nonzero;fill:rgb(0%,50.19989%,21.569824%);fill-opacity:1;" d="M 164.566406 182.195312 C 165.21875 182.304688 166.105469 182.015625 166.632812 181.640625 C 167.128906 181.292969 166.988281 181 166.4375 180.90625 C 159.125 179.664062 151.738281 178.894531 144.328125 178.605469 C 143.628906 178.578125 142.835938 178.75 142.257812 179.160156 C 141.820312 179.46875 141.851562 179.867188 142.453125 179.894531 C 149.863281 180.183594 157.25 180.953125 164.566406 182.195312 Z M 183.292969 172.578125 C 169.476562 168.941406 155.238281 167 140.957031 166.828125 C 136.933594 166.777344 132.914062 166.867188 128.898438 167.097656 C 128.082031 167.144531 127.757812 168.195312 128.757812 168.140625 C 142.816406 167.339844 156.960938 168.273438 170.792969 170.898438 C 174.707031 171.644531 178.589844 172.527344 182.441406 173.542969 C 182.792969 173.632812 183.234375 173.554688 183.476562 173.265625 C 183.679688 173.023438 183.632812 172.667969 183.292969 172.578125 Z M 201.847656 168.316406 C 191.964844 165.203125 181.753906 163.359375 171.492188 162.023438 C 160.996094 160.660156 150.445312 159.710938 139.914062 158.636719 C 133.835938 158.019531 127.761719 157.402344 121.683594 156.78125 C 121.335938 156.746094 120.914062 156.804688 120.648438 157.058594 C 120.453125 157.246094 120.453125 157.527344 120.785156 157.558594 C 131.519531 158.65625 142.253906 159.75 152.988281 160.84375 C 163.25 161.890625 173.53125 162.945312 183.675781 164.84375 C 189.414062 165.914062 195.109375 167.257812 200.679688 169.011719 C 201.019531 169.117188 201.414062 169.0625 201.714844 168.871094 C 201.871094 168.773438 202.195312 168.421875 201.847656 168.316406 Z M 137.519531 248.027344 C 137.519531 248.027344 132.054688 232.019531 133.417969 220.890625 C 134.785156 209.761719 134.085938 193.953125 123.210938 187.992188 C 123.210938 187.992188 123.210938 187.996094 123.210938 187.996094 C 121.75 186.738281 120.023438 185.828125 118.039062 185.433594 C 107.546875 183.347656 88.273438 194.75 88.273438 194.75 C 88.273438 194.75 60.289062 209.59375 56.160156 212.75 C 52.03125 215.90625 50.332031 221.011719 60.289062 231.457031 C 70.246094 241.902344 90.445312 266.289062 90.445312 266.289062 L 92.472656 264.183594 L 78.753906 225.03125 C 78.753906 225.03125 91.765625 224.523438 101.203125 223.394531 C 104.292969 227.410156 127.371094 252.605469 131.859375 255.835938 L 170.8125 277.496094 L 170.8125 273.800781 C 170.816406 273.800781 153.144531 250.496094 137.519531 248.027344 Z M 86.710938 110.539062 C 86.710938 110.539062 86.558594 109.429688 88.722656 109.253906 L 90.886719 113.074219 C 90.886719 113.074219 89.964844 115.199219 89.550781 114.460938 C 89.132812 113.722656 86.710938 110.539062 86.710938 110.539062 "/>
</g>
<g clip-path="url(#clip3)" clip-rule="nonzero">
<path style=" stroke:none;fill-rule:nonzero;fill:rgb(1.179504%,59.609985%,61.959839%);fill-opacity:1;" d="M 43.84375 119.605469 C 41.59375 122.308594 39.964844 125.457031 39.085938 128.867188 C 38.9375 129.457031 40.417969 129.253906 40.558594 128.707031 C 41.382812 125.492188 42.910156 122.460938 45.035156 119.910156 C 45.601562 119.230469 44.195312 119.183594 43.84375 119.605469 Z M 27.292969 123.34375 C 27.292969 125.609375 27.292969 127.871094 27.292969 130.136719 C 27.292969 130.582031 28.753906 130.3125 28.753906 129.746094 C 28.753906 127.480469 28.753906 125.214844 28.753906 122.953125 C 28.753906 122.503906 27.292969 122.78125 27.292969 123.34375 Z M 21.648438 134.277344 C 19.683594 134.585938 17.625 133.667969 16.347656 132.148438 C 16.078125 131.828125 14.683594 132.328125 14.980469 132.683594 C 16.539062 134.539062 19.050781 135.316406 21.410156 134.945312 C 21.640625 134.90625 22.195312 134.785156 22.253906 134.496094 C 22.316406 134.207031 21.796875 134.253906 21.648438 134.277344 Z M 110.535156 167.335938 C 110.535156 167.335938 108.820312 166.140625 106.855469 165.5 C 104.890625 164.863281 98.234375 166.828125 96.214844 168.664062 C 94.195312 170.496094 88.441406 178.113281 78.863281 180.515625 C 68.070312 183.222656 67.34375 164.53125 67.34375 164.53125 C 67.34375 164.53125 71.214844 145.820312 71.832031 144.546875 C 72.226562 143.734375 74.578125 142.429688 74.539062 143.335938 C 74.355469 147.976562 71.988281 156.425781 73.707031 158.523438 C 75.421875 160.621094 82.105469 152.9375 82.105469 152.9375 C 82.105469 152.9375 79.269531 137.191406 85.492188 129.878906 C 85.492188 129.878906 88.515625 129.035156 90.25 129.085938 C 89.972656 129.078125 89.195312 130.675781 89.085938 130.871094 C 88.226562 132.390625 87.5625 134.011719 87.105469 135.695312 C 85.746094 140.667969 86.28125 145.558594 86.511719 150.617188 C 86.511719 150.617188 91.488281 153.816406 105.636719 150.9375 C 105.636719 150.9375 107.628906 150.15625 107.628906 152.359375 C 107.628906 154.5625 110.535156 167.335938 110.535156 167.335938 "/>
</g>
<g clip-path="url(#clip4)" clip-rule="nonzero">
<path style=" stroke:none;fill-rule:nonzero;fill:rgb(0%,0%,0%);fill-opacity:1;" d="M 51.324219 19.476562 C 51.324219 19.34375 51.335938 19.269531 51.320312 19.203125 C 50.898438 17.378906 50.457031 15.558594 50.203125 13.699219 C 50.058594 12.625 49.859375 11.558594 49.714844 10.480469 C 49.59375 9.578125 49.515625 8.667969 49.421875 7.761719 C 49.390625 7.476562 49.347656 7.195312 49.21875 6.871094 C 49.003906 7.113281 49.007812 7.375 48.933594 7.59375 C 48.421875 9.089844 48.449219 10.601562 48.820312 12.117188 C 48.988281 12.808594 49.183594 13.496094 49.382812 14.183594 C 49.808594 15.648438 50.171875 17.132812 50.832031 18.519531 C 50.949219 18.765625 51.046875 19.019531 51.160156 19.261719 C 51.191406 19.324219 51.242188 19.371094 51.324219 19.476562 Z M 65.796875 8.484375 C 65.800781 8.210938 65.753906 7.945312 65.679688 7.679688 C 65.414062 6.761719 64.84375 6.074219 64.046875 5.570312 C 62.992188 4.898438 61.8125 4.570312 60.597656 4.359375 C 59.773438 4.210938 59.621094 4.359375 59.496094 5.199219 C 59.300781 6.515625 59.070312 7.828125 58.734375 9.113281 C 58.566406 9.757812 58.402344 10.402344 58.300781 11.0625 C 58.140625 12.15625 57.96875 13.25 57.804688 14.347656 C 57.726562 14.863281 57.851562 14.960938 58.371094 14.785156 C 58.484375 14.746094 58.601562 14.703125 58.710938 14.652344 C 59.457031 14.335938 60.199219 14.007812 60.945312 13.691406 C 62.613281 12.992188 63.96875 11.890625 65.070312 10.453125 C 65.515625 9.871094 65.796875 9.230469 65.796875 8.484375 Z M 57.019531 20.949219 C 56.945312 22.109375 57.085938 23.265625 57.207031 24.417969 C 57.316406 25.46875 57.570312 26.503906 57.761719 27.546875 C 58.105469 29.421875 58.617188 31.25 59.378906 32.996094 C 59.617188 33.539062 59.882812 34.070312 60.125 34.609375 C 60.289062 34.972656 60.535156 35.203125 60.957031 35.238281 C 61.226562 35.261719 61.492188 35.328125 61.75 35.398438 C 62.308594 35.550781 62.875 35.535156 63.433594 35.449219 C 64.375 35.296875 65.316406 35.117188 66.257812 34.941406 C 66.570312 34.882812 66.878906 34.792969 67.183594 34.707031 C 67.632812 34.582031 68.078125 34.441406 68.527344 34.320312 C 69.226562 34.132812 69.871094 33.816406 70.449219 33.410156 C 71.027344 33 71.527344 32.480469 72.046875 31.988281 C 72.410156 31.648438 72.683594 31.238281 72.863281 30.769531 C 73.136719 30.050781 73.304688 29.3125 73.328125 28.535156 C 73.351562 27.761719 73.242188 27.019531 73.0625 26.265625 C 72.871094 25.484375 72.550781 24.78125 72.136719 24.105469 C 71.230469 22.617188 69.945312 21.507812 68.558594 20.523438 C 66.972656 19.398438 65.148438 18.789062 63.257812 18.394531 C 61.996094 18.128906 60.714844 18.203125 59.441406 18.289062 C 58.832031 18.332031 58.226562 18.476562 57.621094 18.574219 C 57.320312 18.625 57.140625 18.808594 57.078125 19.101562 C 57.042969 19.269531 57.027344 19.445312 57.023438 19.617188 C 57.015625 20.058594 57.019531 20.503906 57.019531 20.949219 Z M 78.058594 27.835938 C 78.128906 28.933594 77.96875 29.996094 77.582031 31.03125 C 77.296875 31.789062 76.839844 32.4375 76.234375 32.945312 C 74.933594 34.042969 73.539062 35.007812 71.964844 35.679688 C 70.945312 36.117188 69.882812 36.414062 68.785156 36.59375 C 67.453125 36.8125 66.128906 37.058594 64.792969 37.269531 C 63.996094 37.398438 63.191406 37.515625 62.378906 37.523438 C 62.140625 37.523438 62.054688 37.664062 62.1875 37.851562 C 62.570312 38.394531 62.707031 39.019531 62.789062 39.660156 C 62.851562 40.175781 62.605469 40.511719 62.113281 40.640625 C 61.820312 40.722656 61.527344 40.722656 61.25 40.597656 C 60.820312 40.410156 60.398438 40.210938 60.042969 39.894531 C 59.675781 39.570312 59.316406 39.230469 58.933594 38.921875 C 58.453125 38.535156 57.957031 38.175781 57.46875 37.800781 C 57.300781 37.671875 57.097656 37.644531 56.90625 37.6875 C 55.921875 37.902344 54.949219 37.671875 53.96875 37.640625 C 53.207031 37.617188 52.539062 37.257812 51.976562 36.769531 C 51.378906 36.253906 50.742188 35.792969 50.121094 35.3125 C 49.636719 34.941406 49.332031 34.441406 49.074219 33.910156 C 49.019531 33.800781 48.996094 33.671875 48.992188 33.554688 C 48.984375 33.328125 48.996094 33.09375 49.214844 32.960938 C 49.445312 32.820312 49.640625 32.960938 49.824219 33.078125 C 50.097656 33.257812 50.320312 33.484375 50.503906 33.75 C 50.734375 34.082031 51.039062 34.335938 51.382812 34.53125 C 52.351562 35.078125 53.40625 35.410156 54.492188 35.628906 C 54.585938 35.648438 54.703125 35.644531 54.730469 35.527344 C 54.746094 35.464844 54.707031 35.386719 54.6875 35.320312 C 54.679688 35.296875 54.660156 35.277344 54.644531 35.257812 C 54.628906 35.238281 54.617188 35.21875 54.601562 35.199219 C 53.578125 34.015625 52.894531 32.613281 52.117188 31.269531 C 51.699219 30.546875 51.328125 29.792969 50.933594 29.054688 C 49.914062 27.132812 48.988281 25.175781 48.195312 23.152344 C 47.730469 21.957031 47.253906 20.765625 46.820312 19.558594 C 46.574219 18.890625 46.390625 18.195312 46.199219 17.503906 C 45.910156 16.457031 45.507812 15.449219 45.128906 14.433594 C 44.515625 12.765625 44.058594 11.046875 43.535156 9.351562 C 43.503906 9.257812 43.496094 9.15625 43.460938 9.066406 C 43.398438 8.914062 43.292969 8.828125 43.117188 8.867188 C 43.09375 8.871094 43.070312 8.878906 43.046875 8.886719 C 41.613281 9.40625 40.160156 9.871094 38.886719 10.742188 C 38.664062 10.898438 38.433594 11.046875 38.242188 11.234375 C 37.742188 11.722656 37.09375 11.757812 36.46875 11.855469 C 36.261719 11.886719 36.101562 11.734375 36.066406 11.507812 C 36.039062 11.339844 36.03125 11.164062 36.039062 10.992188 C 36.050781 10.785156 36.148438 10.617188 36.335938 10.511719 C 37.316406 9.945312 38.273438 9.332031 39.28125 8.832031 C 40.226562 8.367188 41.226562 8.003906 42.207031 7.617188 C 42.902344 7.34375 42.917969 7.355469 42.746094 6.59375 C 42.664062 6.210938 42.546875 5.832031 42.429688 5.457031 C 42.316406 5.101562 42.265625 4.738281 42.214844 4.371094 C 42.132812 3.804688 42.332031 3.355469 42.710938 2.964844 C 43.003906 2.664062 43.328125 2.402344 43.699219 2.195312 C 44.414062 1.796875 45.1875 1.550781 45.964844 1.328125 C 46.671875 1.121094 47.382812 0.925781 48.097656 0.753906 C 49.292969 0.472656 50.492188 0.21875 51.734375 0.230469 C 52.714844 0.238281 53.695312 0.164062 54.675781 0.125 C 55.515625 0.0898438 56.34375 0.195312 57.160156 0.390625 C 57.894531 0.566406 58.472656 0.953125 58.746094 1.6875 C 58.9375 2.191406 59.171875 2.242188 59.605469 2.152344 C 60.238281 2.015625 60.875 2.007812 61.511719 2.039062 C 62.765625 2.097656 64.003906 2.253906 65.214844 2.609375 C 66.125 2.875 66.96875 3.285156 67.671875 3.910156 C 68.578125 4.714844 69.21875 5.695312 69.253906 6.96875 C 69.257812 7.140625 69.257812 7.320312 69.292969 7.484375 C 69.46875 8.277344 69.355469 9.058594 69.242188 9.839844 C 69.171875 10.332031 68.976562 10.785156 68.714844 11.210938 C 68.175781 12.097656 67.605469 12.957031 66.878906 13.703125 C 66.382812 14.214844 65.960938 14.800781 65.386719 15.238281 C 65.332031 15.28125 65.28125 15.359375 65.328125 15.425781 C 65.363281 15.476562 65.449219 15.511719 65.511719 15.511719 C 66.054688 15.5 66.585938 15.605469 67.125 15.648438 C 68.023438 15.71875 68.859375 15.988281 69.628906 16.445312 C 70.707031 17.085938 71.78125 17.734375 72.847656 18.394531 C 73.476562 18.78125 74.0625 19.234375 74.558594 19.785156 C 75.507812 20.828125 76.328125 21.964844 76.898438 23.265625 C 77.007812 23.511719 77.101562 23.769531 77.160156 24.035156 C 77.445312 25.234375 77.769531 26.425781 77.976562 27.640625 C 77.988281 27.710938 78.03125 27.777344 78.0625 27.84375 L 78.058594 27.835938 "/>
</g>
<g clip-path="url(#clip5)" clip-rule="nonzero">
<path style=" stroke:none;fill-rule:nonzero;fill:rgb(0%,0%,0%);fill-opacity:1;" d="M 162.550781 23.414062 C 162.761719 22.8125 162.988281 22.214844 163.183594 21.609375 C 163.332031 21.136719 163.554688 20.699219 163.800781 20.269531 C 163.882812 20.121094 163.992188 19.984375 164.054688 19.824219 C 164.398438 18.96875 164.894531 18.210938 165.429688 17.472656 C 165.484375 17.390625 165.542969 17.3125 165.601562 17.230469 C 165.640625 17.171875 165.6875 17.109375 165.71875 17.042969 C 165.738281 17.003906 165.761719 16.9375 165.742188 16.910156 C 165.6875 16.828125 165.609375 16.867188 165.5625 16.917969 C 164.566406 17.984375 163.644531 19.101562 163.121094 20.488281 C 162.761719 21.433594 162.5625 22.414062 162.550781 23.414062 Z M 171.917969 19.417969 C 171.921875 19.4375 171.917969 19.363281 171.90625 19.292969 C 171.777344 18.40625 171.109375 18.027344 170.300781 18.394531 C 169.964844 18.546875 169.636719 18.71875 169.328125 18.914062 C 168.839844 19.226562 168.464844 19.636719 168.269531 20.199219 C 167.96875 21.0625 167.828125 21.964844 167.609375 22.851562 C 167.546875 23.085938 167.753906 23.242188 167.96875 23.128906 C 168.535156 22.828125 169.101562 22.535156 169.640625 22.195312 C 170.484375 21.664062 171.117188 20.90625 171.730469 20.132812 C 171.875 19.953125 171.933594 19.742188 171.917969 19.417969 Z M 172.632812 12.257812 C 173.40625 12.183594 174.230469 12.359375 175.058594 12.441406 C 175.570312 12.496094 176.0625 12.671875 176.539062 12.867188 C 177.152344 13.117188 177.765625 13.375 178.375 13.636719 C 178.628906 13.742188 178.832031 13.917969 179.019531 14.117188 C 179.378906 14.5 179.671875 14.929688 179.894531 15.394531 C 180.40625 16.476562 180.703125 17.601562 180.699219 18.820312 C 180.695312 19.914062 180.546875 20.984375 180.371094 22.050781 C 180.238281 22.859375 179.933594 23.621094 179.53125 24.335938 C 179.253906 24.835938 178.8125 25.207031 178.484375 25.667969 C 177.652344 26.851562 176.527344 27.742188 175.464844 28.6875 C 175.042969 29.058594 174.542969 29.339844 174.058594 29.632812 C 173.574219 29.925781 173.066406 30.171875 172.574219 30.453125 C 171.757812 30.917969 170.878906 31.230469 169.992188 31.527344 C 169.640625 31.640625 169.28125 31.71875 168.910156 31.734375 C 168.765625 31.742188 168.613281 31.75 168.472656 31.777344 C 168.097656 31.855469 167.980469 32.03125 168.066406 32.417969 C 168.175781 32.925781 168.332031 33.417969 168.574219 33.882812 C 169.152344 34.988281 170.25 35.296875 171.296875 34.625 C 171.953125 34.207031 172.410156 33.59375 172.839844 32.957031 C 172.953125 32.789062 172.96875 32.589844 172.980469 32.390625 C 172.992188 32.21875 172.992188 32.046875 173.023438 31.878906 C 173.054688 31.695312 173.273438 31.609375 173.429688 31.707031 C 173.511719 31.757812 173.597656 31.816406 173.660156 31.886719 C 173.96875 32.242188 174.238281 32.625 174.425781 33.058594 C 174.601562 33.460938 174.582031 33.882812 174.503906 34.296875 C 174.40625 34.832031 174.238281 35.347656 173.953125 35.816406 C 173.316406 36.882812 172.523438 37.816406 171.597656 38.644531 C 171.304688 38.90625 171.011719 39.167969 170.71875 39.429688 C 168.871094 41.0625 166.792969 41.453125 164.484375 40.605469 C 164.34375 40.554688 164.199219 40.503906 164.082031 40.421875 C 163.132812 39.753906 162.238281 39.03125 161.664062 37.992188 C 161.375 37.476562 161.128906 36.9375 160.878906 36.402344 C 160.40625 35.390625 160.058594 34.339844 159.828125 33.25 C 159.695312 32.625 159.542969 32 159.386719 31.378906 C 159.246094 30.824219 159.214844 30.261719 159.226562 29.691406 C 159.273438 27.714844 159.546875 25.761719 159.882812 23.816406 C 159.925781 23.574219 159.980469 23.332031 160.058594 23.097656 C 160.710938 21.183594 161.457031 19.308594 162.410156 17.515625 C 163.054688 16.308594 163.996094 15.390625 165.078125 14.605469 C 166.078125 13.878906 167.175781 13.328125 168.285156 12.789062 C 168.691406 12.59375 169.117188 12.457031 169.554688 12.4375 C 170.289062 12.402344 171.019531 12.316406 171.753906 12.261719 C 172.023438 12.238281 172.292969 12.257812 172.632812 12.257812 "/>
</g>
<path style=" stroke:none;fill-rule:nonzero;fill:rgb(0%,0%,0%);fill-opacity:1;" d="M 120.292969 28.976562 C 120.363281 28.453125 120.421875 28.066406 120.472656 27.679688 C 120.625 26.457031 120.78125 25.242188 121.164062 24.0625 C 121.398438 23.335938 121.5625 22.59375 121.886719 21.898438 C 121.980469 21.699219 122.023438 21.476562 122.09375 21.265625 C 122.210938 20.914062 122.3125 20.558594 122.453125 20.222656 C 122.65625 19.726562 122.777344 19.207031 123.0625 18.742188 C 122.921875 18.703125 122.878906 18.777344 122.84375 18.832031 C 121.976562 20.085938 121.171875 21.378906 120.582031 22.792969 C 120.390625 23.25 120.277344 23.730469 120.25 24.226562 C 120.238281 24.398438 120.222656 24.570312 120.199219 24.742188 C 120.003906 26.113281 120.070312 27.480469 120.292969 28.976562 Z M 129.675781 17.507812 C 129.4375 17.492188 129.242188 17.574219 129.066406 17.726562 C 128.59375 18.125 128.183594 18.574219 127.894531 19.128906 C 127.679688 19.546875 127.484375 19.96875 127.253906 20.375 C 126.894531 21.011719 126.757812 21.707031 126.644531 22.414062 C 126.632812 22.484375 126.632812 22.574219 126.710938 22.597656 C 126.773438 22.617188 126.863281 22.613281 126.921875 22.578125 C 127.167969 22.421875 127.421875 22.265625 127.648438 22.082031 C 128.503906 21.386719 129.332031 20.65625 130.207031 19.984375 C 130.664062 19.632812 130.835938 19.1875 130.878906 18.65625 C 130.890625 18.539062 130.890625 18.394531 130.835938 18.296875 C 130.578125 17.847656 130.203125 17.5625 129.675781 17.507812 Z M 137.191406 16.4375 C 137.210938 17.839844 136.847656 19.171875 136.480469 20.507812 C 136.34375 21.007812 136.09375 21.464844 135.8125 21.902344 C 135.269531 22.753906 134.734375 23.609375 134.167969 24.449219 C 133.550781 25.367188 132.875 26.246094 132.0625 27.011719 C 131.773438 27.28125 131.488281 27.550781 131.214844 27.832031 C 130.460938 28.601562 129.589844 29.179688 128.546875 29.476562 C 128.15625 29.589844 128.117188 29.671875 128.191406 30.0625 C 128.484375 31.550781 129.164062 32.789062 130.410156 33.6875 C 130.992188 34.109375 131.578125 34.503906 132.289062 34.671875 C 132.507812 34.726562 132.71875 34.738281 132.941406 34.707031 C 134.324219 34.523438 135.507812 33.90625 136.578125 33.039062 C 136.941406 32.746094 137.144531 32.367188 137.148438 31.886719 C 137.148438 31.664062 137.15625 31.441406 137.1875 31.222656 C 137.222656 30.972656 137.523438 30.859375 137.6875 31.042969 C 138.351562 31.785156 138.972656 32.558594 138.917969 33.636719 C 138.878906 34.378906 138.726562 35.109375 138.300781 35.738281 C 137.957031 36.246094 137.582031 36.738281 137.195312 37.214844 C 136.773438 37.734375 136.292969 38.191406 135.714844 38.53125 C 135.394531 38.71875 135.089844 38.929688 134.785156 39.132812 C 134.0625 39.617188 133.273438 39.949219 132.433594 40.167969 C 132.246094 40.21875 132.046875 40.257812 131.871094 40.339844 C 130.988281 40.746094 130.027344 40.839844 129.085938 41.007812 C 128.554688 41.101562 128.015625 41.09375 127.476562 40.96875 C 126.761719 40.800781 126.039062 40.65625 125.320312 40.5 C 124.261719 40.273438 123.347656 39.769531 122.558594 39.027344 C 122.398438 38.875 122.238281 38.714844 122.058594 38.589844 C 121.277344 38.03125 120.722656 37.296875 120.285156 36.453125 C 119.765625 35.445312 119.253906 34.433594 118.816406 33.386719 C 118.355469 32.289062 118 31.167969 117.925781 29.96875 C 117.863281 28.9375 117.710938 27.910156 117.703125 26.871094 C 117.699219 26.273438 117.789062 25.691406 117.851562 25.105469 C 118.015625 23.628906 118.324219 22.183594 118.886719 20.800781 C 119.253906 19.910156 119.664062 19.03125 120.226562 18.257812 C 120.667969 17.648438 121.125 17.03125 121.730469 16.542969 C 122.207031 16.15625 122.621094 15.695312 123.070312 15.277344 C 123.539062 14.839844 124 14.394531 124.503906 14 C 125.042969 13.574219 125.625 13.207031 126.28125 12.96875 C 126.789062 12.78125 127.28125 12.5625 127.78125 12.351562 C 128.441406 12.078125 129.125 11.898438 129.84375 11.824219 C 130.402344 11.769531 130.957031 11.675781 131.527344 11.679688 C 132.691406 11.6875 133.816406 11.875 134.890625 12.359375 C 136.328125 13.011719 137.058594 14.148438 137.1875 15.699219 C 137.210938 15.945312 137.191406 16.191406 137.191406 16.4375 "/>
<path style=" stroke:none;fill-rule:nonzero;fill:rgb(0%,0%,0%);fill-opacity:1;" d="M 92.117188 19.328125 C 92.09375 18.855469 92.09375 18.507812 91.9375 18.1875 C 91.859375 18.027344 91.773438 17.878906 91.59375 17.828125 C 91.171875 17.703125 90.765625 17.679688 90.449219 18.058594 C 89.953125 18.644531 89.5 19.253906 89.226562 19.980469 C 89.089844 20.351562 88.980469 20.730469 88.835938 21.097656 C 88.65625 21.5625 88.59375 22.050781 88.542969 22.539062 C 88.523438 22.738281 88.605469 22.820312 88.792969 22.792969 C 89.3125 22.714844 89.808594 22.546875 90.207031 22.210938 C 90.789062 21.71875 91.332031 21.183594 91.742188 20.527344 C 92 20.117188 92.148438 19.6875 92.117188 19.328125 Z M 82.652344 28.777344 C 82.652344 28.210938 82.667969 27.644531 82.652344 27.078125 C 82.609375 25.714844 82.746094 24.371094 82.953125 23.027344 C 83.238281 21.210938 83.925781 19.574219 85.097656 18.148438 C 85.425781 17.75 85.746094 17.34375 86.082031 16.949219 C 86.566406 16.390625 87.085938 15.867188 87.683594 15.429688 C 88.015625 15.1875 88.339844 14.933594 88.667969 14.683594 C 88.628906 14.640625 88.613281 14.605469 88.601562 14.609375 C 88.285156 14.65625 87.972656 14.707031 87.664062 14.761719 C 87.195312 14.84375 86.765625 15.023438 86.375 15.289062 C 85.519531 15.878906 84.769531 16.578125 84.125 17.394531 C 83.738281 17.882812 83.4375 18.417969 83.195312 18.988281 C 82.851562 19.804688 82.589844 20.65625 82.410156 21.527344 C 82.152344 22.792969 82.210938 24.082031 82.238281 25.359375 C 82.261719 26.515625 82.429688 27.664062 82.652344 28.777344 Z M 79.441406 27.84375 C 79.523438 27.632812 79.539062 27.414062 79.535156 27.191406 C 79.511719 25.929688 79.585938 24.675781 79.714844 23.425781 C 79.722656 23.328125 79.726562 23.226562 79.746094 23.128906 C 80.003906 21.800781 80.222656 20.460938 80.707031 19.1875 C 81.199219 17.882812 81.90625 16.703125 82.800781 15.640625 C 83.277344 15.078125 83.78125 14.539062 84.292969 14.003906 C 84.511719 13.773438 84.75 13.550781 85.015625 13.382812 C 85.871094 12.847656 86.714844 12.296875 87.667969 11.945312 C 87.941406 11.84375 88.203125 11.703125 88.472656 11.585938 C 89.015625 11.355469 89.558594 11.148438 90.148438 11.039062 C 90.800781 10.921875 91.433594 10.980469 92.042969 11.148438 C 93.011719 11.414062 93.953125 11.765625 94.746094 12.4375 C 95.128906 12.761719 95.457031 13.117188 95.703125 13.546875 C 96.535156 15.003906 97.058594 16.554688 97.160156 18.238281 C 97.179688 18.507812 97.230469 18.777344 97.226562 19.046875 C 97.21875 19.816406 97.121094 20.550781 96.746094 21.261719 C 96.359375 22 96.0625 22.789062 95.753906 23.566406 C 95.308594 24.671875 94.585938 25.5625 93.675781 26.300781 C 92.566406 27.203125 91.328125 27.914062 90.023438 28.496094 C 89.660156 28.660156 89.273438 28.71875 88.886719 28.789062 C 88.714844 28.820312 88.628906 28.960938 88.679688 29.117188 C 88.792969 29.445312 88.894531 29.777344 89.050781 30.082031 C 89.261719 30.5 89.511719 30.894531 89.761719 31.292969 C 90.175781 31.953125 90.773438 32.441406 91.417969 32.84375 C 92.121094 33.285156 92.863281 33.671875 93.65625 33.953125 C 95.355469 34.558594 96.882812 33.988281 97.84375 32.441406 C 98.15625 31.9375 98.417969 31.417969 98.464844 30.796875 C 98.496094 30.347656 98.824219 30.199219 99.191406 30.460938 C 99.566406 30.730469 100 30.980469 100.167969 31.4375 C 100.324219 31.875 100.417969 32.339844 100.316406 32.820312 C 100.222656 33.28125 100.09375 33.730469 99.902344 34.160156 C 99.441406 35.1875 98.746094 36.046875 97.9375 36.8125 C 97.449219 37.273438 96.867188 37.585938 96.246094 37.835938 C 94.804688 38.414062 93.3125 38.828125 91.800781 39.144531 C 90.304688 39.460938 88.875 39.203125 87.53125 38.46875 C 87.316406 38.351562 87.089844 38.261719 86.863281 38.167969 C 85.988281 37.8125 85.203125 37.324219 84.515625 36.667969 C 83.929688 36.105469 83.300781 35.59375 82.703125 35.046875 C 81.390625 33.84375 80.617188 32.324219 80.164062 30.621094 C 79.917969 29.691406 79.679688 28.761719 79.4375 27.835938 L 79.441406 27.84375 "/>
<path style=" stroke:none;fill-rule:nonzero;fill:rgb(0%,0%,0%);fill-opacity:1;" d="M 144.011719 27.367188 C 144.011719 26.925781 144 26.585938 143.949219 26.246094 C 143.910156 26 143.878906 25.757812 143.859375 25.511719 C 143.785156 24.601562 143.730469 23.695312 143.683594 22.785156 C 143.644531 22.023438 143.617188 21.253906 143.527344 20.5 C 143.425781 19.6875 143.402344 18.878906 143.402344 18.066406 C 143.402344 17.890625 143.40625 17.71875 143.382812 17.546875 C 143.226562 16.492188 143.261719 15.4375 143.390625 14.378906 C 143.417969 14.160156 143.417969 13.9375 143.410156 13.714844 C 143.394531 13.300781 143.1875 13.148438 142.785156 13.238281 C 142.59375 13.28125 142.46875 13.398438 142.425781 13.574219 C 142.324219 13.980469 142.21875 14.386719 142.160156 14.796875 C 141.980469 16.046875 141.972656 17.304688 142 18.5625 C 142.007812 18.855469 142.050781 19.148438 142.082031 19.445312 C 142.207031 20.746094 142.527344 22.015625 142.765625 23.296875 C 142.996094 24.511719 143.382812 25.679688 143.710938 26.867188 C 143.746094 27.007812 143.761719 27.164062 144.011719 27.367188 Z M 149.546875 34.785156 C 149.96875 34.015625 150.230469 33.347656 150.519531 32.699219 C 151.078125 31.460938 151.582031 30.203125 151.992188 28.910156 C 152.15625 28.394531 152.378906 27.894531 152.558594 27.386719 C 152.734375 26.898438 152.890625 26.40625 153.046875 25.910156 C 153.410156 24.730469 153.875 23.589844 154.359375 22.457031 C 155.3125 20.234375 156.269531 18.019531 157.203125 15.792969 C 157.644531 14.746094 158.039062 13.675781 158.136719 12.53125 C 158.203125 11.777344 158.648438 11.394531 159.296875 11.167969 C 159.433594 11.117188 159.582031 11.089844 159.730469 11.085938 C 160.246094 11.070312 160.761719 11.058594 161.277344 11.074219 C 161.738281 11.09375 161.992188 11.355469 162.039062 11.8125 C 162.0625 12.082031 162.046875 12.355469 161.972656 12.621094 C 161.824219 13.140625 161.691406 13.667969 161.527344 14.183594 C 161.078125 15.59375 160.566406 16.984375 159.992188 18.34375 C 159.894531 18.570312 159.777344 18.800781 159.734375 19.039062 C 159.617188 19.679688 159.328125 20.246094 159.050781 20.828125 C 158.597656 21.785156 158.160156 22.75 157.714844 23.710938 C 157.609375 23.933594 157.515625 24.164062 157.386719 24.375 C 156.96875 25.078125 156.671875 25.832031 156.417969 26.609375 C 156.058594 27.710938 155.644531 28.789062 155.167969 29.847656 C 154.777344 30.722656 154.402344 31.609375 153.988281 32.476562 C 153.511719 33.476562 153.074219 34.5 152.539062 35.46875 C 152.007812 36.4375 151.375 37.355469 150.785156 38.292969 C 150.628906 38.542969 150.460938 38.785156 150.285156 39.023438 C 150.113281 39.261719 149.925781 39.492188 149.734375 39.714844 C 149.503906 39.988281 149.195312 40.09375 148.855469 40.199219 C 148.078125 40.445312 147.5 40.160156 147.011719 39.617188 C 146.15625 38.667969 145.304688 37.710938 144.570312 36.660156 C 143.523438 35.15625 142.746094 33.503906 142.148438 31.769531 C 141.757812 30.628906 141.390625 29.476562 141.007812 28.332031 C 140.808594 27.75 140.597656 27.171875 140.382812 26.589844 C 140.121094 25.871094 139.976562 25.125 139.863281 24.363281 C 139.734375 23.535156 139.503906 22.726562 139.378906 21.898438 C 139.183594 20.582031 138.914062 19.277344 138.835938 17.945312 C 138.78125 17.058594 138.6875 16.175781 138.664062 15.289062 C 138.644531 14.492188 138.730469 13.714844 138.957031 12.949219 C 139.175781 12.210938 139.648438 11.71875 140.339844 11.410156 C 141.425781 10.929688 142.566406 10.609375 143.75 10.558594 C 144.40625 10.53125 145.0625 10.507812 145.71875 10.457031 C 146.875 10.371094 147.882812 10.796875 148.785156 11.496094 C 148.863281 11.554688 148.933594 11.632812 149.015625 11.679688 C 149.617188 12.015625 149.738281 12.5625 149.714844 13.195312 C 149.679688 14.253906 149.675781 15.316406 149.636719 16.375 C 149.621094 16.816406 149.574219 17.261719 149.519531 17.703125 C 149.335938 19.191406 149.304688 20.699219 149 22.179688 C 148.917969 22.585938 148.925781 23.015625 148.921875 23.433594 C 148.914062 24.765625 148.882812 26.101562 148.9375 27.429688 C 148.984375 28.636719 149.136719 29.835938 149.234375 31.042969 C 149.328125 32.144531 149.410156 33.253906 149.496094 34.359375 C 149.503906 34.453125 149.515625 34.546875 149.546875 34.785156 "/>
<path style=" stroke:none;fill-rule:nonzero;fill:rgb(0%,0%,0%);fill-opacity:1;" d="M 103.230469 7.5625 C 102.464844 8.582031 102.074219 9.558594 102.097656 10.691406 C 102.105469 10.984375 102.046875 11.28125 102.007812 11.574219 C 101.894531 12.46875 101.714844 13.347656 101.757812 14.277344 C 101.820312 15.679688 101.976562 17.070312 102.140625 18.460938 C 102.148438 18.523438 102.199219 18.535156 102.257812 18.496094 C 102.347656 18.371094 102.339844 18.21875 102.347656 18.074219 C 102.40625 16.71875 102.582031 15.378906 102.804688 14.046875 C 102.890625 13.53125 102.921875 13.019531 102.953125 12.503906 C 103.003906 11.523438 103.058594 10.539062 103.15625 9.5625 C 103.21875 8.949219 103.222656 8.335938 103.230469 7.5625 Z M 99.582031 14.996094 C 99.570312 14.132812 99.535156 13.273438 99.445312 12.410156 C 99.367188 11.652344 99.410156 10.882812 99.402344 10.117188 C 99.398438 9.746094 99.402344 9.375 99.328125 9.011719 C 99.257812 8.667969 99.285156 8.324219 99.351562 7.980469 C 99.457031 7.421875 99.535156 6.863281 99.566406 6.292969 C 99.609375 5.535156 99.867188 4.847656 100.398438 4.285156 C 100.582031 4.085938 100.757812 3.878906 100.949219 3.6875 C 101.5625 3.058594 102.324219 2.804688 103.167969 2.945312 C 103.871094 3.058594 104.585938 3.078125 105.285156 3.21875 C 106.285156 3.417969 107.015625 4 107.511719 4.875 C 107.683594 5.179688 107.699219 5.535156 107.707031 5.886719 C 107.734375 7.21875 107.695312 8.550781 107.515625 9.875 C 107.480469 10.144531 107.453125 10.414062 107.449219 10.683594 C 107.433594 11.921875 107.261719 13.140625 107.046875 14.355469 C 106.851562 15.449219 106.734375 16.554688 106.574219 17.652344 C 106.332031 19.335938 106.175781 21.03125 106.066406 22.730469 C 106.023438 23.441406 105.910156 24.148438 105.839844 24.859375 C 105.804688 25.179688 105.785156 25.5 105.777344 25.820312 C 105.757812 26.484375 105.769531 27.152344 105.675781 27.816406 C 105.574219 28.507812 105.765625 29.191406 105.847656 29.875 C 105.914062 30.410156 106.011719 30.945312 106.117188 31.480469 C 106.1875 31.84375 106.257812 32.210938 106.390625 32.554688 C 106.75 33.472656 107.050781 34.414062 107.503906 35.289062 C 107.867188 35.992188 108.132812 36.738281 108.410156 37.476562 C 108.453125 37.589844 108.488281 37.710938 108.511719 37.832031 C 108.613281 38.382812 108.210938 38.863281 107.644531 38.863281 C 107.347656 38.863281 107.054688 38.816406 106.808594 38.632812 C 105.953125 37.996094 105.179688 37.28125 104.621094 36.359375 C 104.191406 35.644531 103.78125 34.914062 103.273438 34.246094 C 102.679688 33.460938 102.332031 32.570312 102.21875 31.59375 C 102.167969 31.175781 102.074219 30.769531 101.945312 30.367188 C 101.242188 28.179688 100.785156 25.929688 100.339844 23.679688 C 100.238281 23.175781 100.183594 22.65625 100.167969 22.140625 C 100.148438 21.34375 99.976562 20.570312 99.914062 19.789062 C 99.828125 18.730469 99.703125 17.679688 99.59375 16.625 C 99.535156 16.085938 99.582031 15.539062 99.582031 14.996094 "/>
<path style=" stroke:none;fill-rule:nonzero;fill:rgb(0%,0%,0%);fill-opacity:1;" d="M 112.214844 26.980469 C 112.382812 26.070312 112.414062 25.214844 112.390625 24.359375 C 112.382812 23.914062 112.398438 23.476562 112.5 23.042969 C 112.53125 22.898438 112.550781 22.75 112.550781 22.605469 C 112.546875 22.449219 112.679688 22.292969 112.53125 22.089844 C 112.171875 22.695312 111.933594 23.292969 111.886719 23.964844 C 111.820312 24.96875 111.972656 25.949219 112.214844 26.980469 Z M 109.292969 26.488281 C 109.230469 25.605469 109.386719 24.527344 109.460938 23.445312 C 109.476562 23.222656 109.523438 23.003906 109.578125 22.789062 C 109.679688 22.378906 109.753906 21.972656 109.730469 21.546875 C 109.703125 21.085938 109.898438 20.742188 110.292969 20.5 C 110.628906 20.296875 110.957031 20.078125 111.277344 19.851562 C 111.628906 19.605469 112.03125 19.472656 112.445312 19.429688 C 113.5 19.320312 114.496094 19.507812 115.386719 20.128906 C 115.597656 20.273438 115.722656 20.46875 115.839844 20.691406 C 116.273438 21.515625 116.246094 22.347656 115.964844 23.199219 C 115.8125 23.671875 115.699219 24.148438 115.691406 24.648438 C 115.6875 24.746094 115.675781 24.847656 115.652344 24.941406 C 115.464844 25.6875 115.382812 26.445312 115.328125 27.207031 C 115.226562 28.632812 115.070312 30.058594 115.101562 31.492188 C 115.109375 32.039062 115.21875 32.570312 115.296875 33.105469 C 115.480469 34.375 115.683594 35.640625 115.785156 36.917969 C 115.824219 37.414062 115.8125 37.902344 115.714844 38.390625 C 115.511719 39.390625 114.484375 39.636719 113.835938 39.160156 C 113 38.539062 112.28125 37.804688 111.796875 36.859375 C 111.269531 35.828125 110.871094 34.738281 110.476562 33.648438 C 110.382812 33.394531 110.320312 33.128906 110.21875 32.878906 C 109.773438 31.769531 109.632812 30.589844 109.441406 29.421875 C 109.292969 28.519531 109.292969 27.605469 109.292969 26.488281 "/>
<path style=" stroke:none;fill-rule:nonzero;fill:rgb(0%,0%,0%);fill-opacity:1;" d="M 113.976562 14.050781 C 113.960938 13.921875 113.945312 13.796875 113.8125 13.742188 C 113.710938 13.707031 113.621094 13.742188 113.542969 13.808594 C 113.351562 13.957031 113.179688 14.125 113.058594 14.339844 C 112.898438 14.632812 112.953125 14.90625 113.113281 15.167969 C 113.179688 15.277344 113.300781 15.3125 113.429688 15.25 C 113.566406 15.1875 113.667969 15.082031 113.738281 14.953125 C 113.894531 14.671875 113.929688 14.355469 113.976562 14.050781 Z M 113.742188 18.714844 C 112.285156 18.628906 111.085938 18.023438 110.277344 16.796875 C 109.886719 16.199219 109.761719 15.464844 109.96875 14.730469 C 110.039062 14.472656 110.132812 14.214844 110.246094 13.96875 C 110.457031 13.496094 110.675781 13.03125 110.863281 12.546875 C 111.277344 11.484375 112.121094 11.019531 113.253906 11.128906 C 114.125 11.210938 114.9375 11.46875 115.699219 11.882812 C 116.59375 12.371094 117.117188 13.089844 117.015625 14.160156 C 116.9375 14.96875 116.855469 15.773438 116.546875 16.542969 C 116.199219 17.410156 115.582031 18.015625 114.820312 18.503906 C 114.5 18.710938 114.121094 18.703125 113.742188 18.714844 "/>
<path style=" stroke:none;fill-rule:nonzero;fill:rgb(61.959839%,73.329163%,7.058716%);fill-opacity:1;" d="M 122.195312 59.035156 C 122.175781 58.757812 122.179688 58.578125 122.148438 58.40625 C 122.105469 58.195312 122.019531 57.988281 121.777344 57.949219 C 121.578125 57.921875 121.464844 58.085938 121.378906 58.234375 C 120.847656 59.148438 120.632812 60.128906 120.8125 61.175781 C 120.878906 61.546875 120.875 61.949219 121.167969 62.25 C 121.636719 62.09375 121.527344 61.621094 121.660156 61.292969 C 121.832031 60.871094 121.9375 60.421875 122.042969 59.976562 C 122.121094 59.636719 122.15625 59.285156 122.195312 59.035156 Z M 123.75 76.578125 C 123.09375 78.246094 123.050781 79.9375 123.558594 81.347656 C 123.648438 81.605469 123.65625 81.921875 123.945312 82.0625 C 124.101562 82.140625 124.253906 81.796875 124.289062 81.261719 C 124.300781 81.121094 124.285156 80.976562 124.300781 80.835938 C 124.464844 79.445312 124.023438 78.132812 123.75 76.578125 Z M 82.570312 61.386719 C 82.597656 60.890625 82.480469 60.320312 82.15625 59.78125 C 81.9375 59.417969 81.785156 59.015625 81.613281 58.628906 C 81.386719 58.101562 81.082031 57.628906 80.699219 57.207031 C 80.492188 56.972656 80.25 56.753906 79.996094 56.570312 C 79.65625 56.328125 79.355469 56.4375 79.277344 56.828125 C 79.167969 57.386719 79.113281 57.964844 79.316406 58.507812 C 79.648438 59.402344 80.035156 60.277344 80.390625 61.164062 C 80.605469 61.695312 80.996094 62.007812 81.515625 62.214844 C 82.402344 62.566406 82.566406 62.464844 82.570312 61.386719 Z M 104.203125 60.460938 C 104.128906 61.628906 104.605469 62.59375 105.320312 63.460938 C 105.488281 63.660156 105.714844 63.605469 105.796875 63.335938 C 105.933594 62.898438 106.023438 62.449219 106.167969 62.011719 C 106.632812 60.613281 106.539062 59.148438 106.6875 57.710938 C 106.695312 57.609375 106.679688 57.5 106.664062 57.394531 C 106.613281 57.082031 106.410156 56.90625 106.089844 56.878906 C 105.75 56.847656 105.472656 56.960938 105.230469 57.199219 C 104.894531 57.527344 104.664062 57.925781 104.546875 58.375 C 104.367188 59.058594 104.214844 59.75 104.203125 60.460938 Z M 131.425781 65.605469 C 132.3125 64.964844 133.6875 63.558594 134.070312 62.949219 C 134.125 62.859375 134.179688 62.765625 134.226562 62.671875 C 134.589844 61.945312 134.960938 61.21875 135.308594 60.484375 C 135.632812 59.800781 135.773438 59.074219 135.730469 58.316406 C 135.722656 58.144531 135.699219 57.960938 135.636719 57.800781 C 135.457031 57.355469 134.96875 57.234375 134.597656 57.535156 C 134.175781 57.875 133.875 58.300781 133.679688 58.8125 C 133.40625 59.542969 133.09375 60.253906 132.8125 60.980469 C 132.253906 62.429688 131.746094 63.894531 131.425781 65.605469 Z M 156.164062 61.039062 C 156.222656 61.058594 156.28125 61.082031 156.339844 61.101562 C 156.550781 60.699219 156.808594 60.3125 156.960938 59.886719 C 157.273438 59.019531 157.691406 58.195312 158.0625 57.351562 C 158.355469 56.671875 158.714844 56.015625 158.886719 55.28125 C 159.296875 53.554688 159.515625 51.796875 159.679688 50.027344 C 159.703125 49.742188 159.675781 49.464844 159.558594 49.195312 C 159.472656 49.007812 159.261719 48.945312 159.136719 49.09375 C 159.070312 49.175781 159 49.257812 158.949219 49.347656 C 157.96875 51.019531 157.398438 52.84375 157.011719 54.726562 C 156.757812 55.9375 156.609375 57.175781 156.445312 58.402344 C 156.324219 59.277344 156.253906 60.160156 156.164062 61.039062 Z M 144.320312 65.871094 C 144.699219 65.710938 144.734375 65.402344 144.847656 65.160156 C 145.390625 63.964844 145.914062 62.761719 146.464844 61.570312 C 146.777344 60.898438 147.164062 60.257812 147.457031 59.574219 C 148.011719 58.269531 148.574219 56.96875 148.808594 55.550781 C 148.996094 54.429688 149.289062 53.335938 149.652344 52.257812 C 149.988281 51.25 150.273438 50.214844 150.171875 49.128906 C 150.144531 48.847656 150.1875 48.503906 149.894531 48.367188 C 149.535156 48.207031 149.285156 48.503906 149.097656 48.746094 C 148.507812 49.496094 147.914062 50.25 147.402344 51.054688 C 147.058594 51.585938 146.675781 52.105469 146.480469 52.730469 C 145.773438 55.035156 145.0625 57.328125 144.707031 59.734375 C 144.488281 61.210938 144.25 62.671875 144.226562 64.167969 C 144.21875 64.730469 144.242188 65.28125 144.320312 65.871094 Z M 155.847656 68.527344 C 155.320312 69.578125 155.15625 70.171875 155.117188 71.210938 C 155.058594 72.832031 154.792969 74.453125 155.089844 76.078125 C 155.117188 76.214844 155.113281 76.359375 155.109375 76.5 C 155.046875 77.78125 155.28125 79.046875 155.390625 80.3125 C 155.480469 81.398438 155.78125 82.472656 156.027344 83.539062 C 156.175781 84.167969 156.480469 84.734375 156.972656 85.171875 C 157.300781 85.464844 157.585938 85.460938 157.90625 85.171875 C 158.148438 84.953125 158.355469 84.707031 158.472656 84.410156 C 158.851562 83.453125 159.269531 82.503906 159.460938 81.496094 C 159.804688 79.722656 160.042969 77.933594 159.972656 76.113281 C 159.929688 75.03125 159.757812 73.988281 159.320312 73.011719 C 158.898438 72.078125 158.46875 71.125 157.621094 70.484375 C 156.941406 69.96875 156.316406 69.414062 155.847656 68.527344 Z M 73.472656 64.0625 C 73.421875 65.195312 73.644531 66.382812 73.820312 67.574219 C 74.03125 69.011719 74.503906 70.390625 74.84375 71.800781 C 75.050781 72.65625 75.40625 73.390625 75.996094 74.027344 C 76.308594 74.363281 76.617188 74.703125 76.941406 75.027344 C 77.042969 75.128906 77.203125 75.1875 77.332031 75.113281 C 78.027344 74.71875 78.761719 74.433594 79.214844 73.65625 C 79.949219 72.390625 80.464844 71.039062 81.078125 69.726562 C 81.726562 68.332031 81.980469 66.828125 82.238281 65.328125 C 82.429688 64.222656 82.203125 64.160156 81.492188 63.863281 C 80.347656 63.386719 79.453125 62.585938 78.882812 61.480469 C 78.203125 60.15625 77.710938 58.753906 77.457031 57.277344 C 77.367188 56.742188 77.265625 56.699219 76.773438 57.007812 C 76.625 57.101562 76.484375 57.210938 76.328125 57.296875 C 74.976562 58.050781 74.21875 59.238281 73.867188 60.71875 C 73.617188 61.792969 73.488281 62.882812 73.472656 64.0625 Z M 68.332031 71.316406 C 68.332031 70.394531 68.34375 69.46875 68.324219 68.546875 C 68.320312 68.285156 68.394531 67.898438 68.050781 67.832031 C 67.789062 67.78125 67.699219 68.136719 67.578125 68.339844 C 67.429688 68.578125 67.308594 68.839844 67.191406 69.097656 C 66.726562 70.132812 66.019531 71.042969 65.640625 72.121094 C 65.070312 72.730469 64.8125 73.515625 64.484375 74.253906 C 64.152344 75 63.828125 75.746094 63.546875 76.511719 C 63.15625 77.578125 62.785156 78.648438 62.300781 79.675781 C 61.59375 81.1875 61.003906 82.742188 60.460938 84.316406 C 60.183594 85.121094 59.902344 85.9375 59.753906 86.769531 C 59.511719 88.089844 59.253906 89.410156 59.1875 90.765625 C 59.121094 92.117188 59.394531 93.367188 59.84375 94.609375 C 60.207031 95.609375 61.433594 96.023438 62.289062 95.453125 C 62.613281 95.238281 62.929688 95.003906 63.265625 94.8125 C 64.136719 94.3125 64.660156 93.546875 65.042969 92.636719 C 65.523438 91.484375 65.914062 90.308594 66.230469 89.109375 C 66.835938 86.808594 67.433594 84.507812 67.71875 82.140625 C 67.949219 80.203125 68.167969 78.265625 68.144531 76.308594 C 68.140625 75.953125 68.121094 75.59375 68.179688 75.246094 C 68.402344 73.941406 68.371094 72.628906 68.332031 71.316406 Z M 152.347656 75.257812 C 152.164062 75.242188 152.113281 75.390625 152.050781 75.507812 C 151.429688 76.636719 150.496094 77.429688 149.378906 78.011719 C 148.78125 78.320312 148.15625 78.574219 147.535156 78.828125 C 146.613281 79.199219 145.707031 78.980469 144.878906 78.574219 C 144.347656 78.3125 143.847656 77.957031 143.3125 77.683594 C 142.851562 77.441406 142.535156 77.09375 142.359375 76.59375 C 142.148438 76 141.910156 75.414062 141.6875 74.832031 C 141.335938 74.910156 141.300781 75.203125 141.152344 75.386719 C 140.257812 76.488281 139.382812 77.605469 138.480469 78.695312 C 138.210938 79.023438 137.894531 79.3125 137.570312 79.585938 C 136.917969 80.128906 136.253906 80.65625 135.585938 81.183594 C 135.195312 81.492188 134.773438 81.742188 134.320312 81.949219 C 132.597656 82.726562 130.726562 82.097656 129.546875 80.914062 C 128.9375 80.296875 128.667969 79.460938 128.449219 78.636719 C 128.25 77.882812 128.136719 77.113281 128.128906 76.324219 C 128.109375 74.976562 128.109375 73.628906 128.269531 72.285156 C 128.292969 72.078125 128.367188 71.863281 128.226562 71.667969 C 128.160156 71.671875 128.070312 71.648438 128.035156 71.679688 C 127.394531 72.34375 126.777344 73.023438 126.125 73.671875 C 125.71875 74.074219 125.667969 74.472656 125.828125 75.015625 C 126.222656 76.34375 126.453125 77.710938 126.625 79.085938 C 126.773438 80.257812 126.699219 81.425781 126.308594 82.554688 C 125.945312 83.582031 125.132812 84.027344 124.0625 83.789062 C 123.648438 83.695312 123.234375 83.609375 122.816406 83.539062 C 122.320312 83.457031 122 83.195312 121.792969 82.726562 C 120.773438 80.386719 120.914062 78.089844 122.03125 75.839844 C 122.25 75.402344 122.597656 75.027344 122.902344 74.636719 C 123.144531 74.332031 123.203125 74.035156 123.046875 73.65625 C 122.523438 72.414062 122.03125 71.160156 121.523438 69.910156 C 121.46875 69.785156 121.398438 69.667969 121.292969 69.457031 C 120.960938 69.917969 120.8125 70.386719 120.59375 70.8125 C 120.386719 71.222656 120.171875 71.632812 119.992188 72.058594 C 119.488281 73.269531 119.101562 74.511719 118.800781 75.800781 C 118.375 77.636719 117.65625 79.371094 116.480469 80.878906 C 116.152344 81.296875 115.847656 81.734375 115.523438 82.15625 C 114.929688 82.925781 114.210938 83.539062 113.292969 83.898438 C 112.984375 84.015625 112.691406 84.046875 112.363281 83.984375 C 110.714844 83.679688 109.792969 82.714844 109.683594 81.023438 C 109.542969 78.789062 109.578125 76.558594 110.195312 74.375 C 110.675781 72.664062 110.929688 70.90625 111.316406 69.171875 C 111.550781 68.113281 111.347656 67.054688 111.363281 65.992188 C 111.367188 65.855469 111.3125 65.714844 111.261719 65.582031 C 111.078125 65.105469 110.808594 64.976562 110.363281 65.226562 C 109.523438 65.699219 108.585938 65.921875 107.6875 66.222656 C 106.933594 66.472656 106.492188 66.957031 106.269531 67.671875 C 105.90625 68.824219 105.414062 69.921875 104.902344 71.011719 C 104.828125 71.171875 104.753906 71.339844 104.722656 71.511719 C 104.605469 72.160156 104.285156 72.707031 103.925781 73.238281 C 103.625 73.683594 103.410156 74.160156 103.210938 74.65625 C 102.625 76.105469 101.871094 77.472656 101.066406 78.808594 C 100.9375 79.015625 100.757812 79.195312 100.585938 79.371094 C 100.058594 79.898438 99.554688 80.4375 99.082031 81.019531 C 98.363281 81.898438 97.394531 82.023438 96.445312 81.40625 C 95.828125 81.007812 95.378906 80.488281 95.210938 79.746094 C 94.964844 78.671875 94.746094 77.597656 94.808594 76.484375 C 94.828125 76.164062 94.835938 75.84375 94.828125 75.523438 C 94.753906 72.832031 95.253906 70.230469 96.03125 67.671875 C 96.496094 66.140625 97.074219 64.65625 97.671875 63.171875 C 97.789062 62.878906 97.886719 62.574219 97.964844 62.265625 C 98.003906 62.128906 97.960938 61.964844 97.78125 61.949219 C 97.703125 61.941406 97.550781 62.023438 97.535156 62.085938 C 97.386719 62.765625 97.007812 63.3125 96.621094 63.867188 C 96.355469 64.25 96.246094 64.710938 96.167969 65.164062 C 96.085938 65.625 95.921875 66.054688 95.738281 66.476562 C 95.464844 67.09375 95.183594 67.703125 95.019531 68.363281 C 94.945312 68.667969 94.769531 68.949219 94.644531 69.242188 C 94.507812 69.566406 94.359375 69.890625 94.253906 70.226562 C 94.152344 70.570312 94.03125 70.898438 93.832031 71.199219 C 93.753906 71.316406 93.65625 71.433594 93.621094 71.566406 C 93.214844 73.128906 91.917969 74.152344 91.238281 75.546875 C 90.355469 76.515625 89.445312 77.46875 88.398438 78.242188 C 87.570312 78.855469 86.589844 78.738281 85.671875 78.316406 C 85.511719 78.242188 85.382812 78.109375 85.230469 78.019531 C 84.664062 77.675781 84.429688 77.175781 84.425781 76.507812 C 84.417969 75.609375 84.539062 74.726562 84.816406 73.886719 C 85.304688 72.40625 85.636719 70.878906 86.207031 69.417969 C 86.617188 68.363281 86.996094 67.292969 87.398438 66.234375 C 88.078125 64.429688 89.019531 62.769531 89.9375 61.089844 C 90.277344 60.46875 90.59375 59.84375 90.785156 59.105469 C 90.167969 59.527344 89.863281 59.8125 89.542969 60.363281 C 89.066406 61.191406 88.410156 61.796875 87.566406 62.230469 C 86.714844 62.664062 85.898438 63.15625 85.054688 63.605469 C 84.746094 63.769531 84.570312 64 84.515625 64.339844 C 84.480469 64.550781 84.417969 64.757812 84.390625 64.96875 C 84.199219 66.59375 83.746094 68.164062 83.289062 69.730469 C 83.171875 70.140625 83.015625 70.542969 83.039062 70.976562 C 83.070312 71.574219 82.847656 72.082031 82.589844 72.59375 C 82.144531 73.480469 81.769531 74.40625 81.074219 75.144531 C 80.242188 76.023438 79.25 76.5625 78.042969 76.734375 C 77.445312 76.820312 76.90625 76.640625 76.390625 76.445312 C 75.246094 76.011719 74.226562 75.390625 73.808594 74.117188 C 73.765625 73.984375 73.695312 73.859375 73.621094 73.738281 C 72.773438 72.367188 72.226562 70.871094 71.847656 69.3125 C 71.410156 67.546875 71.167969 65.761719 71.449219 63.9375 C 71.523438 63.457031 71.578125 62.96875 71.441406 62.488281 C 71.082031 62.519531 71.007812 62.789062 70.890625 62.988281 C 70.613281 63.441406 70.375 63.917969 70.113281 64.378906 C 69.964844 64.640625 69.933594 64.910156 69.984375 65.203125 C 70.113281 65.941406 70.070312 66.6875 70.09375 67.429688 C 70.136719 68.847656 70.140625 70.265625 70.136719 71.683594 C 70.132812 72.960938 70.171875 74.230469 69.925781 75.496094 C 69.882812 75.703125 69.875 75.921875 69.886719 76.132812 C 70 78.203125 69.574219 80.230469 69.414062 82.277344 C 69.371094 82.800781 69.167969 83.3125 69.0625 83.832031 C 68.738281 85.429688 68.410156 87.027344 68.113281 88.632812 C 67.960938 89.46875 67.886719 90.320312 67.582031 91.125 C 67.519531 91.289062 67.511719 91.488281 67.417969 91.625 C 66.851562 92.449219 66.519531 93.398438 65.988281 94.230469 C 65.34375 95.242188 64.417969 95.953125 63.257812 96.308594 C 62.816406 96.441406 62.371094 96.546875 61.917969 96.636719 C 60.929688 96.828125 60.035156 96.519531 59.175781 96.0625 C 58.945312 95.9375 58.816406 95.734375 58.695312 95.511719 C 57.871094 93.957031 57.589844 92.3125 57.832031 90.566406 C 57.929688 89.867188 57.949219 89.152344 57.964844 88.441406 C 57.976562 87.796875 58.082031 87.171875 58.257812 86.554688 C 58.449219 85.871094 58.648438 85.191406 58.832031 84.503906 C 59.097656 83.507812 59.488281 82.558594 59.890625 81.609375 C 60.585938 79.980469 61.300781 78.359375 61.890625 76.683594 C 62.289062 75.546875 62.726562 74.421875 63.226562 73.324219 C 63.710938 72.261719 64.296875 71.25 64.835938 70.214844 C 65.097656 69.710938 65.386719 69.21875 65.601562 68.695312 C 66.066406 67.570312 66.714844 66.550781 67.421875 65.578125 C 68.023438 64.746094 68.234375 63.878906 68.019531 62.871094 C 67.910156 62.355469 67.945312 61.804688 67.847656 61.285156 C 67.480469 59.398438 66.910156 57.574219 66.152344 55.808594 C 66.113281 55.710938 66.066406 55.613281 66.015625 55.523438 C 65.875 55.265625 65.613281 55.246094 65.421875 55.492188 C 65.335938 55.601562 65.242188 55.71875 65.191406 55.84375 C 64.875 56.632812 64.589844 57.421875 64.570312 58.300781 C 64.535156 59.804688 64.183594 61.234375 63.539062 62.613281 C 62.960938 63.847656 62.214844 64.941406 61.3125 65.953125 C 59.691406 67.777344 56.898438 67.667969 55.246094 66.339844 C 54.464844 65.710938 54.09375 64.835938 53.914062 63.871094 C 53.734375 62.886719 53.671875 61.894531 53.71875 60.898438 C 53.78125 59.554688 53.390625 58.300781 52.976562 57.058594 C 52.722656 56.300781 52.15625 55.742188 51.539062 55.25 C 51.511719 55.226562 51.480469 55.207031 51.449219 55.191406 C 50.390625 54.601562 49.941406 54.871094 49.484375 55.78125 C 49.253906 56.238281 49.132812 56.773438 49.195312 57.289062 C 49.484375 57.449219 49.59375 57.144531 49.8125 57.152344 C 50.320312 57.167969 50.789062 57.492188 50.832031 57.910156 C 50.878906 58.351562 50.429688 58.902344 49.953125 58.949219 C 49.316406 59.007812 48.734375 58.816406 48.351562 58.300781 C 47.96875 57.785156 47.757812 57.171875 47.925781 56.5 C 48.011719 56.15625 48.105469 55.8125 48.207031 55.476562 C 48.542969 54.382812 49.367188 53.917969 50.425781 53.792969 C 50.738281 53.757812 51.0625 53.78125 51.378906 53.792969 C 51.96875 53.808594 52.484375 54.039062 52.898438 54.453125 C 53.34375 54.90625 53.769531 55.386719 54.078125 55.953125 C 54.847656 57.382812 55.285156 58.902344 55.265625 60.539062 C 55.261719 61.25 55.261719 61.960938 55.285156 62.667969 C 55.3125 63.382812 55.464844 64.066406 55.699219 64.746094 C 56.171875 66.128906 58.410156 66.828125 59.574219 65.558594 C 60.054688 65.035156 60.570312 64.546875 60.894531 63.902344 C 60.925781 63.839844 60.960938 63.777344 61.003906 63.71875 C 62.175781 62.042969 62.613281 60.121094 62.855469 58.128906 C 62.949219 57.355469 63.09375 56.582031 63.28125 55.828125 C 63.542969 54.773438 64.507812 53.921875 65.554688 53.882812 C 66.382812 53.851562 67.164062 54.09375 67.699219 54.824219 C 68.148438 55.433594 68.441406 56.113281 68.613281 56.847656 C 68.824219 57.746094 68.996094 58.648438 69.339844 59.511719 C 69.445312 59.769531 69.4375 60.070312 69.484375 60.347656 C 69.535156 60.625 69.589844 60.902344 69.652344 61.179688 C 69.671875 61.28125 69.703125 61.386719 69.910156 61.417969 C 70.257812 60.953125 70.636719 60.457031 71.007812 59.953125 C 71.261719 59.609375 71.515625 59.269531 71.75 58.914062 C 72.046875 58.46875 72.394531 58.074219 72.8125 57.738281 C 73.257812 57.378906 73.671875 56.988281 73.945312 56.480469 C 74.417969 55.601562 75.242188 55.203125 76.105469 54.867188 C 77.292969 54.40625 78.503906 54.4375 79.75 54.632812 C 81.035156 54.835938 82.0625 55.464844 83.019531 56.269531 C 83.320312 56.523438 83.5625 56.839844 83.703125 57.210938 C 84.023438 58.035156 84.324219 58.871094 84.617188 59.707031 C 84.785156 60.183594 84.691406 60.695312 84.734375 61.1875 C 84.757812 61.457031 84.933594 61.582031 85.167969 61.476562 C 86.074219 61.078125 86.957031 60.65625 87.589844 59.824219 C 88.078125 59.179688 88.648438 58.585938 89.226562 58.011719 C 89.90625 57.328125 90.757812 57.199219 91.671875 57.414062 C 91.894531 57.464844 92.042969 57.609375 92.144531 57.804688 C 92.28125 58.0625 92.335938 58.339844 92.351562 58.625 C 92.402344 59.59375 92.300781 60.53125 91.851562 61.417969 C 91.277344 62.558594 90.761719 63.726562 90.082031 64.8125 C 89.933594 65.050781 89.804688 65.3125 89.707031 65.574219 C 89.242188 66.839844 88.785156 68.105469 88.328125 69.371094 C 88.304688 69.4375 88.296875 69.515625 88.265625 69.578125 C 87.605469 70.84375 87.347656 72.257812 86.863281 73.585938 C 86.507812 74.554688 86.5625 75.539062 86.671875 76.527344 C 86.707031 76.824219 86.984375 76.914062 87.226562 76.707031 C 87.972656 76.058594 88.769531 75.464844 89.359375 74.648438 C 89.820312 74.019531 90.320312 73.421875 90.796875 72.804688 C 90.902344 72.664062 91.003906 72.515625 91.078125 72.355469 C 91.828125 70.714844 92.613281 69.089844 93.230469 67.386719 C 93.582031 66.421875 94.039062 65.496094 94.199219 64.464844 C 94.214844 64.363281 94.246094 64.253906 94.300781 64.164062 C 95.019531 62.996094 95.535156 61.707031 96.410156 60.625 C 96.746094 60.207031 97.152344 59.996094 97.667969 59.929688 C 97.925781 59.894531 98.15625 59.898438 98.382812 60.035156 C 98.5 60.109375 98.625 60.179688 98.75 60.246094 C 99.878906 60.855469 100.253906 61.765625 99.839844 62.996094 C 99.410156 64.273438 98.972656 65.546875 98.488281 66.804688 C 97.875 68.40625 97.492188 70.058594 97.238281 71.75 C 97.195312 72.027344 97.183594 72.316406 97.121094 72.59375 C 96.792969 74.058594 96.8125 75.550781 96.800781 77.042969 C 96.796875 77.867188 96.972656 78.664062 97.109375 79.464844 C 97.1875 79.945312 97.5625 80.070312 97.996094 79.8125 C 98.460938 79.539062 98.832031 79.15625 99.132812 78.714844 C 99.609375 78.011719 100.039062 77.28125 100.425781 76.519531 C 101.085938 75.226562 101.527344 73.824219 102.363281 72.625 C 102.464844 72.480469 102.550781 72.316406 102.601562 72.148438 C 103.085938 70.585938 103.859375 69.140625 104.425781 67.613281 C 104.449219 67.542969 104.480469 67.480469 104.503906 67.414062 C 104.816406 66.589844 104.773438 66.554688 104.132812 65.988281 C 102.988281 64.980469 102.324219 63.640625 101.9375 62.171875 C 101.859375 61.875 101.851562 61.527344 101.90625 61.222656 C 102.148438 59.855469 102.558594 58.539062 103.179688 57.289062 C 103.734375 56.160156 104.660156 55.609375 105.875 55.519531 C 106.332031 55.484375 106.796875 55.472656 107.25 55.523438 C 107.988281 55.609375 108.382812 56.035156 108.449219 56.777344 C 108.511719 57.488281 108.476562 58.195312 108.378906 58.902344 C 108.339844 59.183594 108.261719 59.464844 108.277344 59.746094 C 108.347656 60.902344 108.101562 62 107.707031 63.078125 C 107.585938 63.40625 107.507812 63.761719 107.480469 64.113281 C 107.441406 64.5625 107.757812 64.898438 108.207031 64.738281 C 108.90625 64.492188 109.605469 64.246094 110.296875 63.984375 C 110.882812 63.765625 111.46875 63.753906 112.066406 63.917969 C 112.464844 64.027344 112.757812 64.25 112.90625 64.65625 C 113.003906 64.921875 113.125 65.179688 113.253906 65.429688 C 113.472656 65.855469 113.546875 66.300781 113.457031 66.769531 C 113.429688 66.910156 113.394531 67.050781 113.398438 67.191406 C 113.433594 69.066406 112.847656 70.828125 112.441406 72.625 C 112.183594 73.769531 111.886719 74.910156 111.746094 76.066406 C 111.535156 77.757812 111.503906 79.464844 111.855469 81.152344 C 111.914062 81.429688 112.015625 81.699219 112.121094 81.960938 C 112.210938 82.183594 112.449219 82.265625 112.648438 82.136719 C 112.914062 81.964844 113.179688 81.78125 113.402344 81.558594 C 114.308594 80.65625 115.121094 79.679688 115.671875 78.503906 C 116.195312 77.378906 116.761719 76.285156 116.964844 75.03125 C 117.054688 74.445312 117.324219 73.882812 117.539062 73.320312 C 117.941406 72.257812 118.375 71.210938 118.769531 70.148438 C 119.21875 68.953125 119.628906 67.746094 120.070312 66.546875 C 120.21875 66.152344 120.179688 65.792969 120.023438 65.414062 C 119.625 64.464844 119.292969 63.492188 119.019531 62.5 C 118.917969 62.121094 118.808594 61.746094 118.910156 61.347656 C 118.945312 61.210938 118.976562 61.058594 118.941406 60.929688 C 118.652344 59.738281 119.34375 58.804688 119.753906 57.804688 C 119.828125 57.617188 119.992188 57.4375 120.164062 57.328125 C 120.695312 56.980469 121.234375 56.644531 121.863281 56.480469 C 122.339844 56.359375 122.769531 56.402344 123.183594 56.660156 C 123.394531 56.792969 123.597656 56.933594 123.804688 57.070312 C 124.160156 57.300781 124.320312 57.644531 124.339844 58.058594 C 124.355469 58.375 124.378906 58.699219 124.339844 59.015625 C 124.09375 60.992188 123.691406 62.933594 122.921875 64.78125 C 122.828125 65.011719 122.730469 65.238281 122.628906 65.464844 C 122.480469 65.808594 122.5 66.140625 122.589844 66.503906 C 123.007812 68.195312 123.609375 69.824219 124.277344 71.429688 C 124.441406 71.820312 124.632812 72.191406 124.914062 72.5625 C 125.3125 72.386719 125.542969 72.058594 125.792969 71.777344 C 126.589844 70.878906 127.359375 69.949219 128.167969 69.054688 C 128.5625 68.621094 128.792969 68.125 128.925781 67.5625 C 129.304688 65.9375 129.710938 64.320312 130.082031 62.695312 C 130.410156 61.25 131.125 59.988281 131.875 58.742188 C 131.894531 58.710938 131.914062 58.683594 131.941406 58.65625 C 132.710938 57.820312 133.574219 57.082031 134.519531 56.460938 C 135.269531 55.972656 136.050781 56.007812 136.808594 56.527344 C 137.085938 56.714844 137.28125 56.949219 137.402344 57.25 C 137.71875 58.027344 137.824219 58.824219 137.597656 59.644531 C 137.25 60.886719 136.65625 62.015625 136.066406 63.144531 C 136 63.269531 135.925781 63.398438 135.824219 63.496094 C 134.832031 64.449219 134.007812 65.570312 132.953125 66.472656 C 132.390625 66.953125 131.871094 67.488281 131.335938 68.003906 C 131.019531 68.308594 130.820312 68.675781 130.746094 69.113281 C 130.699219 69.390625 130.621094 69.667969 130.597656 69.949219 C 130.40625 72 130.203125 74.046875 130.308594 76.109375 C 130.359375 77.035156 130.542969 77.941406 130.746094 78.839844 C 130.859375 79.332031 131.101562 79.769531 131.359375 80.191406 C 131.78125 80.867188 132.390625 81.027344 133.085938 80.613281 C 133.941406 80.105469 134.6875 79.445312 135.417969 78.777344 C 136.207031 78.058594 136.832031 77.191406 137.492188 76.367188 C 138.265625 75.398438 139.03125 74.425781 139.589844 73.300781 C 139.886719 72.703125 140.328125 72.179688 140.722656 71.632812 C 141.386719 70.714844 141.691406 69.71875 141.722656 68.558594 C 141.792969 66.152344 141.984375 63.742188 142.140625 61.339844 C 142.167969 60.953125 142.277344 60.570312 142.355469 60.1875 C 142.476562 59.597656 142.628906 59.011719 142.71875 58.417969 C 142.960938 56.792969 143.398438 55.226562 144.023438 53.710938 C 144.128906 53.449219 144.222656 53.179688 144.304688 52.90625 C 144.566406 52.046875 144.964844 51.273438 145.554688 50.585938 C 145.898438 50.183594 146.195312 49.738281 146.492188 49.296875 C 146.949219 48.613281 147.5 48 148.148438 47.511719 C 148.953125 46.90625 149.878906 46.570312 150.921875 46.746094 C 151.300781 46.808594 151.5625 47.003906 151.753906 47.335938 C 151.972656 47.710938 152.074219 48.113281 152.117188 48.542969 C 152.203125 49.40625 152.097656 50.261719 151.886719 51.082031 C 151.46875 52.734375 151.265625 54.425781 150.945312 56.09375 C 150.808594 56.800781 150.5625 57.460938 150.324219 58.125 C 149.886719 59.355469 149.484375 60.601562 148.933594 61.796875 C 148.460938 62.824219 148.09375 63.902344 147.597656 64.921875 C 147.261719 65.625 146.949219 66.339844 146.625 67.046875 C 146.457031 67.402344 146.226562 67.714844 145.992188 68.027344 C 145.433594 68.757812 144.890625 69.503906 144.359375 70.257812 C 143.898438 70.910156 143.679688 71.625 143.671875 72.445312 C 143.664062 73.675781 143.953125 74.839844 144.285156 76 C 144.433594 76.519531 144.730469 76.945312 145.238281 77.21875 C 145.808594 77.53125 146.332031 77.570312 146.945312 77.289062 C 148.003906 76.804688 148.894531 76.148438 149.492188 75.132812 C 149.730469 74.730469 150.023438 74.378906 150.34375 74.046875 C 150.992188 73.378906 151.527344 72.640625 151.789062 71.722656 C 151.847656 71.523438 151.917969 71.308594 152.042969 71.144531 C 152.535156 70.507812 152.742188 69.753906 152.9375 68.996094 C 153.304688 67.589844 153.628906 66.175781 153.609375 64.699219 C 153.605469 64.171875 153.738281 63.644531 153.789062 63.113281 C 153.929688 61.667969 154.023438 60.214844 154.203125 58.773438 C 154.492188 56.484375 154.890625 54.214844 155.753906 52.050781 C 156.242188 50.824219 156.984375 49.742188 157.671875 48.625 C 157.882812 48.285156 158.214844 48.0625 158.601562 47.957031 C 159.042969 47.839844 159.492188 47.722656 159.945312 47.660156 C 160.65625 47.570312 161.121094 47.871094 161.25 48.589844 C 161.441406 49.636719 161.550781 50.699219 161.367188 51.761719 C 161.234375 52.53125 161.039062 53.285156 161.109375 54.082031 C 161.132812 54.316406 161.023438 54.566406 160.964844 54.804688 C 160.707031 55.875 160.4375 56.941406 160.1875 58.011719 C 159.976562 58.917969 159.550781 59.738281 159.175781 60.578125 C 158.871094 61.257812 158.527344 61.917969 158.296875 62.628906 C 158.113281 63.210938 157.816406 63.730469 157.460938 64.222656 C 157.394531 64.308594 157.378906 64.425781 157.457031 64.511719 C 157.5 64.554688 157.585938 64.582031 157.648438 64.574219 C 158.382812 64.492188 159.113281 64.386719 159.851562 64.316406 C 160.128906 64.289062 160.414062 64.308594 160.691406 64.347656 C 161.671875 64.480469 162.65625 64.597656 163.625 64.78125 C 164.269531 64.898438 164.730469 64.703125 165.09375 64.191406 C 165.542969 63.554688 166.007812 62.929688 166.433594 62.273438 C 166.804688 61.703125 167.308594 61.257812 167.730469 60.730469 C 167.816406 60.625 167.949219 60.550781 168.066406 60.476562 C 168.316406 60.316406 168.566406 60.386719 168.675781 60.652344 C 168.742188 60.816406 168.8125 60.984375 168.832031 61.15625 C 168.917969 62.019531 168.882812 62.855469 168.347656 63.601562 C 168.121094 63.917969 167.945312 64.269531 167.734375 64.597656 C 167.253906 65.339844 166.605469 65.863281 165.746094 66.089844 C 165.542969 66.144531 165.328125 66.203125 165.125 66.191406 C 164.101562 66.144531 163.082031 66.074219 162.0625 66.019531 C 161.628906 65.996094 161.246094 65.808594 160.855469 65.648438 C 159.886719 65.246094 158.984375 65.589844 158.085938 65.917969 C 157.910156 65.984375 157.839844 66.164062 157.828125 66.351562 C 157.753906 67.628906 158.035156 68.730469 159.191406 69.488281 C 160.71875 70.492188 161.550781 71.984375 162.003906 73.726562 C 162.375 75.148438 162.542969 76.597656 162.5 78.046875 C 162.457031 79.640625 162.238281 81.230469 161.703125 82.753906 C 161.433594 83.519531 161.1875 84.292969 160.808594 85.023438 C 160.007812 86.582031 157.640625 87.492188 155.945312 86.566406 C 155.726562 86.449219 155.5 86.351562 155.273438 86.25 C 154.625 85.953125 154.199219 85.460938 153.980469 84.78125 C 153.628906 83.703125 153.257812 82.628906 152.933594 81.542969 C 152.679688 80.691406 152.546875 79.8125 152.496094 78.921875 C 152.480469 78.605469 152.480469 78.28125 152.421875 77.96875 C 152.277344 77.191406 152.28125 76.417969 152.410156 75.640625 C 152.433594 75.507812 152.480469 75.363281 152.347656 75.257812 "/>
<path style=" stroke:none;fill-rule:nonzero;fill:rgb(0%,50.19989%,21.569824%);fill-opacity:1;" d="M 118.113281 47.589844 C 118.4375 47.082031 118.65625 46.488281 118.882812 45.902344 C 118.984375 45.636719 119.066406 45.367188 119.195312 45.117188 C 119.410156 44.695312 119.71875 44.359375 120.160156 44.167969 C 120.453125 44.046875 120.753906 44.234375 120.75 44.554688 C 120.746094 44.765625 120.726562 44.984375 120.667969 45.183594 C 120.214844 46.714844 119.605469 48.1875 119.015625 49.667969 C 118.960938 49.796875 118.890625 49.925781 118.808594 50.039062 C 118.539062 50.417969 118.035156 50.4375 117.710938 50.09375 C 117.613281 49.988281 117.535156 49.871094 117.457031 49.753906 C 117.296875 49.519531 117.160156 49.265625 116.984375 49.046875 C 116.777344 48.792969 116.699219 48.265625 116.285156 48.390625 C 115.976562 48.484375 116.128906 48.960938 116.039062 49.253906 C 115.972656 49.492188 115.921875 49.738281 115.835938 49.96875 C 115.730469 50.25 115.53125 50.425781 115.234375 50.515625 C 114.5 50.734375 114.109375 50.421875 114.257812 49.671875 C 114.507812 48.421875 114.792969 47.175781 115.0625 45.929688 C 115.085938 45.828125 115.113281 45.722656 115.160156 45.628906 C 115.445312 45.066406 116.046875 45.011719 116.414062 45.519531 C 116.804688 46.066406 117.1875 46.621094 117.585938 47.160156 C 117.707031 47.324219 117.789062 47.542969 118.113281 47.589844 "/>
<path style=" stroke:none;fill-rule:nonzero;fill:rgb(0%,50.19989%,21.569824%);fill-opacity:1;" d="M 112.46875 49.074219 C 112.734375 49.042969 113.046875 48.960938 113.359375 49.09375 C 113.570312 49.183594 113.707031 49.328125 113.71875 49.566406 C 113.726562 49.757812 113.636719 49.914062 113.484375 50.015625 C 113.21875 50.195312 112.914062 50.289062 112.597656 50.339844 C 111.554688 50.503906 110.511719 50.671875 109.46875 50.839844 C 109.085938 50.902344 108.699219 50.949219 108.316406 50.859375 C 108.09375 50.8125 107.933594 50.679688 107.890625 50.445312 C 107.847656 50.210938 108 49.945312 108.253906 49.863281 C 108.585938 49.757812 108.933594 49.6875 109.273438 49.59375 C 109.679688 49.480469 109.945312 49.21875 110.058594 48.808594 C 110.171875 48.402344 110.292969 47.992188 110.394531 47.582031 C 110.464844 47.308594 110.328125 47.15625 110.070312 47.199219 C 109.757812 47.253906 109.445312 47.320312 109.136719 47.378906 C 108.816406 47.441406 108.503906 47.425781 108.203125 47.296875 C 108.027344 47.222656 107.894531 47.101562 107.878906 46.910156 C 107.863281 46.664062 108.035156 46.53125 108.234375 46.4375 C 108.296875 46.40625 108.367188 46.382812 108.4375 46.375 C 109.878906 46.230469 111.265625 45.808594 112.6875 45.542969 C 112.996094 45.484375 113.3125 45.453125 113.628906 45.433594 C 113.8125 45.417969 113.980469 45.480469 114.070312 45.660156 C 114.179688 45.886719 114.097656 46.089844 113.933594 46.234375 C 113.808594 46.347656 113.636719 46.421875 113.476562 46.472656 C 113.070312 46.589844 112.660156 46.6875 112.246094 46.789062 C 111.90625 46.871094 111.707031 47.082031 111.613281 47.421875 C 111.492188 47.871094 111.390625 48.316406 111.421875 48.78125 C 111.433594 48.929688 111.523438 49.058594 111.683594 49.070312 C 111.929688 49.085938 112.175781 49.074219 112.46875 49.074219 "/>
<path style=" stroke:none;fill-rule:nonzero;fill:rgb(100%,8.628845%,8.628845%);fill-opacity:1;" d="M 82.402344 99.3125 C 82.574219 96.898438 82.992188 94.527344 83.566406 92.183594 C 84.011719 90.359375 84.410156 88.527344 84.863281 86.707031 C 85.21875 85.261719 85.46875 83.796875 85.839844 82.355469 C 85.890625 82.15625 85.964844 81.953125 86.054688 81.761719 C 86.121094 81.621094 86.269531 81.578125 86.414062 81.609375 C 86.558594 81.640625 86.652344 81.75 86.691406 81.898438 C 86.769531 82.183594 86.691406 82.460938 86.628906 82.734375 C 86.199219 84.636719 85.777344 86.539062 85.332031 88.4375 C 84.800781 90.714844 84.230469 92.984375 83.703125 95.261719 C 83.539062 95.984375 83.421875 96.726562 83.359375 97.464844 C 83.289062 98.320312 83.066406 99.140625 82.910156 99.976562 C 82.890625 100.070312 82.824219 100.171875 82.757812 100.242188 C 82.722656 100.28125 82.625 100.292969 82.566406 100.277344 C 82.503906 100.261719 82.414062 100.203125 82.410156 100.15625 C 82.394531 99.875 82.402344 99.59375 82.402344 99.3125 "/>
<path style=" stroke:none;fill-rule:nonzero;fill:rgb(100%,8.628845%,8.628845%);fill-opacity:1;" d="M 135.476562 85.050781 C 135.636719 85.007812 135.773438 85.082031 135.84375 85.199219 C 136.023438 85.503906 136.1875 85.816406 136.328125 86.140625 C 136.96875 87.605469 137.445312 89.132812 137.90625 90.65625 C 138.738281 93.425781 139.964844 96.011719 141.441406 98.484375 C 141.476562 98.546875 141.519531 98.605469 141.550781 98.667969 C 141.632812 98.824219 141.742188 99.023438 141.550781 99.132812 C 141.375 99.238281 141.234375 99.050781 141.117188 98.917969 C 140.980469 98.757812 140.847656 98.589844 140.71875 98.421875 C 139.796875 97.199219 139.046875 95.882812 138.429688 94.480469 C 137.625 92.660156 137.015625 90.773438 136.386719 88.890625 C 136.070312 87.949219 135.769531 87.003906 135.308594 86.117188 C 135.214844 85.933594 135.160156 85.71875 135.117188 85.515625 C 135.082031 85.328125 135.28125 85.089844 135.476562 85.050781 "/>
<path style=" stroke:none;fill-rule:nonzero;fill:rgb(100%,8.628845%,8.628845%);fill-opacity:1;" d="M 114.878906 87.683594 C 114.898438 87.683594 115.03125 87.804688 115.101562 87.96875 C 115.269531 88.363281 115.328125 88.785156 115.375 89.210938 C 115.492188 90.300781 115.527344 91.398438 115.617188 92.492188 C 115.777344 94.394531 115.957031 96.300781 116.308594 98.183594 C 116.488281 99.15625 116.675781 100.128906 116.859375 101.105469 C 116.890625 101.277344 116.941406 101.453125 116.941406 101.625 C 116.941406 101.769531 116.859375 101.898438 116.703125 101.941406 C 116.554688 101.984375 116.414062 101.949219 116.328125 101.828125 C 116.226562 101.6875 116.125 101.53125 116.082031 101.367188 C 115.953125 100.890625 115.820312 100.410156 115.742188 99.921875 C 115.472656 98.207031 115.207031 96.496094 114.96875 94.777344 C 114.847656 93.902344 114.757812 93.019531 114.71875 92.136719 C 114.664062 90.859375 114.523438 89.59375 114.324219 88.332031 C 114.300781 88.203125 114.324219 88.050781 114.363281 87.921875 C 114.410156 87.78125 114.539062 87.710938 114.878906 87.683594 "/>
<path style=" stroke:none;fill-rule:nonzero;fill:rgb(100%,8.628845%,8.628845%);fill-opacity:1;" d="M 95 85.382812 C 94.894531 86.355469 94.785156 87.515625 94.644531 88.675781 C 94.433594 90.398438 94.214844 92.121094 93.96875 93.839844 C 93.828125 94.820312 93.632812 95.796875 93.457031 96.773438 C 93.425781 96.945312 93.386719 97.121094 93.242188 97.242188 C 93.21875 97.261719 93.175781 97.289062 93.148438 97.28125 C 93.085938 97.257812 93.011719 97.230469 92.976562 97.179688 C 92.871094 97.027344 92.890625 96.84375 92.910156 96.667969 C 93.074219 95.332031 93.253906 93.996094 93.402344 92.65625 C 93.507812 91.707031 93.566406 90.75 93.660156 89.796875 C 93.75 88.847656 93.839844 87.890625 93.96875 86.945312 C 94.058594 86.308594 94.082031 85.671875 94.089844 85.035156 C 94.09375 84.753906 94.097656 84.46875 94.140625 84.1875 C 94.167969 84.007812 94.292969 83.867188 94.5 83.863281 C 94.699219 83.859375 94.832031 83.972656 94.914062 84.140625 C 95.074219 84.476562 94.984375 84.839844 95 85.382812 "/>
<path style=" stroke:none;fill-rule:nonzero;fill:rgb(100%,8.628845%,8.628845%);fill-opacity:1;" d="M 174.5 77.96875 C 173.152344 78.007812 171.828125 77.75 170.492188 77.640625 C 169.402344 77.554688 168.316406 77.429688 167.230469 77.292969 C 166.636719 77.222656 166.046875 77.105469 165.460938 76.992188 C 165.289062 76.957031 165.121094 76.886719 164.964844 76.8125 C 164.757812 76.71875 164.652344 76.464844 164.722656 76.28125 C 164.792969 76.089844 164.953125 76.027344 165.140625 76.019531 C 165.242188 76.015625 165.351562 76.027344 165.453125 76.050781 C 167.253906 76.40625 169.089844 76.515625 170.902344 76.785156 C 172.46875 77.019531 174.042969 77.234375 175.613281 77.460938 C 175.820312 77.488281 176.039062 77.503906 176.199219 77.664062 C 176.242188 77.703125 176.253906 77.785156 176.261719 77.847656 C 176.265625 77.867188 176.214844 77.902344 176.183594 77.910156 C 175.625 78.054688 175.058594 77.949219 174.5 77.96875 "/>
<path style=" stroke:none;fill-rule:nonzero;fill:rgb(100%,8.628845%,8.628845%);fill-opacity:1;" d="M 152.273438 92.992188 C 152.257812 93.019531 152.246094 93.066406 152.222656 93.074219 C 152.160156 93.09375 152.082031 93.121094 152.03125 93.101562 C 151.789062 93 151.65625 92.785156 151.5 92.59375 C 149.894531 90.566406 148.429688 88.449219 147.234375 86.148438 C 146.824219 85.363281 146.382812 84.597656 146.054688 83.769531 C 145.980469 83.574219 145.90625 83.371094 145.867188 83.164062 C 145.832031 82.984375 145.875 82.800781 146.054688 82.710938 C 146.25 82.613281 146.398438 82.714844 146.503906 82.871094 C 146.605469 83.015625 146.695312 83.167969 146.773438 83.328125 C 148.324219 86.476562 150.085938 89.503906 152.027344 92.421875 C 152.273438 92.785156 152.257812 92.796875 152.273438 92.992188 "/>
<path style=" stroke:none;fill-rule:nonzero;fill:rgb(100%,8.628845%,8.628845%);fill-opacity:1;" d="M 171.996094 48.132812 C 172.035156 48.324219 171.929688 48.46875 171.816406 48.605469 C 171.230469 49.308594 170.648438 50.023438 170.054688 50.71875 C 168.902344 52.058594 167.746094 53.390625 166.582031 54.71875 C 166.445312 54.875 166.292969 55.027344 166.117188 55.132812 C 165.957031 55.230469 165.773438 55.175781 165.628906 55.050781 C 165.480469 54.921875 165.4375 54.75 165.511719 54.574219 C 165.566406 54.445312 165.644531 54.320312 165.738281 54.21875 C 166.941406 52.882812 168.027344 51.4375 169.324219 50.183594 C 169.574219 49.941406 169.785156 49.652344 169.992188 49.367188 C 170.441406 48.757812 171.074219 48.375 171.679688 47.957031 C 171.796875 47.875 171.996094 47.992188 171.996094 48.132812 "/>
<path style=" stroke:none;fill-rule:nonzero;fill:rgb(100%,8.628845%,8.628845%);fill-opacity:1;" d="M 52.261719 67.78125 C 52.296875 67.972656 52.222656 68.132812 52.128906 68.28125 C 51.917969 68.609375 51.707031 68.941406 51.472656 69.25 C 50.253906 70.902344 49.019531 72.542969 47.632812 74.058594 C 47.035156 74.710938 46.476562 75.398438 45.894531 76.066406 C 45.804688 76.167969 45.6875 76.253906 45.570312 76.324219 C 45.535156 76.347656 45.449219 76.300781 45.390625 76.273438 C 45.367188 76.261719 45.355469 76.214844 45.351562 76.183594 C 45.324219 75.988281 45.433594 75.839844 45.539062 75.699219 C 46.121094 74.898438 46.699219 74.097656 47.300781 73.308594 C 48.285156 72.011719 49.296875 70.734375 50.277344 69.4375 C 50.597656 69.015625 50.855469 68.546875 51.152344 68.105469 C 51.289062 67.902344 51.441406 67.707031 51.609375 67.527344 C 51.710938 67.417969 51.863281 67.414062 52.003906 67.46875 C 52.144531 67.523438 52.222656 67.640625 52.261719 67.78125 "/>
<path style=" stroke:none;fill-rule:nonzero;fill:rgb(100%,8.628845%,8.628845%);fill-opacity:1;" d="M 59.804688 71.097656 C 59.742188 71.253906 59.691406 71.425781 59.609375 71.574219 C 58.570312 73.378906 57.566406 75.207031 56.242188 76.832031 C 55.484375 77.761719 54.773438 78.734375 54.039062 79.683594 C 53.933594 79.820312 53.8125 79.949219 53.683594 80.070312 C 53.605469 80.144531 53.488281 80.164062 53.402344 80.085938 C 53.316406 80.007812 53.332031 79.894531 53.382812 79.796875 C 53.425781 79.703125 53.480469 79.609375 53.539062 79.519531 C 53.691406 79.285156 53.84375 79.042969 54.011719 78.816406 C 55.679688 76.574219 57.238281 74.261719 58.511719 71.769531 C 58.691406 71.425781 58.867188 71.070312 59.195312 70.835938 C 59.3125 70.75 59.46875 70.746094 59.59375 70.828125 C 59.671875 70.878906 59.71875 70.984375 59.804688 71.097656 "/>
<path style=" stroke:none;fill-rule:nonzero;fill:rgb(100%,8.628845%,8.628845%);fill-opacity:1;" d="M 125.535156 86.535156 C 125.875 86.566406 125.976562 86.71875 126.054688 86.875 C 126.332031 87.457031 126.457031 88.085938 126.558594 88.710938 C 126.742188 89.863281 126.78125 91.035156 127.070312 92.171875 C 127.082031 92.203125 127.085938 92.246094 127.070312 92.273438 C 127.027344 92.363281 126.988281 92.46875 126.917969 92.527344 C 126.828125 92.605469 126.703125 92.5625 126.632812 92.480469 C 126.519531 92.351562 126.394531 92.210938 126.347656 92.050781 C 126.199219 91.578125 126.066406 91.101562 125.96875 90.617188 C 125.757812 89.574219 125.574219 88.53125 125.375 87.488281 C 125.332031 87.246094 125.242188 87.007812 125.34375 86.761719 C 125.402344 86.625 125.507812 86.53125 125.535156 86.535156 "/>
<path style=" stroke:none;fill-rule:nonzero;fill:rgb(100%,8.628845%,8.628845%);fill-opacity:1;" d="M 166.355469 90.578125 C 166.292969 90.714844 166.203125 90.773438 166.097656 90.75 C 165.996094 90.722656 165.902344 90.667969 165.816406 90.605469 C 164.535156 89.65625 163.402344 88.539062 162.332031 87.359375 C 162.167969 87.179688 162.050781 86.953125 161.9375 86.738281 C 161.875 86.609375 161.890625 86.453125 162.003906 86.34375 C 162.113281 86.234375 162.25 86.230469 162.394531 86.28125 C 162.636719 86.367188 162.828125 86.53125 162.980469 86.722656 C 163.855469 87.84375 164.933594 88.765625 165.886719 89.8125 C 166.027344 89.96875 166.164062 90.132812 166.28125 90.304688 C 166.335938 90.386719 166.335938 90.503906 166.355469 90.578125 "/>
<path style=" stroke:none;fill-rule:nonzero;fill:rgb(100%,8.628845%,8.628845%);fill-opacity:1;" d="M 168.5 57.988281 C 168.316406 57.933594 168.207031 57.816406 168.183594 57.621094 C 168.164062 57.429688 168.238281 57.273438 168.359375 57.140625 C 169.335938 56.042969 170.523438 55.261719 171.90625 54.773438 C 171.980469 54.746094 172.125 54.792969 172.183594 54.855469 C 172.292969 54.96875 172.261719 55.125 172.160156 55.230469 C 171.996094 55.410156 171.824219 55.59375 171.625 55.730469 C 170.691406 56.359375 169.804688 57.046875 168.972656 57.800781 C 168.839844 57.921875 168.691406 58.015625 168.5 57.988281 "/>
<path style=" stroke:none;fill-rule:nonzero;fill:rgb(100%,8.628845%,8.628845%);fill-opacity:1;" d="M 47.960938 61.707031 C 48.019531 61.726562 48.121094 61.75 48.21875 61.792969 C 48.359375 61.855469 48.402344 62.136719 48.3125 62.261719 C 48.175781 62.4375 47.984375 62.523438 47.789062 62.597656 C 46.5 63.082031 45.328125 63.800781 44.117188 64.441406 C 43.902344 64.554688 43.707031 64.722656 43.441406 64.703125 C 43.378906 64.699219 43.304688 64.660156 43.265625 64.613281 C 43.195312 64.523438 43.195312 64.398438 43.285156 64.335938 C 44.484375 63.472656 45.671875 62.589844 47.011719 61.953125 C 47.296875 61.820312 47.589844 61.6875 47.960938 61.707031 "/>
<path style=" stroke:none;fill-rule:nonzero;fill:rgb(100%,8.628845%,8.628845%);fill-opacity:1;" d="M 44.601562 56.742188 C 44.910156 56.742188 45.15625 56.726562 45.398438 56.746094 C 45.65625 56.769531 45.835938 56.960938 45.808594 57.144531 C 45.777344 57.347656 45.625 57.429688 45.445312 57.46875 C 45.378906 57.484375 45.308594 57.492188 45.238281 57.496094 C 44.074219 57.515625 42.933594 57.730469 41.785156 57.867188 C 41.4375 57.90625 41.085938 57.890625 40.738281 57.886719 C 40.578125 57.882812 40.472656 57.765625 40.472656 57.613281 C 40.476562 57.46875 40.5625 57.347656 40.707031 57.292969 C 40.808594 57.257812 40.910156 57.230469 41.011719 57.214844 C 41.359375 57.152344 41.703125 57.089844 42.050781 57.046875 C 42.921875 56.9375 43.792969 56.839844 44.601562 56.742188 "/>
<path style=" stroke:none;fill-rule:nonzero;fill:rgb(100%,8.628845%,8.628845%);fill-opacity:1;" d="M 169.882812 67.523438 C 169.816406 67.515625 169.640625 67.503906 169.46875 67.46875 C 169.261719 67.425781 169.101562 67.191406 169.132812 66.996094 C 169.164062 66.800781 169.285156 66.667969 169.472656 66.636719 C 169.886719 66.5625 170.304688 66.519531 170.71875 66.445312 C 171.515625 66.308594 172.304688 66.152344 173.101562 66.019531 C 173.1875 66.003906 173.324219 66.0625 173.375 66.132812 C 173.472656 66.265625 173.394531 66.398438 173.273438 66.488281 C 172.601562 66.980469 170.871094 67.527344 169.882812 67.523438 "/>
<path style=" stroke:none;fill-rule:nonzero;fill:rgb(100%,8.628845%,8.628845%);fill-opacity:1;" d="M 105.28125 83.828125 C 105.238281 84.683594 105.207031 85.320312 105.175781 85.957031 C 105.15625 86.351562 105.074219 86.730469 104.914062 87.089844 C 104.851562 87.230469 104.742188 87.316406 104.582031 87.277344 C 104.421875 87.238281 104.339844 87.09375 104.347656 86.960938 C 104.40625 85.863281 104.476562 84.769531 104.546875 83.675781 C 104.554688 83.609375 104.589844 83.53125 104.636719 83.484375 C 104.707031 83.417969 104.792969 83.347656 104.886719 83.324219 C 105.046875 83.285156 105.164062 83.402344 105.214844 83.53125 C 105.277344 83.691406 105.292969 83.871094 105.28125 83.828125 "/>
<path style=" stroke:none;fill-rule:nonzero;fill:rgb(100%,8.628845%,8.628845%);fill-opacity:1;" d="M 78.851562 80.285156 C 78.839844 80.375 78.824219 80.515625 78.785156 80.648438 C 78.542969 81.464844 78.164062 82.222656 77.777344 82.976562 C 77.730469 83.066406 77.648438 83.148438 77.5625 83.207031 C 77.445312 83.289062 77.292969 83.320312 77.179688 83.214844 C 77.109375 83.152344 77.082031 83.035156 77.0625 82.9375 C 77.050781 82.875 77.070312 82.796875 77.097656 82.730469 C 77.414062 81.910156 77.730469 81.085938 78.054688 80.265625 C 78.089844 80.167969 78.152344 80.078125 78.226562 80 C 78.328125 79.894531 78.457031 79.855469 78.605469 79.910156 C 78.753906 79.964844 78.804688 80.09375 78.851562 80.285156 "/>
</g>
</svg>
